<svg xmlns="http://www.w3.org/2000/svg" viewBox="0 0 86.91 82.89"><path d="M73.39,82.89a1,1,0,0,1-.88-1.47L80.64,66l-10-5.06L58.51,82.36a1,1,0,0,1-1.74-1l8.52-15.13V2.17A.18.18,0,0,0,65.13,2h-63A.14.14,0,0,0,2,2.15V81.87a1,1,0,0,1-2,0V2.17A2.14,2.14,0,0,1,1.87,0H65.13a2.17,2.17,0,0,1,1.54.65,2.09,2.09,0,0,1,.62,1.53V62.7l2-3.6a.92.92,0,0,1,.17-.22l3.62-7a1,1,0,0,1,1.34-.43l11.91,5.94a1,1,0,0,1,.5.59,1,1,0,0,1-.06.77L83,66a.93.93,0,0,1-.31.34l-8.43,16A1,1,0,0,1,73.39,82.89ZM71.6,59.16l10.1,5,2.85-5.41-10.12-5ZM53.47,74.29H13.83a1,1,0,1,1,0-2H53.47a1,1,0,0,1,0,2Zm0-17.49H13.83a1,1,0,1,1,0-2H53.47a1,1,0,0,1,0,2Zm0-17.49H13.83a1,1,0,1,1,0-2H53.47a1,1,0,0,1,0,2Zm0-17.48H13.83a1,1,0,1,1,0-2H53.47a1,1,0,0,1,0,2Z" style="fill:#c5d6e5"/></svg>