<svg xmlns="http://www.w3.org/2000/svg" viewBox="0 0 547.46 406.35">
    <path d="M121.85,121.69q3.18-2.55,10.39-2.55a33,33,0,0,1,16.11,4.46,194.46,194.46,0,0,1,18.23,11.66A82.65,82.65,0,0,0,181.53,144a45.87,45.87,0,0,0,19.19,3.81A53.1,53.1,0,0,0,214.6,146a36.73,36.73,0,0,0,11.77-5.4,27.82,27.82,0,0,0,8.16-9,24.67,24.67,0,0,0,3.07-12.41q0-8.26-4.45-13.67a35.18,35.18,0,0,0-11.76-9,93.72,93.72,0,0,0-16.65-6.15q-9.33-2.53-19-5.19t-19-5.94a66.67,66.67,0,0,1-16.65-8.48,40.42,40.42,0,0,1-11.76-12.93q-4.45-7.74-4.45-19.19A34,34,0,0,1,137.22,24a38.61,38.61,0,0,1,9.12-12.3,44.63,44.63,0,0,1,14-8.48A48.33,48.33,0,0,1,178,0,52.27,52.27,0,0,1,189,1.06q5,1.07,9.86,2.33t10.07,2.33a57.64,57.64,0,0,0,11.55,1.06A26.74,26.74,0,0,0,226.58,6a16.39,16.39,0,0,0,4.88-1.8A131.4,131.4,0,0,0,239.94,18q4.88,7,9.11,12.93a8,8,0,0,1-3.92,1.7,25,25,0,0,1-4.13.42,35.09,35.09,0,0,1-13.78-2.86,69.3,69.3,0,0,1-14.42-8.59,84.32,84.32,0,0,0-14.73-8.9,40.92,40.92,0,0,0-17.92-4A25.27,25.27,0,0,0,172.41,10a21.08,21.08,0,0,0-6.89,3.71,18.64,18.64,0,0,0-6.78,15q0,7.22,4.24,11.66a31.8,31.8,0,0,0,11.24,7.31,99.25,99.25,0,0,0,16,4.88q9,2,18.23,4.35a169.46,169.46,0,0,1,18.24,5.72,56.37,56.37,0,0,1,16,9.12A42.4,42.4,0,0,1,253.93,86q4.23,8.58,4.24,21.51,0,12.52-4.77,21.73a45.58,45.58,0,0,1-12.72,15.37,55.17,55.17,0,0,1-18.34,9.23,75.4,75.4,0,0,1-21.41,3.07,79.56,79.56,0,0,1-14.31-1.48,136.56,136.56,0,0,1-14.31-3.4q-11.44-3.6-17.39-3.6a38.18,38.18,0,0,0-9.32,1.06,58.07,58.07,0,0,0-7.42,2.33q-1.49-3.6-3.4-7.74t-4.13-8.26q-2.22-4.14-4.56-7.85C124.53,125.47,123.12,123.38,121.85,121.69Z"
          style="fill:#003980"/>
    <path d="M414.62,152a33.74,33.74,0,0,0-14.84-3.6,40.46,40.46,0,0,0-10.07,1.17c-3,.77-6.25,1.59-9.64,2.43s-7.14,1.66-11.24,2.44A80.76,80.76,0,0,1,354,155.61a77.45,77.45,0,0,1-31.48-6.47,88.48,88.48,0,0,1-25.76-17,79.48,79.48,0,0,1-17.38-24.06A64.31,64.31,0,0,1,273,80.56q0-18.65,6.14-33.6a82.36,82.36,0,0,1,15.9-25.34A70.32,70.32,0,0,1,317,5.62,57.2,57.2,0,0,1,341.06,0a47.26,47.26,0,0,1,11.45,1.27q5.08,1.27,9.64,2.86T371.27,7a36,36,0,0,0,9.64,1.27,16.3,16.3,0,0,0,7-1.59q3.39-1.59,6.78-3.5a104.25,104.25,0,0,0,8.06,19.61A66.11,66.11,0,0,0,415,39.64a31.74,31.74,0,0,1-5.51,1.49,33.8,33.8,0,0,1-5.51.42,27,27,0,0,1-7.95-1.27,46,46,0,0,1-8.27-3.5A56.86,56.86,0,0,1,380,31.69a55,55,0,0,1-6.68-6Q365,17,357.49,13.46a41.68,41.68,0,0,0-17.7-3.5,30,30,0,0,0-14.63,3.71,38.64,38.64,0,0,0-11.87,10.18,50,50,0,0,0-8.06,15.48,62.26,62.26,0,0,0-3,19.61A97.87,97.87,0,0,0,308,93a99.31,99.31,0,0,0,14.52,26.93,69.28,69.28,0,0,0,19.4,17.59q10.59,6.26,20.13,6.26a101.82,101.82,0,0,0,13.89-.85q6-.84,8.8-3.18L380.7,95H365.65a38.9,38.9,0,0,1-12.4-1.7,23.17,23.17,0,0,1-8.16-4.56,16.73,16.73,0,0,1-4.56-6.46,20.63,20.63,0,0,1-1.38-7.42q0-8.06,4.66-13.15a14.72,14.72,0,0,1,11.24-5.09,15.6,15.6,0,0,1,10.18,3.29,10.78,10.78,0,0,1,4,8.8,10.17,10.17,0,0,1-2.12,6.36,6.62,6.62,0,0,1-5.51,2.75,8.13,8.13,0,0,1-5.3-1.9A6,6,0,0,1,354,71c0-2.4.56-4,1.7-4.88a2.89,2.89,0,0,0-1.49-.21c-1.13,0-2.26.78-3.39,2.33a11.06,11.06,0,0,0-1.7,6.58,9.34,9.34,0,0,0,3.71,7.63q3.71,3,11.56,3H418a23.69,23.69,0,0,0-5.93,7.42,22.47,22.47,0,0,0-2.34,10.6,18.33,18.33,0,0,0,.11,2c.07.64.18,1.31.32,2Z"
          style="fill:#003980"/>
    <path d="M53.3,345.25a5.41,5.41,0,0,1,3.39-.83,10.73,10.73,0,0,1,5.24,1.45,62.42,62.42,0,0,1,5.93,3.79,26.84,26.84,0,0,0,4.87,2.83A14.89,14.89,0,0,0,79,353.73a17.29,17.29,0,0,0,4.52-.58,11.92,11.92,0,0,0,3.83-1.76A9,9,0,0,0,90,348.45a8.06,8.06,0,0,0,1-4A6.73,6.73,0,0,0,89.53,340,11.42,11.42,0,0,0,85.7,337a30.24,30.24,0,0,0-5.42-2l-6.17-1.69c-2.1-.57-4.15-1.21-6.18-1.93a21.51,21.51,0,0,1-5.41-2.76,13.07,13.07,0,0,1-3.83-4.21,12.31,12.31,0,0,1-1.45-6.24,10.93,10.93,0,0,1,1.07-4.76,12.63,12.63,0,0,1,3-4,14.82,14.82,0,0,1,4.56-2.76,15.72,15.72,0,0,1,5.76-1,17,17,0,0,1,3.55.34c1.08.23,2.15.49,3.21.76s2.15.53,3.28.76a18.86,18.86,0,0,0,3.76.35,8.87,8.87,0,0,0,2-.24A5.37,5.37,0,0,0,89,307a42.46,42.46,0,0,0,2.76,4.48c1.06,1.52,2,2.93,3,4.21a2.61,2.61,0,0,1-1.27.56,8.2,8.2,0,0,1-1.35.13,11.42,11.42,0,0,1-4.48-.93,22.51,22.51,0,0,1-4.69-2.79,26.91,26.91,0,0,0-4.8-2.9,13.34,13.34,0,0,0-5.83-1.31,8.3,8.3,0,0,0-2.52.41,6.81,6.81,0,0,0-2.24,1.21,6.31,6.31,0,0,0-1.59,2,6.25,6.25,0,0,0-.62,2.86,5.28,5.28,0,0,0,1.38,3.8,10.33,10.33,0,0,0,3.66,2.38,32.88,32.88,0,0,0,5.21,1.59c2,.43,3.93.91,5.93,1.41A58.24,58.24,0,0,1,87.43,326a18.64,18.64,0,0,1,5.21,3,14,14,0,0,1,3.65,4.66,15.76,15.76,0,0,1,1.38,7,15.3,15.3,0,0,1-1.55,7.08,15,15,0,0,1-4.14,5,18.22,18.22,0,0,1-6,3,24.32,24.32,0,0,1-7,1,25.86,25.86,0,0,1-4.66-.48,45.68,45.68,0,0,1-4.65-1.11,20.84,20.84,0,0,0-5.66-1.17,12.52,12.52,0,0,0-3,.34,19.78,19.78,0,0,0-2.41.76q-.48-1.17-1.11-2.52c-.41-.89-.86-1.79-1.34-2.69s-1-1.74-1.49-2.55S53.72,345.8,53.3,345.25Z"
          style="fill:#003980"/>
    <path d="M97.67,306q2.55-.35,5.8-1a44.69,44.69,0,0,0,6.76-2V348.9a9.06,9.06,0,0,0,.55,3.38,8.42,8.42,0,0,0,2.55,3H97.67A9.71,9.71,0,0,0,99.91,353a6.66,6.66,0,0,0,1.21-4.11V311.09a5.2,5.2,0,0,0-.76-2.9A7.08,7.08,0,0,0,97.67,306Z"
          style="fill:#003980"/>
    <path d="M114.09,337.93a20.53,20.53,0,0,1,1.28-7.31,19.92,19.92,0,0,1,3.45-5.94,15.85,15.85,0,0,1,5.14-4,14.21,14.21,0,0,1,6.28-1.45,14,14,0,0,1,6.24,1.45,16.48,16.48,0,0,1,5.14,4,19.31,19.31,0,0,1,3.52,5.9,19.72,19.72,0,0,1,1.31,7.24,19.58,19.58,0,0,1-4.86,13,17,17,0,0,1-5.18,4,13.81,13.81,0,0,1-6.17,1.45,14.72,14.72,0,0,1-6.28-1.38,15.62,15.62,0,0,1-5.14-3.83,18.6,18.6,0,0,1-3.45-5.8A20.29,20.29,0,0,1,114.09,337.93Zm10.77,8.14a14.65,14.65,0,0,0,.44,3.9,6.68,6.68,0,0,0,1.21,2.45,4.3,4.3,0,0,0,1.73,1.28,5.47,5.47,0,0,0,2,.38,4.84,4.84,0,0,0,3.69-1.76,7.15,7.15,0,0,0,1.28-2.45,12.79,12.79,0,0,0,.48-3.8v-5.45q0-1.86,0-3.93c0-1.38,0-2.66,0-3.83v-4.52a8.4,8.4,0,0,0-1.24-4.76,4.61,4.61,0,0,0-4.14-1.86,4.66,4.66,0,0,0-4,1.86,7.91,7.91,0,0,0-1.34,4.76Z"
          style="fill:#003980"/>
    <path d="M147.21,326.2a12.81,12.81,0,0,0-1.93-3.1,12.61,12.61,0,0,0-2.83-2.69h17.18A8.16,8.16,0,0,0,158,322a3.37,3.37,0,0,0-.82,2,7.24,7.24,0,0,0,.17,1.62,15.44,15.44,0,0,0,.79,2.32l7.94,19,1.52-4.42q1-2.9,1.86-6.34a27.54,27.54,0,0,0,.9-7,14.07,14.07,0,0,0-.94-5.52,11.21,11.21,0,0,0-2-3.31h14.14a21.88,21.88,0,0,0-3.93,5.31,73.11,73.11,0,0,0-3.69,7.66c-1.17,2.8-2.28,5.69-3.31,8.66s-2,5.74-2.8,8.31a7.82,7.82,0,0,0,1.83,2.9,14.9,14.9,0,0,0,2.45,2.07,29,29,0,0,0-6.28.62c-1.84.41-3.66.9-5.45,1.45Z"
          style="fill:#003980"/>
    <path d="M183.51,330.34a.55.55,0,0,1-.56.35q-.13,0-.27-.21a.7.7,0,0,1-.14-.41,8.14,8.14,0,0,1,.83-3.18,12,12,0,0,1,2.55-3.59,15.2,15.2,0,0,1,4.35-3,14.53,14.53,0,0,1,6.28-1.25,19.3,19.3,0,0,1,4.17.45,12.26,12.26,0,0,1,3.69,1.45,8.89,8.89,0,0,1,2.73,2.55,7.67,7.67,0,0,1,1.27,3.7l2.07,21.32a11.47,11.47,0,0,0,.35,1.93,9.79,9.79,0,0,0,.76,2,8.62,8.62,0,0,0,1.1,1.65,2.78,2.78,0,0,0,1.45.93l-.07.28H202.2l-.55-1.31a20.74,20.74,0,0,1-4.41,2,13.77,13.77,0,0,1-3.87.52,16.29,16.29,0,0,1-5.38-.83,12.38,12.38,0,0,1-4.1-2.27,10.42,10.42,0,0,1-2.63-3.35,9.21,9.21,0,0,1-.93-4.11,11.3,11.3,0,0,1,1.24-5.31,15.57,15.57,0,0,1,3.59-4.38,32.48,32.48,0,0,1,5.66-3.86q3.31-1.83,7.45-3.83a4,4,0,0,0-2.38-2.38,9.34,9.34,0,0,0-3.76-.8,9.71,9.71,0,0,0-5,1.45A10,10,0,0,0,183.51,330.34Zm15.8,1.24a32.65,32.65,0,0,0-4.07,2.83,14.24,14.24,0,0,0-2.7,2.9,10.32,10.32,0,0,0-1.48,3.24,15.35,15.35,0,0,0-.45,3.87,8.72,8.72,0,0,0,.45,2.65,10.53,10.53,0,0,0,1.28,2.66,7.74,7.74,0,0,0,2,2.07,4.56,4.56,0,0,0,2.69.83,5.65,5.65,0,0,0,4.35-1.8Z"
          style="fill:#003980"/>
    <path d="M224.63,338.07l6-6.14a12.6,12.6,0,0,0,2.14-2.9,7.11,7.11,0,0,0,.9-3.45,4.24,4.24,0,0,0-1.11-2.86,10.81,10.81,0,0,0-2.41-2.11v-.2h17l.14.48q-2.55,1.78-5.73,4.31a96.41,96.41,0,0,0-7.72,7.07l9,17.12a17.36,17.36,0,0,0,2.27,3.51,17.87,17.87,0,0,0,2.69,2.42H231.32a9.33,9.33,0,0,0,1.42-1.31,2.55,2.55,0,0,0,.51-1.66,6,6,0,0,0-.27-1.45,8.17,8.17,0,0,0-.76-1.79l-5.24-10-2.35,2.07V349a8.68,8.68,0,0,0,.72,3.73,5,5,0,0,0,1.9,2.21v.41h-15l-.07-.35a4.25,4.25,0,0,0,2.52-2.38,10.42,10.42,0,0,0,.86-4.45V312.75a7.75,7.75,0,0,0-.72-3.63,6.26,6.26,0,0,0-2.11-2.24v-.27a29.2,29.2,0,0,0,5.87-1.21,50.62,50.62,0,0,0,6.07-2.38Z"
          style="fill:#003980"/>
    <path d="M249.33,327.44a7.21,7.21,0,0,0-.79-3.34,4.92,4.92,0,0,0-2.59-2.31,32.79,32.79,0,0,0,6.45-1.25c2-.59,4-1.31,6-2.14v29.54a9.28,9.28,0,0,0,.86,4.41,9.62,9.62,0,0,0,2.66,3H245.74V355a7,7,0,0,0,2.56-2.17,5,5,0,0,0,1-3Zm-1.1-17.87a5.41,5.41,0,0,1,1.55-3.9,5,5,0,0,1,3.76-1.62,5.2,5.2,0,0,1,3.86,1.62,5.37,5.37,0,0,1,1.59,3.9,5.41,5.41,0,0,1-5.45,5.45,5,5,0,0,1-3.76-1.58A5.31,5.31,0,0,1,248.23,309.57Z"
          style="fill:#003980"/>
    <path d="M264.72,330.34a.55.55,0,0,1-.55.35c-.1,0-.19-.07-.28-.21a.78.78,0,0,1-.14-.41,8.14,8.14,0,0,1,.83-3.18,12,12,0,0,1,2.55-3.59,15.2,15.2,0,0,1,4.35-3,14.53,14.53,0,0,1,6.28-1.25,19.23,19.23,0,0,1,4.17.45,12.26,12.26,0,0,1,3.69,1.45,8.78,8.78,0,0,1,2.73,2.55,7.79,7.79,0,0,1,1.28,3.7l2.07,21.32a10.47,10.47,0,0,0,.34,1.93,9.79,9.79,0,0,0,.76,2,8.62,8.62,0,0,0,1.1,1.65,2.78,2.78,0,0,0,1.45.93l-.07.28H283.42l-.56-1.31a20.52,20.52,0,0,1-4.41,2,13.77,13.77,0,0,1-3.87.52,16.33,16.33,0,0,1-5.38-.83,12.38,12.38,0,0,1-4.1-2.27,10.56,10.56,0,0,1-2.63-3.35,9.21,9.21,0,0,1-.93-4.11,11.19,11.19,0,0,1,1.25-5.31,15.35,15.35,0,0,1,3.58-4.38,32.86,32.86,0,0,1,5.66-3.86q3.32-1.83,7.45-3.83a4,4,0,0,0-2.38-2.38,9.34,9.34,0,0,0-3.76-.8,9.68,9.68,0,0,0-5,1.45A10,10,0,0,0,264.72,330.34Zm15.8,1.24a32.65,32.65,0,0,0-4.07,2.83,14.17,14.17,0,0,0-2.69,2.9,10.35,10.35,0,0,0-1.49,3.24,15.35,15.35,0,0,0-.45,3.87,8.72,8.72,0,0,0,.45,2.65,10.53,10.53,0,0,0,1.28,2.66,7.74,7.74,0,0,0,2,2.07,4.56,4.56,0,0,0,2.69.83,5.64,5.64,0,0,0,4.35-1.8Z"
          style="fill:#003980"/>
    <path d="M351.31,355.11a11,11,0,0,0-4.83-1.17,13.37,13.37,0,0,0-3.28.38l-3.14.79c-1.1.28-2.32.54-3.65.8a26.72,26.72,0,0,1-4.83.38,25.27,25.27,0,0,1-10.25-2.11,28.65,28.65,0,0,1-8.38-5.52,25.87,25.87,0,0,1-5.66-7.83,20.91,20.91,0,0,1-2.07-9,28.62,28.62,0,0,1,2-10.94,26.77,26.77,0,0,1,5.17-8.24,22.84,22.84,0,0,1,7.15-5.21,18.56,18.56,0,0,1,7.83-1.83,15.63,15.63,0,0,1,3.72.41c1.11.28,2.15.59,3.14.93s2,.66,3,.94a11.9,11.9,0,0,0,3.14.41,5.27,5.27,0,0,0,2.28-.52c.73-.34,1.47-.72,2.21-1.14a33.69,33.69,0,0,0,2.62,6.39,21.49,21.49,0,0,0,4,5.48,11.58,11.58,0,0,1-1.79.49,11.28,11.28,0,0,1-1.8.13,8.67,8.67,0,0,1-2.59-.41,15.81,15.81,0,0,1-2.69-1.14A18.51,18.51,0,0,1,340,316a18.06,18.06,0,0,1-2.17-2,17.78,17.78,0,0,0-5.14-4,13.59,13.59,0,0,0-5.77-1.14,9.82,9.82,0,0,0-4.76,1.21,12.64,12.64,0,0,0-3.86,3.31,16.14,16.14,0,0,0-2.62,5,20.08,20.08,0,0,0-1,6.38,32,32,0,0,0,1.86,11.08,32.6,32.6,0,0,0,4.73,8.76,22.66,22.66,0,0,0,6.31,5.73,13,13,0,0,0,6.56,2,33.58,33.58,0,0,0,4.52-.27,5.68,5.68,0,0,0,2.86-1l-1.31-14.56h-4.9a12.57,12.57,0,0,1-4-.55,7.53,7.53,0,0,1-2.66-1.48,5.43,5.43,0,0,1-1.48-2.11,6.69,6.69,0,0,1-.45-2.41,6.08,6.08,0,0,1,1.51-4.28,4.8,4.8,0,0,1,3.66-1.66,5.06,5.06,0,0,1,3.31,1.07,3.51,3.51,0,0,1,1.32,2.87,3.32,3.32,0,0,1-.7,2.07,2.16,2.16,0,0,1-1.79.89,2.65,2.65,0,0,1-1.72-.62,1.94,1.94,0,0,1-.76-1.59,1.86,1.86,0,0,1,.55-1.58c-.05-.05-.21-.07-.48-.07a1.48,1.48,0,0,0-1.11.76A3.56,3.56,0,0,0,330,330a3,3,0,0,0,1.21,2.48,5.94,5.94,0,0,0,3.76,1h17.45a7.81,7.81,0,0,0-1.93,2.41,7.44,7.44,0,0,0-.76,3.45,4.68,4.68,0,0,0,0,.66c0,.2.06.42.1.65Z"
          style="fill:#003980"/>
    <path d="M356.83,330.34a.54.54,0,0,1-.55.35c-.09,0-.19-.07-.28-.21a.78.78,0,0,1-.14-.41,8.14,8.14,0,0,1,.83-3.18,12.06,12.06,0,0,1,2.56-3.59,15,15,0,0,1,4.34-3,14.53,14.53,0,0,1,6.28-1.25,19.32,19.32,0,0,1,4.18.45,12.47,12.47,0,0,1,3.69,1.45,8.85,8.85,0,0,1,2.72,2.55,7.68,7.68,0,0,1,1.28,3.7l2.07,21.32a10.52,10.52,0,0,0,1.1,3.9,8.65,8.65,0,0,0,1.11,1.65,2.7,2.7,0,0,0,1.45.93l-.07.28H375.53L375,354a20.56,20.56,0,0,1-4.42,2,13.69,13.69,0,0,1-3.86.52,16.25,16.25,0,0,1-5.38-.83,12.43,12.43,0,0,1-4.11-2.27,10.39,10.39,0,0,1-2.62-3.35,9.21,9.21,0,0,1-.93-4.11,11.18,11.18,0,0,1,1.24-5.31,15.4,15.4,0,0,1,3.59-4.38,32.76,32.76,0,0,1,5.65-3.86q3.32-1.83,7.46-3.83a4.07,4.07,0,0,0-2.38-2.38,9.38,9.38,0,0,0-3.76-.8,9.71,9.71,0,0,0-5,1.45A10,10,0,0,0,356.83,330.34Zm15.8,1.24a32.65,32.65,0,0,0-4.07,2.83,14.46,14.46,0,0,0-2.69,2.9,10.1,10.1,0,0,0-1.48,3.24,15.35,15.35,0,0,0-.45,3.87,8.72,8.72,0,0,0,.45,2.65,10.17,10.17,0,0,0,1.27,2.66,7.74,7.74,0,0,0,2,2.07,4.58,4.58,0,0,0,2.69.83,5.62,5.62,0,0,0,4.35-1.8Z"
          style="fill:#003980"/>
    <path d="M386,322.89a63.16,63.16,0,0,0,6.17-1.86,46.63,46.63,0,0,0,6-2.63V327a24.28,24.28,0,0,1,4-5.07,7.32,7.32,0,0,1,5.28-2.18,7.42,7.42,0,0,1,2.45.42,6.8,6.8,0,0,1,2.17,1.21,6.42,6.42,0,0,1,1.55,1.86,4.88,4.88,0,0,1,.59,2.38,5.12,5.12,0,0,1-5.18,5.24,4.29,4.29,0,0,1-1.48-.24c-.44-.16-.86-.33-1.28-.52a13.49,13.49,0,0,0-1.38-.51,5.92,5.92,0,0,0-1.79-.24,3.73,3.73,0,0,0-1.69.44,5.1,5.1,0,0,0-1.59,1.35,7.07,7.07,0,0,0-1.17,2.35,11.39,11.39,0,0,0-.45,3.38v12.21a10.63,10.63,0,0,0,.55,3.69,5.14,5.14,0,0,0,2.21,2.52h-14.7a6.84,6.84,0,0,0,2-2.24,7.2,7.2,0,0,0,.86-3.69V328.06a4.78,4.78,0,0,0-.34-1.86,7.28,7.28,0,0,0-.83-1.48,6.42,6.42,0,0,0-1-1.11C386.53,323.32,386.25,323.07,386,322.89Z"
          style="fill:#003980"/>
    <path d="M415.62,330.34a.54.54,0,0,1-.55.35c-.1,0-.19-.07-.28-.21a.78.78,0,0,1-.14-.41,8.14,8.14,0,0,1,.83-3.18A12,12,0,0,1,418,323.3a15.2,15.2,0,0,1,4.35-3,14.53,14.53,0,0,1,6.28-1.25,19.23,19.23,0,0,1,4.17.45,12.42,12.42,0,0,1,3.7,1.45,8.85,8.85,0,0,1,2.72,2.55,7.79,7.79,0,0,1,1.28,3.7l2.07,21.32a10.52,10.52,0,0,0,1.1,3.9,8.21,8.21,0,0,0,1.11,1.65,2.71,2.71,0,0,0,1.44.93l-.06.28H434.32l-.55-1.31a20.78,20.78,0,0,1-4.42,2,13.74,13.74,0,0,1-3.86.52,16.35,16.35,0,0,1-5.39-.83,12.38,12.38,0,0,1-4.1-2.27,10.39,10.39,0,0,1-2.62-3.35,9.09,9.09,0,0,1-.94-4.11,11.19,11.19,0,0,1,1.25-5.31,15.35,15.35,0,0,1,3.58-4.38,32.86,32.86,0,0,1,5.66-3.86q3.31-1.83,7.45-3.83a4,4,0,0,0-2.38-2.38,9.34,9.34,0,0,0-3.76-.8,9.68,9.68,0,0,0-5,1.45A10,10,0,0,0,415.62,330.34Zm15.8,1.24a32.65,32.65,0,0,0-4.07,2.83,14.17,14.17,0,0,0-2.69,2.9,10.35,10.35,0,0,0-1.49,3.24,15.37,15.37,0,0,0-.44,3.87,8.69,8.69,0,0,0,.44,2.65,10.53,10.53,0,0,0,1.28,2.66,7.74,7.74,0,0,0,2,2.07,4.56,4.56,0,0,0,2.69.83,5.62,5.62,0,0,0,4.35-1.8Z"
          style="fill:#003980"/>
    <path d="M447.84,327.86a8.07,8.07,0,0,0-.76-3.35,6.78,6.78,0,0,0-2-2.66v-.34a54.92,54.92,0,0,0,6.07-1.14,41.76,41.76,0,0,0,5.8-1.9V324a20.5,20.5,0,0,1,4.31-3.2,10.5,10.5,0,0,1,5.21-1.28,10.71,10.71,0,0,1,3,.45,8.64,8.64,0,0,1,2.87,1.45,7.77,7.77,0,0,1,2.14,2.58,8.32,8.32,0,0,1,.82,3.87v22.49A5.36,5.36,0,0,0,476,353a10.7,10.7,0,0,0,1.76,2.31H464.4a8.77,8.77,0,0,0,1.24-2.42,10,10,0,0,0,.56-3.45V330.27c0-2.07-.37-3.52-1.11-4.34a3.46,3.46,0,0,0-2.69-1.25,4.8,4.8,0,0,0-1.86.38,6.89,6.89,0,0,0-1.62,1,6.34,6.34,0,0,0-1.25,1.34,5.58,5.58,0,0,0-.72,1.45v21.26a5.21,5.21,0,0,0,.9,3.2,12.42,12.42,0,0,0,1.86,2H444.46a10.23,10.23,0,0,0,2.42-3.11,9.65,9.65,0,0,0,1-4.48Z"
          style="fill:#003980"/>
    <path d="M481,323.72h-4.35a41.44,41.44,0,0,0,7.35-5.56,53.4,53.4,0,0,0,6.11-7v9.25h4.69v3.31h-4.69v23.87a5,5,0,0,0,.72,2.8,2.28,2.28,0,0,0,2,1.07,2.78,2.78,0,0,0,1.28-.35,5,5,0,0,0,1.41-1.31,6.45,6.45,0,0,1,.14.9,3.59,3.59,0,0,1-.73,2.17,6.8,6.8,0,0,1-1.82,1.72,9.42,9.42,0,0,1-2.42,1.14,7.94,7.94,0,0,1-2.41.42,8.08,8.08,0,0,1-5.11-1.66c-1.43-1.1-2.14-3-2.14-5.59Z"
          style="fill:#003980"/>
    <path d="M304.21,255.89l.05,0c-7.82,12.47-20.32,20.16-30.15,24.89-9.8-4.72-22.26-12.38-30.08-24.79Z"
          style="fill:#003980"/>
    <path d="M304.21,255.89,244,256,244,256c2-3.54,5.19-7.37,9.49-7.37a9.58,9.58,0,0,1,8.68,5.12s3-7.76,8.65-10.13v5.07h6.62v-5.07c5.65,2.36,8.66,10.13,8.66,10.13a9.56,9.56,0,0,1,8.68-5.12C299,248.58,302.2,252.37,304.21,255.89Z"
          style="fill:#003980"/>
    <path d="M297.06,223.42s-.19,2.61-.19,5.64.19,5.64.19,5.64c-6.67-2.24-14.92-2.28-19.64-2.22v11.09a8.51,8.51,0,0,0-6.62,0V232.48c-4.72-.06-13,0-19.64,2.22,0,0,.19-2.61.19-5.64s-.19-5.64-.19-5.64c7.28,2.44,15.46,2.27,19.64,2.21V215.47a46.66,46.66,0,0,0-15.54,2.24s.19-2.61.19-5.64-.19-5.64-.19-5.64a46.49,46.49,0,0,0,15.53,2.23,90.64,90.64,0,0,0-2.07-14.53s3.85.3,5.39.3,5.4-.3,5.4-.3a91.37,91.37,0,0,0-2.08,14.53A46.49,46.49,0,0,0,293,206.43s-.19,2.6-.19,5.64.19,5.64.19,5.64a46.63,46.63,0,0,0-15.54-2.24v10.16C281.61,225.69,289.78,225.86,297.06,223.42Z"
          style="fill:#003980"/>
    <path d="M277.42,243.57v5.07H270.8v-5.07a8.51,8.51,0,0,1,6.62,0Z" style="fill:#003980"/>
    <path d="M244,256l.05.07h-.09Z" style="fill:#003980"/>
    <path d="M244,256a49,49,0,0,1-7.48-26.65c0-29.27,1.4-42.57,1.4-42.57h72.42s1.4,13.3,1.4,42.57a49,49,0,0,1-7.46,26.62c-7.82,12.47-20.32,20.16-30.15,24.89-9.8-4.72-22.26-12.38-30.08-24.79"
          style="fill:none;stroke:#003980;stroke-miterlimit:10;stroke-width:4px"/>
    <path d="M326.71,163.38l-1.54,0c-1.32,0-2.65,0-4,.17a20.29,20.29,0,0,0-7.78,2.06,7.44,7.44,0,0,0-3.14,3.1,6.71,6.71,0,0,0-.5,4.33,65.06,65.06,0,0,0-72.1,0,6.71,6.71,0,0,0-.5-4.33,7.44,7.44,0,0,0-3.14-3.1,20.29,20.29,0,0,0-7.78-2.06,53.28,53.28,0,0,0-5.51-.16l-2.44.18h-.09a41.94,41.94,0,0,0-7.94,1.92A44.54,44.54,0,0,0,195.85,174c-1.07.93-2.13,1.89-3.15,2.92-.54.51-1,1-1.48,1.53s-1,1.09-1.47,1.65a28.06,28.06,0,0,0-3.1,4.55c-.49-.17-1-.35-1.49-.51a75.77,75.77,0,0,0-19.9-3.58,82.66,82.66,0,0,0-20.47,1.58,81.22,81.22,0,0,0-10,2.73c-1.65.59-3.27,1.2-4.91,1.91s-3.18,1.45-4.72,2.23c-6.22,3.14-12.37,7.2-16.85,13A35.58,35.58,0,0,0,103,211.6a43.31,43.31,0,0,0-2.29,10.68l-.1,1.3-.06,1.44c0,.94,0,1.87.11,2.8a34.73,34.73,0,0,0,.93,5.47,43.7,43.7,0,0,0,4.06,10.2,46.68,46.68,0,0,0,6.33,9,39.59,39.59,0,0,0,4,3.86c1.35,1.12,2.66,2,4,2.92-2.27,1.09-4.54,2.2-6.79,3.34-3.67,1.85-7.31,3.75-10.92,5.67l-7.58-2.7c-2.53-.92-5.08-1.91-7.66-2.92-5.16-2-10.42-4.14-15.86-6.11a161.62,161.62,0,0,0-16.91-5.23A77.53,77.53,0,0,0,36,248.91,42.88,42.88,0,0,0,17.26,253,35.71,35.71,0,0,0,13,255.44l-.52.34-.29.21-.24.18-.95.71c-.63.5-1.33,1.1-2,1.67a26,26,0,0,0-5.92,8.29,24.93,24.93,0,0,0,.1,20.3,26.57,26.57,0,0,0,15.19,14c.43.15.8.31,1.28.46s.8.24,1.28.36a22.82,22.82,0,0,0,2.67.51,31.68,31.68,0,0,0,5.32.23,53.34,53.34,0,0,0,10.34-1.55,125.42,125.42,0,0,0,19.57-6.86c12.7-5.52,25-12.13,37.33-18.69l7.15-3.79c9.26,3.37,18.13,6.84,26.82,9.61a125.63,125.63,0,0,0,27.21,5.95,71.67,71.67,0,0,0,24.51-1.86c1.84-.51,3.64-1,5.38-1.66.89-.28,1.71-.61,2.53-.94l1.22-.48.3-.12.33-.14.6-.27a40.52,40.52,0,0,0,8.66-5.17,31.84,31.84,0,0,0,10.15-13.62,33.15,33.15,0,0,0,2.11-11.51,65.23,65.23,0,0,0,121.14,0,33.15,33.15,0,0,0,2.11,11.51,31.84,31.84,0,0,0,10.15,13.62,40.52,40.52,0,0,0,8.66,5.17l.6.27.33.14.31.12,1.21.48c.82.33,1.64.66,2.53.94,1.74.63,3.54,1.15,5.38,1.66a71.67,71.67,0,0,0,24.51,1.86,125.63,125.63,0,0,0,27.21-5.95c8.69-2.77,17.56-6.24,26.82-9.61l7.15,3.79c12.37,6.56,24.63,13.17,37.33,18.69a125.42,125.42,0,0,0,19.57,6.86,53.34,53.34,0,0,0,10.34,1.55,31.76,31.76,0,0,0,5.33-.23,23.63,23.63,0,0,0,2.67-.51c.47-.12.88-.24,1.27-.36s.85-.31,1.28-.46a26.57,26.57,0,0,0,15.19-14,24.93,24.93,0,0,0,.1-20.3,25.86,25.86,0,0,0-5.92-8.29c-.62-.57-1.31-1.17-1.95-1.67l-1-.71-.23-.18-.3-.21-.51-.34A36.63,36.63,0,0,0,530.2,253a42.85,42.85,0,0,0-18.72-4.06,77.37,77.37,0,0,0-18.27,2.39,161.07,161.07,0,0,0-16.92,5.23c-5.44,2-10.7,4.08-15.86,6.11-2.58,1-5.13,2-7.66,2.92l-7.58,2.7c-3.61-1.91-7.25-3.82-10.92-5.67q-3.37-1.71-6.79-3.34c1.35-.91,2.65-1.8,4-2.92a40.56,40.56,0,0,0,4-3.86,47.17,47.17,0,0,0,6.34-9,44.12,44.12,0,0,0,4.05-10.2,33.61,33.61,0,0,0,.93-5.47c.09-.93.11-1.86.11-2.8l-.06-1.44-.1-1.3a42.86,42.86,0,0,0-2.29-10.68A35.58,35.58,0,0,0,439.2,202c-4.48-5.83-10.63-9.89-16.85-13-1.54-.78-3.15-1.54-4.72-2.23s-3.26-1.32-4.91-1.91a80.74,80.74,0,0,0-10.05-2.73,82.66,82.66,0,0,0-20.47-1.58,75.77,75.77,0,0,0-19.9,3.58c-.5.16-1,.34-1.49.51a27.44,27.44,0,0,0-3.1-4.55c-.47-.56-1-1.16-1.47-1.65s-.94-1-1.48-1.53c-1-1-2.08-2-3.15-2.92a44.54,44.54,0,0,0-14.43-8.49,41.94,41.94,0,0,0-7.94-1.92h-.09Zm-232.23,109C82.13,279,69.92,285.56,57.44,291a122.66,122.66,0,0,1-19,6.69,49.44,49.44,0,0,1-9.63,1.46A27.38,27.38,0,0,1,24.1,299a20.08,20.08,0,0,1-2.26-.43c-.33-.07-.72-.19-1.13-.32s-.72-.25-1.08-.38A23.11,23.11,0,0,1,6.41,285.7a21.56,21.56,0,0,1-.14-17.47,22.42,22.42,0,0,1,5.11-7.2c.54-.5,1-.95,1.64-1.44l1-.71.24-.18a.87.87,0,0,1,.19-.13l.46-.32A35,35,0,0,1,18.74,256,39.69,39.69,0,0,1,36,252.19a74.92,74.92,0,0,1,17.5,2.22,159.72,159.72,0,0,1,16.6,5.06c5.38,1.92,10.63,4,15.81,6,2.59,1,5.17,2,7.75,2.92l5,1.76Zm228.27-93.67a10.14,10.14,0,0,0,5.8-4.79l.11-.22.1-.25.15-.39a8.55,8.55,0,0,0,.29-.82,13.72,13.72,0,0,0,.44-1.79,15,15,0,0,0,.17-3.54c0-.19-.05-.38-.08-.58a38.64,38.64,0,0,1,6.55,1.68,42,42,0,0,1,13.51,8c1,.9,2,1.82,3,2.78.48.46,1,1,1.44,1.5s.9,1,1.34,1.52a24.3,24.3,0,0,1,2.58,3.76l-.52.2c-.76.3-1.58.65-2.35,1s-1.52.81-2.24,1.24a47,47,0,0,0-8,6.06,33.25,33.25,0,0,0-6.29,7.82,17.53,17.53,0,0,0-1.85,4.87,12,12,0,0,0-.21,3.34,65.28,65.28,0,0,0-18.62-30.66A13.47,13.47,0,0,0,322.75,178.72Zm-130.82,3.15c.44-.53.84-1,1.34-1.52s1-1,1.44-1.5c.94-1,1.94-1.88,3-2.78a42.08,42.08,0,0,1,13.51-8,38.64,38.64,0,0,1,6.55-1.68c0,.2-.07.39-.08.58a14.54,14.54,0,0,0,.18,3.54,13.65,13.65,0,0,0,.43,1.79,8.55,8.55,0,0,0,.29.82l.15.39c0,.09,0,.08.11.25l.11.22a10.09,10.09,0,0,0,5.79,4.79,13.55,13.55,0,0,0,4.7.82,65.36,65.36,0,0,0-18.62,30.66,12,12,0,0,0-.21-3.34,17.53,17.53,0,0,0-1.85-4.87,33,33,0,0,0-6.29-7.82,47,47,0,0,0-8-6.06c-.72-.43-1.47-.85-2.23-1.24s-1.6-.74-2.35-1l-.53-.2A25,25,0,0,1,191.93,181.87Zm17.17,80.49A29.71,29.71,0,0,1,199.53,275a38.88,38.88,0,0,1-8.22,4.81l-.57.25-.27.11-.3.12-1.23.47c-.82.33-1.65.65-2.48.91-1.64.57-3.39,1.06-5.17,1.53a68.81,68.81,0,0,1-23.68,1.6A123,123,0,0,1,131,278.74c-7.78-2.55-15.78-5.66-24.16-8.78,2.65-1.38,5.3-2.76,8-4.11,2.91-1.46,5.84-2.9,8.79-4.28a48.41,48.41,0,0,0,16.92,6.59,44.52,44.52,0,0,0,5.53.6c.94,0,1.9.07,2.76,0a22.43,22.43,0,0,0,2.88-.14,28.63,28.63,0,0,0,5.55-1.34,23.81,23.81,0,0,0,5.21-2.47,13.59,13.59,0,0,0,2.4-2,7.6,7.6,0,0,0,1.83-3,5.88,5.88,0,0,0-.08-3.8c-.12-.28-.23-.56-.36-.84s-.32-.55-.49-.82l-.4-.54a7.43,7.43,0,0,0-.54-.66,12.91,12.91,0,0,0-5.09-3.46,17.76,17.76,0,0,0-5.81-1.09,39.16,39.16,0,0,0-11.05,1.49,93.28,93.28,0,0,0-10.28,3.46c-3,1.17-5.87,2.44-8.75,3.76l-1.41-.91a50.88,50.88,0,0,1-4.15-3,36.31,36.31,0,0,1-3.64-3.49,43.6,43.6,0,0,1-5.86-8.27c-3.23-6-5.26-12.61-4.55-19.21a39.3,39.3,0,0,1,2.07-9.76,31.82,31.82,0,0,1,4.72-8.64c4-5.25,9.66-9,15.64-12.08a76.58,76.58,0,0,1,38.43-8.17,72.67,72.67,0,0,1,19,3.38l1,.36a.3.3,0,0,0,0,.08,37,37,0,0,0-2.28,18,21.57,21.57,0,0,0,3.28,9,16.09,16.09,0,0,0,7.48,6.49,11.21,11.21,0,0,0,5.24.7,13,13,0,0,0,5-1.73c.43-.23.68-.43,1-.65s.7-.5,1.05-.77a15.65,15.65,0,0,0,1.89-1.76,12.2,12.2,0,0,0,2.15-3.27,65,65,0,0,0-.05,27.16l-.14,0s.05.21.17.63.27,1.06.44,1.87a37.38,37.38,0,0,1,.82,7.35A31.21,31.21,0,0,1,209.1,262.36Zm64.63,26.42a61.41,61.41,0,1,1,61.4-61.41A61.47,61.47,0,0,1,273.73,288.78Zm142.7-10a123,123,0,0,1-26.58,6.05,68.81,68.81,0,0,1-23.68-1.6c-1.78-.47-3.52-1-5.17-1.53-.83-.26-1.66-.58-2.48-.91l-1.22-.47-.31-.12-.27-.11-.57-.25a38.88,38.88,0,0,1-8.22-4.81,29.79,29.79,0,0,1-9.57-12.63,31.41,31.41,0,0,1-2.08-11.63,37.38,37.38,0,0,1,.82-7.35c.17-.81.33-1.44.45-1.87s.16-.63.16-.63l-.13,0a65.43,65.43,0,0,0-.05-27.16,11.93,11.93,0,0,0,2.14,3.27,15.65,15.65,0,0,0,1.89,1.76c.35.27.64.5,1.05.77s.59.42,1,.65a13,13,0,0,0,5,1.73,11.2,11.2,0,0,0,5.24-.7,16.09,16.09,0,0,0,7.48-6.49,21.57,21.57,0,0,0,3.28-9,36.9,36.9,0,0,0-2.28-18l0-.08,1-.36a72.67,72.67,0,0,1,19-3.38,76.58,76.58,0,0,1,38.43,8.17c6,3,11.63,6.83,15.64,12.08a31.82,31.82,0,0,1,4.72,8.64,39.3,39.3,0,0,1,2.07,9.76c.71,6.6-1.32,13.26-4.54,19.21A43.65,43.65,0,0,1,432.8,250a37.31,37.31,0,0,1-3.63,3.49c-1.22,1-2.74,2-4.16,3l-1.41.91c-2.88-1.32-5.78-2.59-8.74-3.76a93.45,93.45,0,0,0-10.29-3.46,39.16,39.16,0,0,0-11.05-1.49,17.76,17.76,0,0,0-5.81,1.09,12.91,12.91,0,0,0-5.09,3.46,7.43,7.43,0,0,0-.54.66l-.4.54c-.17.27-.33.55-.49.82s-.24.56-.36.84a6,6,0,0,0-.08,3.8,7.83,7.83,0,0,0,1.83,3,13.59,13.59,0,0,0,2.4,2,23.81,23.81,0,0,0,5.21,2.47,28.55,28.55,0,0,0,5.56,1.34,22.19,22.19,0,0,0,2.87.14c.86,0,1.82,0,2.76,0a44.31,44.31,0,0,0,5.53-.6,48.33,48.33,0,0,0,16.92-6.59c2.95,1.38,5.88,2.82,8.79,4.28,2.67,1.35,5.32,2.73,8,4.11C432.21,273.08,424.21,276.19,416.43,278.74Zm124.62,7a23.11,23.11,0,0,1-13.22,12.13c-.36.13-.76.28-1.08.38s-.8.25-1.13.32a19.66,19.66,0,0,1-2.26.43,27.3,27.3,0,0,1-4.71.19,49.42,49.42,0,0,1-9.64-1.46A122.18,122.18,0,0,1,490,291c-12.49-5.44-24.7-12-37-18.61l-4.21-2.23,5-1.76c2.58-.93,5.16-1.92,7.75-2.92,5.19-2,10.43-4.09,15.81-6a160.46,160.46,0,0,1,16.6-5.06,74.94,74.94,0,0,1,17.51-2.22,39.68,39.68,0,0,1,17.26,3.8,34.11,34.11,0,0,1,3.88,2.26l.47.32.19.13.23.18,1,.71c.6.49,1.1.94,1.65,1.44a22.54,22.54,0,0,1,5.1,7.2A21.56,21.56,0,0,1,541.05,285.7Z"
          style="fill:#003980;stroke:#003980;stroke-miterlimit:10;stroke-width:2px"/>
    <path d="M141.15,384.93a4.33,4.33,0,0,0-1,.21,6.11,6.11,0,0,0-1,.42,2.68,2.68,0,0,0-1,.89,5.81,5.81,0,0,0-.56,1.17q-.85,2.37-2.65,7.61t-3.72,10.87h-3.16l-5.84-16.47L117,406.1h-3.16q-2.61-7.59-4-11.69c-.92-2.74-1.7-5-2.34-6.89a3.32,3.32,0,0,0-.67-1.22,6,6,0,0,0-1-.78,3.33,3.33,0,0,0-.9-.41,7.19,7.19,0,0,0-1.1-.21v-1.22H115.7v1.19a14.75,14.75,0,0,0-1.56.24,5.9,5.9,0,0,0-.81.24c-.19.09-.3.17-.34.27a.53.53,0,0,0-.07.25,1.47,1.47,0,0,0,.06.42c0,.14.07.29.11.47q.38,1.22,1.52,4.62t2.81,8.44l5.06-16.14h3.31l5.84,16.66q1.29-4,2.07-6.57c.51-1.69,1-3.15,1.3-4.35.21-.74.38-1.36.5-1.86a5.29,5.29,0,0,0,.19-1.3.68.68,0,0,0-.3-.56,3,3,0,0,0-.82-.41,6.94,6.94,0,0,0-1.13-.23l-1.21-.13v-1.25h8.92Z"
          style="fill:#003980"/>
    <path d="M158.26,402.12a9.37,9.37,0,0,1-1.32,1.68,8.14,8.14,0,0,1-1.76,1.35,9.85,9.85,0,0,1-2.11.9,9.23,9.23,0,0,1-2.47.3,11.12,11.12,0,0,1-4-.65,7.86,7.86,0,0,1-2.77-1.77,7,7,0,0,1-1.63-2.62,9.59,9.59,0,0,1-.54-3.27,8.18,8.18,0,0,1,2.25-5.66,8,8,0,0,1,2.68-1.79,9.11,9.11,0,0,1,3.61-.69,10.44,10.44,0,0,1,3.6.53,6.41,6.41,0,0,1,2.33,1.47,5.29,5.29,0,0,1,1.29,2.1,8,8,0,0,1,.41,2.54v1H147.28a8.14,8.14,0,0,0,1.23,4.87,4.53,4.53,0,0,0,3.92,1.67,4.59,4.59,0,0,0,2.64-.8,7.62,7.62,0,0,0,2-2Zm-6-5.94q0-.93-.09-1.92a6.13,6.13,0,0,0-.33-1.61,2.48,2.48,0,0,0-.73-1.11,1.75,1.75,0,0,0-1.16-.37,2.16,2.16,0,0,0-1.92,1.21,8.28,8.28,0,0,0-.78,3.86Z"
          style="fill:#003980"/>
    <path d="M187.93,405.85h-7.36c-.91-1.59-1.73-2.93-2.48-4s-1.46-2.13-2.13-3.08l-.92.78v3.41a2.22,2.22,0,0,0,.17.92,1.06,1.06,0,0,0,.63.53,5.66,5.66,0,0,0,.66.22,4.88,4.88,0,0,0,.75.12v1.14h-9.71v-1.14l.79-.08a5.14,5.14,0,0,0,.69-.15,1.17,1.17,0,0,0,.69-.53,2.13,2.13,0,0,0,.18-.94V385.59a2.83,2.83,0,0,0-.23-1.07,1.76,1.76,0,0,0-.66-.84,2.9,2.9,0,0,0-.9-.31,8,8,0,0,0-1.07-.16v-1.14l7.78-.4.23.25V398c.77-.69,1.64-1.48,2.6-2.39s1.74-1.66,2.32-2.25a2.12,2.12,0,0,0,.57-.81c0-.18.05-.29.05-.33s-.16-.34-.49-.47a8.15,8.15,0,0,0-1.49-.33v-1.11h7.94v1.08a17,17,0,0,0-2.38.82,15.7,15.7,0,0,0-1.78,1c-.43.29-.84.58-1.24.89s-.86.69-1.38,1.15l2.82,4.11q1.29,1.89,2.72,4a2.35,2.35,0,0,0,1.2,1,5.64,5.64,0,0,0,1.43.31Z"
          style="fill:#003980"/>
    <path d="M208.73,405.85h-9.39v-1.14l.72-.08a2.07,2.07,0,0,0,.64-.15,1,1,0,0,0,.47-.5,2.65,2.65,0,0,0,.14-1V395.7a4,4,0,0,0-.59-2.4,2,2,0,0,0-1.73-.81,3.68,3.68,0,0,0-1.17.19,4.67,4.67,0,0,0-1.06.55,3.55,3.55,0,0,0-.72.64c-.19.22-.34.41-.47.58v8.39a2.39,2.39,0,0,0,.16.91,1.09,1.09,0,0,0,.52.56,3.45,3.45,0,0,0,.62.25,5,5,0,0,0,.73.15v1.14h-9.5v-1.14l.79-.08a4.13,4.13,0,0,0,.68-.15,1.14,1.14,0,0,0,.69-.53,2,2,0,0,0,.19-.94v-9.09a2.08,2.08,0,0,0-.25-1,2.22,2.22,0,0,0-.66-.76,2.61,2.61,0,0,0-.71-.32,5.24,5.24,0,0,0-.94-.17v-1.14l7.45-.4.23.23v2.27h.07c.29-.26.64-.58,1.06-.94a9.5,9.5,0,0,1,1.15-.89,5.56,5.56,0,0,1,1.52-.64,7.21,7.21,0,0,1,2-.27,4.8,4.8,0,0,1,3.82,1.45,5.57,5.57,0,0,1,1.27,3.83v7.66a2,2,0,0,0,.18.92,1.19,1.19,0,0,0,.64.55c.16.07.37.14.61.22a4.86,4.86,0,0,0,.84.15Z"
          style="fill:#003980"/>
    <path d="M226.14,392.2a7.06,7.06,0,0,1,1.76,2.57,8.51,8.51,0,0,1,.61,3.25,9,9,0,0,1-.6,3.28,7.21,7.21,0,0,1-1.76,2.63,8.44,8.44,0,0,1-2.94,1.8,11.56,11.56,0,0,1-3.92.62,11,11,0,0,1-3.51-.54,8.51,8.51,0,0,1-2.83-1.64,7.49,7.49,0,0,1-1.88-2.59,8.33,8.33,0,0,1-.68-3.45,8.67,8.67,0,0,1,.6-3.33,7.42,7.42,0,0,1,1.8-2.6,7.93,7.93,0,0,1,2.85-1.7,12.46,12.46,0,0,1,7.64,0A8.43,8.43,0,0,1,226.14,392.2Zm-4,10.82a9.59,9.59,0,0,0,.5-2.12,22.37,22.37,0,0,0,.17-2.91,21.64,21.64,0,0,0-.16-2.5,9.13,9.13,0,0,0-.47-2.22,3.62,3.62,0,0,0-1-1.54,2.47,2.47,0,0,0-1.68-.56,2.53,2.53,0,0,0-1.77.6,4.08,4.08,0,0,0-1,1.58,9,9,0,0,0-.46,2.09q-.12,1.2-.12,2.49c0,1.14,0,2.08.11,2.82a8.68,8.68,0,0,0,.53,2.24,3.48,3.48,0,0,0,1,1.53,2.55,2.55,0,0,0,1.7.57,2.52,2.52,0,0,0,1.61-.53A3.45,3.45,0,0,0,222.14,403Z"
          style="fill:#003980"/>
    <path d="M257.46,391.49a3.73,3.73,0,0,0-1.32.48,2.8,2.8,0,0,0-1,1.37l-1.75,4.31c-.43,1.09-1,2.67-1.84,4.73q-.25.64-.6,1.77c-.23.75-.42,1.36-.56,1.84h-3l-3.93-10.63L239.68,406h-3c-1.06-2.84-1.88-5.05-2.49-6.61s-1.41-3.64-2.42-6.21a2.32,2.32,0,0,0-1-1.16,3.62,3.62,0,0,0-1.4-.52v-1.14H239v1.14a7.61,7.61,0,0,0-1.27.25c-.49.14-.74.32-.74.55a1,1,0,0,0,0,.27c0,.08.07.23.14.43.28.82.66,1.87,1.15,3.16l1.72,4.5,3.47-10.3h3.1L250.56,401c.6-1.61,1.07-2.87,1.39-3.79s.74-2.11,1.24-3.56a2.61,2.61,0,0,0,.14-.59,1.68,1.68,0,0,0,0-.33.64.64,0,0,0-.28-.51,2.38,2.38,0,0,0-.67-.37c-.26-.09-.51-.16-.75-.22s-.45-.09-.62-.11v-1.14h6.45Z"
          style="fill:#003980"/>
    <path d="M293.21,391.49a3.73,3.73,0,0,0-1.32.48,2.8,2.8,0,0,0-1,1.37l-1.75,4.31c-.43,1.09-1.05,2.67-1.84,4.73q-.25.64-.6,1.77c-.23.75-.42,1.36-.56,1.84h-3.05l-3.93-10.63L275.43,406h-3c-1.06-2.84-1.88-5.05-2.49-6.61s-1.41-3.64-2.42-6.21a2.32,2.32,0,0,0-1-1.16,3.62,3.62,0,0,0-1.4-.52v-1.14h9.6v1.14a7.61,7.61,0,0,0-1.27.25c-.49.14-.74.32-.74.55a1,1,0,0,0,0,.27c0,.08.07.23.14.43.28.82.66,1.87,1.15,3.16l1.72,4.5,3.47-10.3h3.1L286.31,401c.6-1.61,1.07-2.87,1.39-3.79s.74-2.11,1.24-3.56a2.61,2.61,0,0,0,.14-.59,1.68,1.68,0,0,0,0-.33.64.64,0,0,0-.28-.51,2.38,2.38,0,0,0-.67-.37c-.26-.09-.51-.16-.75-.22s-.45-.09-.62-.11v-1.14h6.45Z"
          style="fill:#003980"/>
    <path d="M314.21,405.85h-9.39v-1.14l.74-.08a1.8,1.8,0,0,0,.62-.15,1,1,0,0,0,.46-.5,2.65,2.65,0,0,0,.14-1V395.7a4,4,0,0,0-.6-2.41,2.05,2.05,0,0,0-1.72-.8,3.66,3.66,0,0,0-1.16.19,4.41,4.41,0,0,0-1.05.55,3.37,3.37,0,0,0-.73.64c-.18.22-.34.41-.46.58v8.39a2.29,2.29,0,0,0,.14.91,1.14,1.14,0,0,0,.53.56,3.17,3.17,0,0,0,.62.25,5.11,5.11,0,0,0,.74.15v1.14h-9.53v-1.14c.27,0,.53,0,.79-.08a3.21,3.21,0,0,0,.69-.15,1.23,1.23,0,0,0,.68-.54,2.08,2.08,0,0,0,.18-.93V385.59a2.91,2.91,0,0,0-.23-1.07,1.89,1.89,0,0,0-.66-.84,2.79,2.79,0,0,0-.91-.32,7.91,7.91,0,0,0-1.06-.15v-1.14l7.78-.4.24.25v10.75h.06l1.07-1a9.2,9.2,0,0,1,1.16-.86,5.48,5.48,0,0,1,1.51-.64,7.11,7.11,0,0,1,2-.27,4.81,4.81,0,0,1,3.8,1.45,5.6,5.6,0,0,1,1.27,3.83v7.66a2.16,2.16,0,0,0,.17.92,1.25,1.25,0,0,0,.65.55,5.51,5.51,0,0,0,.62.22,6.47,6.47,0,0,0,.84.15Z"
          style="fill:#003980"/>
    <path d="M333.51,405.52a12.19,12.19,0,0,1-1.62.55,7.46,7.46,0,0,1-2,.25,5.41,5.41,0,0,1-2.82-.57,2.84,2.84,0,0,1-1.24-1.63h-.09a11.17,11.17,0,0,1-1,.9,6.41,6.41,0,0,1-1.06.65,8.13,8.13,0,0,1-1.42.51,8.37,8.37,0,0,1-1.9.17,4.66,4.66,0,0,1-3.1-1.07,3.52,3.52,0,0,1-1.28-2.84,4.68,4.68,0,0,1,.28-1.73,4.15,4.15,0,0,1,.8-1.26,4.25,4.25,0,0,1,1.09-.83,12.14,12.14,0,0,1,1.35-.61c.94-.34,2.07-.7,3.38-1.07a19,19,0,0,0,2.88-1v-1.5c0-.26,0-.61-.06-1a3.16,3.16,0,0,0-.27-1.08,2,2,0,0,0-.69-.85,2,2,0,0,0-1.23-.34,3,3,0,0,0-1.15.19,4.85,4.85,0,0,0-.74.4,5.74,5.74,0,0,0,.27,1,3.92,3.92,0,0,1,.21,1.23,1.86,1.86,0,0,1-.14.66,1.53,1.53,0,0,1-.4.64,2.56,2.56,0,0,1-.81.48,4,4,0,0,1-1.37.17,2.81,2.81,0,0,1-2-.63,2.16,2.16,0,0,1-.68-1.65,2.2,2.2,0,0,1,.7-1.57,5.93,5.93,0,0,1,1.69-1.15,9.92,9.92,0,0,1,2.27-.72,12.26,12.26,0,0,1,2.38-.26,19.88,19.88,0,0,1,2.78.18,6.72,6.72,0,0,1,2.28.74,4,4,0,0,1,1.54,1.59,5.59,5.59,0,0,1,.57,2.71c0,1.18,0,2.57-.07,4.19s-.07,2.67-.07,3.18a2.44,2.44,0,0,0,.21,1.11,1.29,1.29,0,0,0,.65.61,2.19,2.19,0,0,0,.83.15c.38,0,.73,0,1,0Zm-7.75-8.14c-.58.2-1.17.43-1.74.69a6.74,6.74,0,0,0-1.41.8,3,3,0,0,0-.91,1.12,3.67,3.67,0,0,0-.33,1.61,2.42,2.42,0,0,0,.56,1.77,1.9,1.9,0,0,0,1.37.55,2.58,2.58,0,0,0,1.42-.36,3.86,3.86,0,0,0,1-.87Z"
          style="fill:#003980"/>
    <path d="M346.34,405.13a17.92,17.92,0,0,1-2.14.79,9.36,9.36,0,0,1-2.78.35,4.91,4.91,0,0,1-3.62-1.18,4.59,4.59,0,0,1-1.18-3.39v-9.58h-2.81v-1.7h2.87v-4.74h5.07v4.74h4.39v1.7h-4.36v8.55a4.87,4.87,0,0,0,.51,2.59,2,2,0,0,0,1.82.76c.28,0,.68,0,1.18-.06a7.23,7.23,0,0,0,1-.14Z"
          style="fill:#003980"/>
    <path d="M367.18,405.13a17.3,17.3,0,0,1-2.14.79,9.32,9.32,0,0,1-2.78.35,4.93,4.93,0,0,1-3.62-1.18,4.63,4.63,0,0,1-1.18-3.39v-9.58h-2.81v-1.7h2.88v-4.74h5.06v4.74H367v1.7h-4.36v8.55a4.87,4.87,0,0,0,.51,2.59A2,2,0,0,0,365,404q.42,0,1.17-.06a7.23,7.23,0,0,0,1.05-.14Z"
          style="fill:#003980"/>
    <path d="M384.23,392.2a7.21,7.21,0,0,1,1.77,2.57,8.7,8.7,0,0,1,.61,3.25,9,9,0,0,1-.61,3.28,7.18,7.18,0,0,1-1.75,2.63,8.58,8.58,0,0,1-2.95,1.8,11.5,11.5,0,0,1-3.91.62,10.9,10.9,0,0,1-3.51-.54,8.45,8.45,0,0,1-2.84-1.64,7.47,7.47,0,0,1-1.87-2.59,8.34,8.34,0,0,1-.69-3.45,8.67,8.67,0,0,1,.6-3.33,7.32,7.32,0,0,1,1.81-2.6,7.93,7.93,0,0,1,2.85-1.7,12.46,12.46,0,0,1,7.64,0A8.29,8.29,0,0,1,384.23,392.2Zm-4,10.82a9,9,0,0,0,.51-2.12,22.52,22.52,0,0,0,.16-2.91,23.88,23.88,0,0,0-.15-2.5,9.63,9.63,0,0,0-.47-2.22,3.71,3.71,0,0,0-1-1.54,2.49,2.49,0,0,0-1.68-.56,2.57,2.57,0,0,0-1.78.6,4.08,4.08,0,0,0-1,1.58,8.52,8.52,0,0,0-.45,2.09,22.29,22.29,0,0,0-.13,2.49c0,1.14,0,2.08.11,2.82a8.68,8.68,0,0,0,.53,2.24,3.5,3.5,0,0,0,1,1.53,2.51,2.51,0,0,0,1.7.57,2.55,2.55,0,0,0,1.61-.53A3.52,3.52,0,0,0,380.23,403Z"
          style="fill:#003980"/>
    <path d="M416.93,405.52l-7.7.46-.23-.22v-1.44l-.11,0a6.83,6.83,0,0,1-2.07,1.45,6.12,6.12,0,0,1-2.63.61A6.62,6.62,0,0,1,399,404a8.89,8.89,0,0,1-2-6.06,7.82,7.82,0,0,1,2.29-5.66,7.41,7.41,0,0,1,5.53-2.36,9.74,9.74,0,0,1,2.4.29,6.92,6.92,0,0,1,1.79.68v-5.11a2.54,2.54,0,0,0-.23-1.09,2,2,0,0,0-.62-.78,3.23,3.23,0,0,0-1.22-.5,11.94,11.94,0,0,0-1.46-.21v-1.14l8.46-.4.23.25V402.4a2.28,2.28,0,0,0,.2,1,1.37,1.37,0,0,0,.62.64,2.75,2.75,0,0,0,1,.25c.42,0,.76.08,1,.09Zm-8-2.78v-8.82a6.29,6.29,0,0,0-.3-.8,3.28,3.28,0,0,0-.54-.83,2.83,2.83,0,0,0-.83-.58,2.8,2.8,0,0,0-1.18-.25,2.91,2.91,0,0,0-2.55,1.77,10.18,10.18,0,0,0-1,5,13.1,13.1,0,0,0,.18,2.28,6,6,0,0,0,.63,1.83,3.58,3.58,0,0,0,1.16,1.3,3,3,0,0,0,1.71.47,3.09,3.09,0,0,0,1.57-.37A4.38,4.38,0,0,0,409,402.74Z"
          style="fill:#003980"/>
    <path d="M433.92,392.2a7.06,7.06,0,0,1,1.76,2.57,8.51,8.51,0,0,1,.61,3.25,9,9,0,0,1-.6,3.28,7.21,7.21,0,0,1-1.76,2.63,8.44,8.44,0,0,1-2.94,1.8,11.56,11.56,0,0,1-3.92.62,10.84,10.84,0,0,1-3.5-.54,8.45,8.45,0,0,1-2.84-1.64,7.34,7.34,0,0,1-1.87-2.59,8.34,8.34,0,0,1-.69-3.45,8.67,8.67,0,0,1,.6-3.33,7.42,7.42,0,0,1,1.8-2.6,7.89,7.89,0,0,1,2.86-1.7,12.46,12.46,0,0,1,7.64,0A8.38,8.38,0,0,1,433.92,392.2Zm-4,10.82a8.59,8.59,0,0,0,.5-2.12,22.37,22.37,0,0,0,.17-2.91,21.64,21.64,0,0,0-.16-2.5,9.13,9.13,0,0,0-.47-2.22,3.62,3.62,0,0,0-1-1.54,2.46,2.46,0,0,0-1.67-.56,2.56,2.56,0,0,0-1.78.6,4.08,4.08,0,0,0-1,1.58,8.52,8.52,0,0,0-.45,2.09,22.29,22.29,0,0,0-.13,2.49c0,1.14,0,2.08.11,2.82a8.68,8.68,0,0,0,.53,2.24,3.48,3.48,0,0,0,1,1.53,2.56,2.56,0,0,0,1.71.57,2.51,2.51,0,0,0,1.6-.53A3.45,3.45,0,0,0,429.92,403Z"
          style="fill:#003980"/>
    <line x1="76.01" y1="366.86" x2="477.99" y2="366.86"
          style="fill:none;stroke:#003980;stroke-miterlimit:10;stroke-width:3px"/>
</svg>