<svg xmlns="http://www.w3.org/2000/svg" viewBox="0 0 12930 8440"><g fill="#003880" stroke="none"><path d="M3741 8338 c-255 -607 -283 -669 -334 -724 l-49 -54 211 0 212 0 -32 40 c-26 32 -31 46 -26 72 3 18 49 138 103 266 l98 234 19 -49 c10 -26 32 -100 49 -163 24 -95 29 -130 26 -201 -3 -74 -8 -93 -36 -142 l-32 -57 175 0 175 0 -40 53 c-51 66 -107 174 -160 307 -57 141 -120 329 -120 356 0 13 19 41 45 66 25 25 42 48 38 51 -3 4 -27 7 -53 7 -26 0 -82 9 -125 20 -43 11 -83 20 -90 20 -6 0 -30 -46 -54 -102z"/><path d="M1795 8423 c-16 -2 -86 -18 -154 -35 -109 -26 -131 -29 -175 -20 -28 6 -58 13 -66 16 -11 5 -27 -17 -62 -86 -26 -51 -55 -106 -65 -121 -16 -24 -16 -29 -3 -37 23 -15 112 -12 161 5 23 9 87 45 141 81 144 96 196 117 288 118 124 0 198 -32 254 -111 56 -81 34 -189 -51 -245 -53 -34 -98 -51 -285 -104 -208 -58 -292 -98 -352 -165 -141 -157 -78 -404 123 -479 90 -34 160 -36 291 -6 113 26 206 32 245 17 16 -7 29 8 87 94 37 56 68 107 68 113 0 16 -65 23 -115 12 -56 -12 -113 -41 -175 -85 -125 -91 -237 -116 -319 -73 -87 46 -106 146 -40 214 39 40 104 66 249 100 287 67 399 134 450 270 28 76 28 212 -1 288 -62 166 -273 268 -494 239z"/><path d="M3004 8410 c-158 -33 -280 -176 -306 -360 -46 -310 195 -574 463 -506 253 65 380 384 254 641 -80 165 -251 259 -411 225z m144 -82 c8 -7 23 -31 33 -53 16 -35 19 -70 19 -295 0 -140 -5 -271 -10 -291 -13 -47 -50 -80 -97 -85 -47 -6 -80 11 -110 55 -23 33 -23 39 -23 310 0 267 1 278 23 321 16 34 31 48 57 56 36 12 80 5 108 -18z"/><path d="M4425 8400 c-113 -45 -165 -119 -165 -236 1 -146 76 -231 311 -354 l110 -57 -30 -26 c-35 -29 -94 -42 -150 -32 -48 8 -124 54 -147 89 -22 35 -44 34 -44 -2 0 -41 46 -126 88 -163 20 -18 61 -44 92 -58 48 -23 68 -26 155 -26 72 0 113 5 147 18 58 22 123 91 131 138 4 19 18 156 32 304 22 223 30 278 48 315 12 25 27 45 32 44 6 0 19 -16 30 -35 19 -32 20 -55 23 -486 3 -480 1 -509 -43 -561 -32 -38 -32 -42 8 -42 26 0 169 -45 240 -75 16 -7 17 16 17 401 l0 408 71 -69 c95 -93 129 -147 129 -203 0 -38 -5 -50 -40 -84 -22 -22 -40 -42 -40 -44 0 -3 93 -3 208 -2 163 2 206 6 204 16 -3 18 48 8 171 -33 l97 -33 0 374 c0 407 1 418 57 477 l27 27 -369 0 -368 0 21 -23 c12 -13 22 -35 22 -50 0 -26 -61 -158 -117 -255 l-26 -43 -23 22 c-22 21 -24 30 -24 128 0 82 5 115 19 147 10 23 24 45 30 48 6 4 11 11 11 17 0 13 -597 12 -605 -1 -4 -6 -23 -1 -48 12 -61 32 -221 36 -292 8z m1438 -79 c15 -26 17 -65 17 -333 0 -285 -1 -305 -20 -336 -11 -18 -27 -35 -35 -39 -17 -6 -121 71 -227 170 l-68 62 118 223 c120 230 163 295 185 286 7 -2 21 -18 30 -33z m-1141 -17 c29 -15 30 -18 25 -62 -3 -26 -13 -125 -23 -219 -11 -110 -22 -173 -29 -173 -26 0 -130 97 -154 144 -53 102 -36 222 40 290 44 41 89 47 141 20z"/><path d="M6370 8411 c-74 -23 -142 -76 -172 -135 -27 -52 -29 -162 -4 -220 37 -84 132 -162 304 -251 51 -27 91 -53 89 -59 -6 -20 -91 -56 -132 -56 -52 0 -135 41 -174 86 -38 42 -51 43 -51 2 0 -75 69 -161 172 -215 48 -25 63 -27 158 -28 89 0 113 4 155 23 57 26 91 55 112 96 10 19 25 132 44 323 30 306 36 331 87 386 l26 27 -147 0 c-80 0 -148 -4 -151 -9 -3 -5 -32 2 -63 15 -46 19 -75 23 -143 23 -47 0 -96 -4 -110 -8z m281 -117 c18 -18 18 -24 -2 -204 -10 -102 -22 -200 -25 -218 l-5 -33 -37 27 c-112 82 -152 149 -152 253 0 75 36 152 85 183 37 24 108 19 136 -8z"/><path d="M7721 8409 c-220 -39 -419 -208 -492 -419 -28 -81 -30 -231 -5 -330 56 -223 228 -399 431 -440 74 -15 146 -8 249 25 94 31 150 34 195 11 35 -18 61 -15 61 7 0 24 77 171 113 217 43 53 37 58 -53 59 -76 1 -156 -39 -247 -122 -103 -94 -139 -111 -239 -112 -72 0 -85 3 -129 30 -60 37 -106 95 -136 172 -34 85 -34 266 -1 373 72 230 235 408 397 434 45 8 173 -8 187 -22 9 -9 -2 -197 -18 -304 l-6 -38 -91 0 c-139 -1 -207 -40 -222 -129 -16 -94 39 -171 121 -171 50 0 98 20 108 45 23 60 -5 125 -53 125 -42 0 -61 -18 -61 -58 -1 -35 -2 -36 -15 -18 -23 30 -18 69 11 97 25 24 27 24 264 27 l239 3 -29 41 c-36 49 -37 82 -15 288 20 181 19 194 -2 185 -64 -27 -111 -27 -223 0 -125 29 -257 39 -339 24z"/><path d="M8522 8401 c-109 -37 -172 -125 -171 -236 1 -144 79 -233 307 -353 l113 -59 -31 -26 c-73 -62 -196 -42 -281 45 -44 45 -59 48 -59 11 1 -74 79 -172 177 -219 101 -50 263 -43 355 15 75 47 83 75 112 386 29 295 36 338 71 381 l23 28 21 -34 c20 -34 21 -47 21 -328 0 -307 -1 -314 -47 -363 l-24 -26 85 -27 c46 -14 114 -39 150 -56 l65 -29 3 91 3 90 35 -47 c48 -64 103 -95 169 -95 101 0 166 55 166 142 0 59 -27 98 -83 118 -38 13 -46 12 -109 -8 -37 -12 -73 -22 -80 -22 -24 0 -83 62 -93 98 -13 49 -13 403 1 439 6 15 20 38 31 51 l21 22 -305 0 c-207 0 -307 -3 -310 -11 -2 -6 -25 0 -58 15 -70 33 -195 36 -278 7z m288 -96 c36 -19 36 -7 8 -262 l-21 -202 -29 17 c-47 28 -115 97 -138 141 -33 65 -37 146 -10 209 42 98 116 135 190 97z"/><path d="M9901 8399 c-60 -24 -126 -84 -147 -135 -20 -48 -18 -160 5 -210 40 -87 119 -154 292 -244 l110 -57 -30 -26 c-35 -29 -94 -42 -150 -32 -48 8 -124 54 -147 89 -22 35 -44 34 -44 -2 0 -44 48 -129 94 -167 77 -63 128 -80 241 -80 60 0 116 6 139 14 55 19 124 85 135 130 6 20 22 160 36 311 22 228 30 283 48 320 12 25 27 45 32 45 6 0 20 -20 33 -45 21 -43 22 -54 22 -322 0 -290 -4 -323 -46 -370 -23 -24 -11 -34 47 -42 28 -4 86 -18 128 -31 42 -14 82 -25 89 -25 8 0 12 17 12 54 l0 55 51 -34 c64 -44 119 -59 191 -52 68 6 109 28 152 80 l31 39 5 327 5 328 28 36 28 37 -164 0 -164 0 21 -42 c20 -41 21 -58 21 -323 0 -251 -2 -284 -17 -308 -10 -14 -28 -31 -39 -38 -31 -16 -91 4 -123 42 l-26 31 0 274 c0 284 2 296 43 342 l20 22 -306 0 c-191 0 -308 -4 -312 -10 -4 -6 -23 -1 -48 12 -63 33 -221 36 -296 7z m299 -94 c36 -18 35 -2 7 -263 l-22 -203 -56 40 c-68 48 -107 98 -125 159 -30 99 -9 189 60 250 42 36 87 42 136 17z"/><path d="M11428 8388 c-67 -39 -68 -47 -68 -412 l0 -325 -55 -3 -55 -3 80 -59 c77 -57 137 -115 212 -206 l38 -45 0 113 0 112 55 0 55 0 0 45 0 45 -55 0 -55 0 0 290 c0 241 3 296 15 320 19 37 58 40 92 8 l23 -21 0 35 c0 20 -9 46 -20 61 -52 65 -187 89 -262 45z"/><path d="M2317 8375 c12 -8 32 -32 45 -52 l23 -38 3 -450 c2 -247 0 -470 -3 -495 -5 -34 -16 -54 -45 -82 l-39 -36 67 -11 c64 -11 187 -42 224 -56 16 -6 18 29 20 573 l3 580 33 41 33 41 -193 0 c-174 0 -190 -1 -171 -15z"/><path d="M5922 7426 c-80 -44 -83 -180 -5 -231 60 -40 156 -16 189 46 32 63 9 155 -46 184 -35 18 -106 19 -138 1z"/><path d="M560 7170 c-144 -18 -274 -86 -384 -201 -128 -133 -184 -284 -173 -468 18 -311 244 -542 612 -627 109 -26 378 -26 520 0 215 39 457 113 782 241 202 80 483 185 494 185 4 0 87 -41 183 -91 l176 -91 -80 -75 c-107 -100 -170 -186 -235 -318 -82 -166 -100 -241 -99 -410 0 -170 23 -275 89 -412 97 -199 247 -339 503 -467 277 -139 541 -200 867 -199 197 0 327 16 484 59 51 14 97 22 100 17 4 -4 32 -39 62 -77 138 -176 363 -323 579 -380 87 -23 257 -31 350 -17 137 21 250 97 250 168 0 13 2 23 5 23 2 0 27 -13 54 -29 250 -148 621 -225 919 -192 214 23 369 68 555 161 93 46 117 55 117 42 0 -20 36 -81 59 -100 99 -81 357 -105 556 -52 229 61 490 248 615 439 l16 23 74 -21 c165 -46 304 -63 505 -64 335 0 589 58 869 199 273 137 441 304 529 525 49 122 61 192 61 354 1 130 -2 160 -22 225 -71 226 -182 397 -346 536 l-48 41 178 93 179 92 80 -28 c44 -15 199 -73 345 -130 465 -180 692 -248 934 -280 595 -79 1056 215 1056 673 0 282 -178 520 -455 609 -68 22 -98 26 -200 26 -321 0 -690 -140 -1515 -576 l-274 -146 -206 76 c-411 153 -677 231 -915 270 -150 25 -481 26 -610 1 -187 -35 -362 -98 -499 -178 -43 -25 -107 -78 -162 -133 -76 -77 -99 -107 -138 -186 -25 -52 -54 -128 -64 -167 l-18 -73 -18 38 c-10 20 -43 75 -73 122 -153 235 -355 418 -602 544 -506 259 -1104 226 -1579 -87 -199 -131 -357 -297 -483 -507 l-67 -110 -7 47 c-18 124 -106 284 -211 388 -249 245 -720 369 -1184 311 -292 -37 -583 -121 -1134 -330 l-69 -26 -256 136 c-321 170 -636 325 -809 399 -343 145 -626 209 -822 185z m308 -161 c261 -56 639 -221 1224 -534 l167 -90 -32 -12 c-18 -6 -156 -59 -307 -117 -560 -213 -784 -270 -1060 -270 -162 1 -272 24 -395 84 -297 144 -406 433 -265 699 66 123 223 236 362 260 70 13 190 4 306 -20z m11492 21 c219 -35 399 -217 429 -434 52 -373 -351 -661 -849 -606 -250 27 -471 92 -971 283 l-297 113 232 121 c573 301 862 428 1118 492 151 38 240 46 338 31z m-5590 -273 c430 -102 767 -364 965 -752 24 -47 48 -98 53 -115 l11 -30 -165 0 -164 0 0 213 c0 116 -5 219 -10 227 -8 13 -133 15 -996 15 -914 0 -987 -1 -995 -17 -5 -9 -9 -111 -9 -227 l0 -211 -165 0 -165 0 26 58 c208 472 625 791 1128 862 34 5 133 7 221 5 126 -3 183 -9 265 -28z m-2625 -72 c495 -77 793 -341 812 -720 5 -93 0 -137 -32 -295 -17 -84 -27 -229 -24 -353 l4 -143 -58 37 c-67 43 -149 64 -216 55 -144 -20 -279 -161 -326 -342 -20 -76 -19 -267 1 -359 8 -38 17 -82 20 -96 5 -22 2 -27 -18 -32 -362 -87 -636 -89 -953 -7 -290 75 -578 240 -701 403 -133 176 -192 420 -149 620 28 131 107 288 205 406 56 66 194 181 218 181 7 0 56 -19 110 -42 133 -57 302 -113 402 -133 115 -24 295 -17 362 13 100 45 168 133 168 218 0 89 -60 163 -175 215 -100 45 -175 60 -302 60 -183 -1 -330 -36 -490 -117 l-85 -44 -154 77 c-85 42 -154 79 -154 82 0 8 282 113 487 182 243 81 499 137 698 153 77 6 251 -4 350 -19z m5155 -1 c211 -30 438 -95 828 -236 105 -39 192 -75 192 -79 0 -5 -69 -43 -154 -85 l-154 -75 -54 30 c-154 86 -327 131 -514 132 -173 1 -309 -40 -407 -121 -115 -96 -98 -246 37 -338 79 -53 140 -65 285 -59 151 6 260 34 487 126 82 34 153 61 158 61 19 0 135 -92 187 -148 187 -202 277 -464 240 -698 -53 -327 -267 -550 -681 -709 -322 -125 -735 -149 -1060 -62 -96 25 -92 17 -66 132 21 93 21 300 1 380 -34 130 -126 250 -233 302 -98 48 -228 35 -317 -31 -16 -12 -34 -25 -40 -28 -7 -4 -9 48 -7 150 4 164 -6 277 -39 434 -34 165 -19 315 45 453 90 193 251 323 506 409 247 82 472 100 760 60z m-3840 -1360 l0 -417 45 -40 45 -41 0 -121 0 -122 71 -121 c65 -111 94 -143 118 -128 4 3 40 62 80 131 l71 125 0 119 0 119 45 36 c44 37 45 38 45 97 0 52 2 59 20 59 18 0 20 -8 22 -102 l3 -103 429 -3 c308 -1 433 1 442 9 10 8 14 38 14 105 0 87 1 94 20 94 18 0 20 -7 20 -59 0 -59 1 -60 45 -97 l45 -36 0 -125 0 -125 68 -119 c63 -112 88 -139 112 -124 6 3 42 59 80 124 l70 119 0 125 c0 118 1 125 23 140 12 8 34 26 50 40 l27 26 0 416 0 415 184 0 184 0 17 -72 c45 -200 42 -423 -9 -634 -130 -533 -555 -940 -1106 -1060 -121 -27 -429 -27 -549 0 -319 69 -612 243 -805 475 -298 360 -402 787 -305 1243 l11 48 184 0 184 0 0 -416z m-445 -551 c45 -124 147 -290 260 -424 l72 -85 -47 -17 c-107 -38 -160 -104 -181 -225 l-11 -60 -51 15 c-170 50 -351 167 -476 309 -68 77 -68 80 -19 105 145 73 338 254 393 366 17 34 33 62 36 62 4 1 14 -20 24 -46z m2941 25 c34 -110 226 -302 397 -398 31 -17 57 -35 57 -40 0 -16 -137 -155 -208 -211 -95 -76 -177 -121 -287 -158 l-90 -30 -12 63 c-22 120 -75 185 -183 223 l-47 17 69 80 c38 44 94 117 123 161 53 80 155 278 155 303 0 20 18 13 26 -10z"/><path d="M4560 3700 c-102 -13 -305 -55 -415 -85 -447 -124 -544 -131 -786 -55 -89 28 -109 30 -109 9 0 -5 -31 -75 -68 -156 -74 -161 -161 -318 -253 -456 l-58 -87 22 -15 c78 -51 303 -59 442 -15 117 37 258 116 530 298 444 298 591 351 929 339 183 -6 306 -34 441 -101 180 -90 301 -227 349 -397 73 -258 -23 -491 -267 -643 -153 -96 -276 -140 -751 -271 -378 -104 -624 -182 -752 -239 -342 -151 -548 -364 -625 -651 -33 -120 -33 -368 -1 -478 94 -326 360 -570 730 -669 57 -15 120 -22 242 -25 192 -6 243 0 500 63 264 64 308 73 431 84 127 11 226 1 318 -31 34 -11 63 -19 65 -18 1 2 33 56 70 119 38 63 132 205 209 314 130 186 138 200 121 213 -58 42 -253 49 -389 14 -100 -26 -273 -112 -385 -191 -193 -136 -271 -185 -393 -245 -143 -71 -250 -101 -394 -111 -229 -17 -430 90 -516 273 -26 56 -32 83 -35 157 -6 115 10 181 59 255 49 74 135 140 254 197 125 59 242 95 515 159 731 172 980 272 1205 486 211 201 305 444 305 789 0 235 -40 406 -131 565 -181 316 -489 513 -924 590 -108 19 -380 27 -485 15z"/><path d="M8150 3669 c-380 -43 -748 -206 -1063 -469 -302 -253 -539 -639 -612 -994 -65 -319 -24 -750 101 -1068 182 -462 490 -809 884 -997 214 -102 381 -141 599 -141 168 0 253 15 455 80 254 82 327 101 422 107 114 7 158 -3 287 -68 55 -28 100 -49 102 -47 1 2 10 28 20 58 85 268 253 576 405 742 33 37 57 69 53 71 -33 21 -152 40 -248 40 -121 1 -185 -13 -304 -63 -164 -70 -281 -153 -451 -321 -254 -249 -428 -337 -703 -355 -240 -16 -431 59 -613 240 -248 246 -361 607 -333 1061 21 334 89 592 239 900 228 469 584 807 965 917 71 20 100 23 255 22 186 -1 303 -14 386 -45 95 -36 91 22 39 -548 -25 -277 -45 -511 -45 -521 0 -16 -20 -18 -262 -23 -224 -4 -274 -7 -339 -25 -191 -51 -308 -150 -359 -303 -19 -55 -22 -80 -18 -179 4 -104 7 -122 35 -183 39 -83 113 -159 191 -195 50 -24 69 -27 152 -26 109 1 180 23 243 75 124 102 123 322 -2 406 -25 17 -48 23 -88 23 -66 0 -112 -20 -153 -66 -27 -31 -30 -41 -30 -102 0 -45 5 -75 16 -90 14 -21 14 -22 -7 -22 -36 0 -95 70 -109 130 -35 146 42 266 195 305 50 13 163 15 744 15 l685 0 -36 38 c-110 114 -162 237 -161 382 0 47 25 326 55 620 31 294 55 536 53 538 -2 2 -52 -14 -111 -35 -107 -37 -111 -38 -254 -37 -141 0 -151 2 -345 51 -241 62 -379 90 -505 103 -111 11 -323 11 -430 -1z"/></g><g fill="#fffffc" stroke="none"><path d="M5550 5588 l1 -643 75 -58 c41 -32 81 -60 89 -63 8 -3 49 22 94 58 l80 63 0 643 1 642 -170 0 -170 0 0 -642z m200 382 c0 -27 -3 -30 -30 -30 -27 0 -30 3 -30 30 0 27 3 30 30 30 27 0 30 -3 30 -30z m0 -175 c0 -32 -2 -35 -30 -35 -28 0 -30 3 -30 35 0 32 2 35 30 35 28 0 30 -3 30 -35z m0 -175 c0 -27 -3 -30 -30 -30 -27 0 -30 3 -30 30 0 27 3 30 30 30 27 0 30 -3 30 -30z m0 -175 c0 -32 -2 -35 -30 -35 -28 0 -30 3 -30 35 0 32 2 35 30 35 28 0 30 -3 30 -35z m0 -170 c0 -32 -2 -35 -30 -35 -28 0 -30 3 -30 35 0 32 2 35 30 35 28 0 30 -3 30 -35z m0 -180 c0 -32 -2 -35 -30 -35 -28 0 -30 3 -30 35 0 32 2 35 30 35 28 0 30 -3 30 -35z"/><path d="M7040 5588 l0 -643 79 -62 c44 -35 82 -63 86 -63 4 0 42 28 86 61 l79 61 0 644 0 644 -165 0 -165 0 0 -642z m200 382 c0 -28 -3 -30 -35 -30 -32 0 -35 2 -35 30 0 28 3 30 35 30 32 0 35 -2 35 -30z m-2 -172 c-3 -29 -6 -33 -33 -33 -27 0 -30 4 -33 33 -3 31 -2 32 33 32 35 0 36 -1 33 -32z m2 -178 c0 -28 -3 -30 -35 -30 -32 0 -35 2 -35 30 0 28 3 30 35 30 32 0 35 -2 35 -30z m-2 -172 c-3 -29 -6 -33 -33 -33 -27 0 -30 4 -33 33 -3 31 -2 32 33 32 35 0 36 -1 33 -32z m0 -175 c3 -32 2 -33 -32 -33 -33 0 -36 3 -36 28 0 36 8 44 40 40 20 -2 26 -9 28 -35z m0 -175 c-3 -29 -6 -33 -33 -33 -27 0 -30 4 -33 33 -3 31 -2 32 33 32 35 0 36 -1 33 -32z"/><path d="M6050 5665 l0 -485 410 0 410 0 0 485 0 485 -100 0 -100 0 0 -70 c0 -106 -16 -166 -59 -213 -44 -49 -85 -67 -148 -67 -90 1 -163 53 -192 139 -6 19 -11 74 -11 122 l0 89 -105 0 -105 0 0 -485z m248 -107 l-3 -83 -80 0 -80 0 -3 69 c-2 38 -1 75 2 83 4 9 28 13 86 13 l81 0 -3 -82z m247 -3 l0 -80 -80 0 -80 0 -3 83 -3 83 83 -3 83 -3 0 -80z m243 3 l-3 -83 -80 0 -80 0 -3 69 c-2 38 -1 75 2 83 4 9 28 13 86 13 l81 0 -3 -82z m-488 -238 l0 -80 -85 0 -85 0 0 80 0 80 85 0 85 0 0 -80z m250 0 l0 -80 -85 0 -85 0 0 80 0 80 85 0 85 0 0 -80z m240 0 l0 -80 -85 0 -85 0 0 80 0 80 85 0 85 0 0 -80z"/><path d="M6090 4950 l0 -70 375 0 375 0 0 70 0 70 -49 0 -50 0 -3 -37 c-3 -33 -6 -38 -28 -38 -22 0 -25 5 -28 38 l-3 37 -50 0 -49 0 0 -35 c0 -63 -62 -59 -68 4 -3 30 -5 31 -52 31 l-49 0 -3 -37 c-3 -33 -6 -38 -28 -38 -22 0 -25 5 -28 38 l-3 37 -50 0 -49 0 0 -35 c0 -63 -62 -59 -68 4 -3 30 -5 31 -48 31 l-44 0 0 -70z"/></g></svg>