<svg xmlns="http://www.w3.org/2000/svg" viewBox="0 0 99.3 89.1"><path d="M31.16,43.64H11a10,10,0,0,0-10,10V79.91H41.3V53.71A10.2,10.2,0,0,0,31.16,43.64Z" style="fill:#fff"/><path d="M41.3,80.91H1a1,1,0,0,1-1-1V53.71A11,11,0,0,1,11,42.64H31.17A11.24,11.24,0,0,1,42.3,53.7V79.91A1,1,0,0,1,41.3,80.91ZM2,78.91H40.3V53.71a9.23,9.23,0,0,0-9.14-9.07H11a9,9,0,0,0-9,9Z" style="fill:#c9d5e4"/><circle cx="21.08" cy="29.26" r="11.26" style="fill:#fff"/><path d="M21.08,41.52A12.26,12.26,0,1,1,33.34,29.26,12.27,12.27,0,0,1,21.08,41.52Zm0-22.52A10.26,10.26,0,1,0,31.34,29.26,10.27,10.27,0,0,0,21.08,19Z" style="fill:#c9d5e4"/><path d="M88.16,43.64H68a10,10,0,0,0-10,10V79.91H98.3V53.71A10.2,10.2,0,0,0,88.16,43.64Z" style="fill:#fff"/><path d="M98.3,80.91H58a1,1,0,0,1-1-1V53.71A11,11,0,0,1,68,42.64H88.17A11.24,11.24,0,0,1,99.3,53.7V79.91A1,1,0,0,1,98.3,80.91Zm-39.3-2H97.3V53.71a9.23,9.23,0,0,0-9.14-9.07H68a9,9,0,0,0-9,9Z" style="fill:#c9d5e4"/><circle cx="78.08" cy="29.26" r="11.26" style="fill:#fff"/><path d="M78.08,41.52A12.26,12.26,0,1,1,90.34,29.26,12.27,12.27,0,0,1,78.08,41.52Zm0-22.52A10.26,10.26,0,1,0,88.34,29.26,10.27,10.27,0,0,0,78.08,19Z" style="fill:#c9d5e4"/><path d="M78,88.1V52.4A14.66,14.66,0,0,0,63.4,37.9h-29A14.43,14.43,0,0,0,20,52.36V88.1M43.4,40.7H54.5l1,1.7-3.7,5H46.1l-3.8-5ZM48.8,87l-7-7.3,4.1-31h5.7l4.4,31Z" style="fill:#fff"/><path d="M78,89.1a1,1,0,0,1-1-1V52.4A13.71,13.71,0,0,0,63.4,38.9h-29A13.42,13.42,0,0,0,21,52.36V88.1a1,1,0,0,1-2,0V52.4A15.43,15.43,0,0,1,34.4,36.9h29A15.72,15.72,0,0,1,79,52.39V88.1A1,1,0,0,1,78,89.1ZM48.8,88h0a1,1,0,0,1-.71-.31l-7-7.3a1,1,0,0,1-.27-.82l4.1-31a1,1,0,0,1,.34-.63L41.5,43a1,1,0,0,1,0-1.14l1.1-1.7a1,1,0,0,1,.84-.46H54.5a1,1,0,0,1,.86.49l1,1.7A1,1,0,0,1,56.3,43l-3.7,5a.85.85,0,0,1-.16.17.88.88,0,0,1,.15.39l4.4,31a1,1,0,0,1-.28.84l-7.2,7.3A1,1,0,0,1,48.8,88Zm-5.95-8.65,6,6.22,6.13-6.22L50.73,49.7H46.78ZM46.6,46.4h4.7l3-4.06-.37-.64h-10l-.42.65Z" style="fill:#c9d5e4"/><path d="M48.9,34.4A17.2,17.2,0,1,1,66.1,17.2,17.22,17.22,0,0,1,48.9,34.4ZM48.9,2A15.2,15.2,0,1,0,64.1,17.2,15.22,15.22,0,0,0,48.9,2Z" style="fill:#c9d5e4"/></svg>