<svg xmlns="http://www.w3.org/2000/svg" viewBox="0 0 92.49 94.26"><path d="M78.1,94.26h0a1,1,0,0,1-1-1l.13-10.9A2.31,2.31,0,0,0,75,80.06l-20.17-.23a2.27,2.27,0,0,0-2.26,2.25l-.13,11.13a1,1,0,0,1-2,0l.13-11.13a4.29,4.29,0,0,1,4.27-4.23L75,78.06a4.28,4.28,0,0,1,4.22,4.31l-.13,10.9A1,1,0,0,1,78.1,94.26ZM74,76.71h0l-17.82-.19a1,1,0,0,1-.71-.31,1,1,0,0,1-.28-.71l.2-8.86a6.57,6.57,0,0,1,1.91-4.56l5.59-5.6a6.75,6.75,0,0,1,3.53-1.84l3.35-.58.12,0a.6.6,0,0,0,.2-.14l8.49-8.49a3.49,3.49,0,0,1,4-.51l2.07-7.66-.24-7.5A5.6,5.6,0,0,1,89.76,24a2.12,2.12,0,0,1,1.58.62A2,2,0,0,1,92,25.92l.49,15.25v.13l-.11,1a.92.92,0,0,1,0,.16l-1,9.3a12.62,12.62,0,0,1-3.6,7.6l-9.44,9.44A12,12,0,0,0,75,75.44v.27a1,1,0,0,1-.3.71A1,1,0,0,1,74,76.71ZM57.2,74.53l15.9.17a14.05,14.05,0,0,1,3.81-7.28L86.35,58a10.54,10.54,0,0,0,3-6.39l1-9.22a1.55,1.55,0,0,1,0-.22l.1-1L90,26a.32.32,0,0,0-.17-.07,3.61,3.61,0,0,0-3.46,3.71l.24,7.91a1.36,1.36,0,0,1,0,.29l-2.45,8.76v0a3.45,3.45,0,0,1-.65,3.59L73.71,60a1,1,0,0,1-1.42-1.42L82,48.86A1.45,1.45,0,0,0,82,47a1.46,1.46,0,0,0-2-.11L71.5,55.31a2.68,2.68,0,0,1-.87.57,2.74,2.74,0,0,1-.51.15l-3.36.58a4.74,4.74,0,0,0-2.47,1.29l-5.58,5.59a4.61,4.61,0,0,0-1.33,3.18ZM92.38,42.36h0Zm0-.09Z" style="fill:#c9d5e4"/><path d="M74.24,87.74a3.85,3.85,0,1,1,3.85-3.85A3.86,3.86,0,0,1,74.24,87.74Zm0-5.7a1.85,1.85,0,1,0,1.85,1.85A1.85,1.85,0,0,0,74.24,82Z" style="fill:#c9d5e4"/><path d="M41.08,94.21a1,1,0,0,1-1-1l-.14-11.13a2.3,2.3,0,0,0-2.3-2.23l-20.13.22a2.27,2.27,0,0,0-2.24,2.29l.13,10.82a1,1,0,1,1-2,0l-.13-10.82a4.26,4.26,0,0,1,4.21-4.31l20.14-.22h.05a4.29,4.29,0,0,1,4.27,4.2l.14,11.14a1,1,0,0,1-1,1ZM18.5,76.69a1,1,0,0,1-.7-.29,1,1,0,0,1-.3-.71v-.28a11.91,11.91,0,0,0-3.37-6.63L4.72,59.36a12.68,12.68,0,0,1-3.61-7.61l-1-9.29a.92.92,0,0,1,0-.16l-.1-1a.71.71,0,0,1,0-.14L.48,26A2.15,2.15,0,0,1,2.66,23.9a5.63,5.63,0,0,1,5.43,5.77L7.85,37.2v.23l2.08,7.44a3.42,3.42,0,0,1,3.93.48l8.53,8.52a.51.51,0,0,0,.18.13.58.58,0,0,0,.16,0l3.31.58a6.67,6.67,0,0,1,3.54,1.84l5.59,5.58a6.6,6.6,0,0,1,1.95,4.57l.2,8.86a1,1,0,0,1-.28.72,1,1,0,0,1-.71.3l-17.82.19ZM2.11,42.33l1,9.21a10.61,10.61,0,0,0,3,6.4l9.41,9.42a14,14,0,0,1,3.85,7.32l15.9-.17-.18-7.85a4.57,4.57,0,0,0-1.37-3.19l-5.59-5.58a4.61,4.61,0,0,0-2.47-1.3L22.36,56a3.13,3.13,0,0,1-.54-.17,2.44,2.44,0,0,1-.86-.57L12.48,46.8a1.45,1.45,0,0,0-1.9,0,1.46,1.46,0,0,0-.11,2.05l9.72,9.71A1,1,0,0,1,18.77,60L9,50.26a3.5,3.5,0,0,1-.67-3.63.14.14,0,0,1,0-.06L5.89,37.84a1.15,1.15,0,0,1,0-.33h0v-.34l.24-7.56A3.62,3.62,0,0,0,2.61,25.9a.16.16,0,0,0-.09.05L2,41.16l.1,1A.74.74,0,0,1,2.11,42.33Zm-2,0h0Z" style="fill:#c9d5e4"/><path d="M18.27,87.74a3.85,3.85,0,1,1,3.85-3.85A3.86,3.86,0,0,1,18.27,87.74Zm0-5.7a1.85,1.85,0,1,0,1.85,1.85A1.85,1.85,0,0,0,18.27,82Z" style="fill:#c9d5e4"/><path d="M46.26,36.76h0a9.81,9.81,0,0,1-7-16.71,9.73,9.73,0,0,1,6.93-2.91h0a9.81,9.81,0,1,1,0,19.62Zm0-17.62A7.84,7.84,0,0,0,38.45,27a7.82,7.82,0,0,0,7.81,7.76h0a7.81,7.81,0,1,0,0-15.62Z" style="fill:#c9d5e4"/><path d="M43.6,53.9a4.77,4.77,0,0,1-4.76-4.68V46.39a20.75,20.75,0,0,1-5.71-3.3l-2.39,1.4a4.74,4.74,0,0,1-2.37.64A4.62,4.62,0,0,1,27.1,45a4.75,4.75,0,0,1-2.83-2.27l-2.63-4.55a4.75,4.75,0,0,1,1.74-6.48l2.44-1.41a20.87,20.87,0,0,1,0-6.6l-2.44-1.41a4.76,4.76,0,0,1-1.74-6.48l2.64-4.57a4.76,4.76,0,0,1,6.48-1.74l2.4,1.41a20.66,20.66,0,0,1,5.72-3.3V4.74A4.76,4.76,0,0,1,43.62,0h5.27a4.76,4.76,0,0,1,4.74,4.74V7.56a20.66,20.66,0,0,1,5.72,3.3l2.39-1.4a4.76,4.76,0,0,1,6.5,1.73l2.63,4.56a4.76,4.76,0,0,1-1.74,6.49l-2.39,1.4a21,21,0,0,1,0,6.62l2.4,1.41a4.75,4.75,0,0,1,1.73,6.47l-2.61,4.57a4.74,4.74,0,0,1-2.88,2.21,4.34,4.34,0,0,1-1.27.16,4.79,4.79,0,0,1-2.36-.63L59.35,43a20.66,20.66,0,0,1-5.72,3.3v2.81a4.77,4.77,0,0,1-4.74,4.75H43.6Zm-10.37-13a1,1,0,0,1,.66.25,18.71,18.71,0,0,0,6.28,3.62,1,1,0,0,1,.67.95V49.2a2.78,2.78,0,0,0,2.77,2.7h5.28a2.75,2.75,0,0,0,2.74-2.75V45.64a1,1,0,0,1,.68-1,18.71,18.71,0,0,0,6.28-3.62A1,1,0,0,1,59.76,41l3,1.76a2.9,2.9,0,0,0,1.39.36,2.82,2.82,0,0,0,.71-.09,2.75,2.75,0,0,0,1.66-1.28l2.61-4.57a2.73,2.73,0,0,0-1-3.74l-3-1.77a1,1,0,0,1-.47-1.05,18.87,18.87,0,0,0,0-7.26,1,1,0,0,1,.47-1.05l3-1.76a2.75,2.75,0,0,0,1-3.75L66.5,12.19a2.74,2.74,0,0,0-3.75-1l-3,1.75a1,1,0,0,1-1.17-.11,18.71,18.71,0,0,0-6.28-3.62,1,1,0,0,1-.68-1V4.74A2.74,2.74,0,0,0,48.89,2H43.62a2.74,2.74,0,0,0-2.74,2.74V8.26a1,1,0,0,1-.68,1,18.71,18.71,0,0,0-6.28,3.62,1,1,0,0,1-1.17.11l-3-1.76a2.73,2.73,0,0,0-3.73,1l-2.64,4.57a2.73,2.73,0,0,0,1,3.74l3.05,1.76a1,1,0,0,1,.48,1.06,18.87,18.87,0,0,0,0,7.26,1,1,0,0,1-.48,1.06L24.38,33.4a2.72,2.72,0,0,0-1,3.74L26,41.71A2.75,2.75,0,0,0,27.65,43a2.43,2.43,0,0,0,.71.09,2.71,2.71,0,0,0,1.37-.37l3-1.75A1.06,1.06,0,0,1,33.23,40.87Z" style="fill:#c9d5e4"/></svg>