<svg xmlns="http://www.w3.org/2000/svg" viewBox="0 0 76.37 96.39"><path d="M5.85,47.27h0A5.88,5.88,0,0,1,0,41.42V28.48a5.85,5.85,0,0,1,11.7,0V41.42A5.88,5.88,0,0,1,5.85,47.27Zm0-22.64A3.86,3.86,0,0,0,2,28.48V41.42a3.85,3.85,0,0,0,7.7,0V28.48A3.86,3.86,0,0,0,5.85,24.63Z" style="fill:#c5d6e5"/><path d="M70.52,47.27h0a5.85,5.85,0,0,1-5.85-5.85V28.48a5.86,5.86,0,0,1,5.85-5.85h0a5.86,5.86,0,0,1,5.85,5.85V41.42A5.88,5.88,0,0,1,70.52,47.27Zm0-22.64a3.86,3.86,0,0,0-3.85,3.85V41.42a3.85,3.85,0,0,0,7.7,0V28.48a3.86,3.86,0,0,0-3.85-3.85Z" style="fill:#c5d6e5"/><path d="M6.76,24.15a1,1,0,0,1-.29,0,1,1,0,0,1-.67-1.25C10.06,8.76,22.46,0,38.18,0S66.3,8.76,70.57,22.86a1,1,0,1,1-1.92.58C64.65,10.22,53,2,38.18,2S11.71,10.21,7.72,23.44A1,1,0,0,1,6.76,24.15Z" style="fill:#c5d6e5"/><path d="M63.82,53.73a1,1,0,0,1,0-2A4,4,0,0,0,67.05,50a4.49,4.49,0,0,0,.83-3.28,1,1,0,0,1,2-.28,6.44,6.44,0,0,1-1.18,4.73,6,6,0,0,1-4.85,2.53Z" style="fill:#c5d6e5"/><path d="M47.84,61.82A5.85,5.85,0,0,1,42,56V52.73a5.88,5.88,0,0,1,5.85-5.85h9.7a5.85,5.85,0,0,1,5.85,5.85V56a5.88,5.88,0,0,1-5.81,5.82H47.84Zm0-12.94A3.86,3.86,0,0,0,44,52.73V56a3.85,3.85,0,0,0,3.85,3.82h9.73A3.86,3.86,0,0,0,61.4,56V52.73a3.86,3.86,0,0,0-3.85-3.85Z" style="fill:#c5d6e5"/><path d="M38.18,61.82A26.87,26.87,0,1,1,65.05,35v.93c0,5.24,0,8.7-3.41,13.24a1,1,0,0,1-1.6-1.2c3-4,3-7,3-12V35A24.87,24.87,0,1,0,38.18,59.82a10.53,10.53,0,0,0,4.21-.74c.36-.12.77-.26,1.24-.4a1,1,0,0,1,.6,1.9L43,61A12.43,12.43,0,0,1,38.18,61.82Zm5-3.82a1,1,0,0,1-1-.74A6.1,6.1,0,0,1,42,56.05V52.73a5.88,5.88,0,0,1,5.85-5.85H56.7a1,1,0,0,1,0,2H47.85A3.86,3.86,0,0,0,44,52.73V56a3.73,3.73,0,0,0,.13.74A1,1,0,0,1,43.42,58,1.15,1.15,0,0,1,43.16,58Z" style="fill:#c5d6e5"/><path d="M2.62,96.39a1,1,0,0,1-1-1V82.82A19.82,19.82,0,0,1,21.39,63.05H55A19.82,19.82,0,0,1,74.75,82.82V95.38a1,1,0,0,1-2,0V82.82A17.82,17.82,0,0,0,55,65.05H21.39A17.81,17.81,0,0,0,3.62,82.82V95.39A1,1,0,0,1,2.62,96.39Z" style="fill:#c5d6e5"/><path d="M18.78,96.38a1,1,0,0,1-1-1V85.07a1,1,0,0,1,2,0V95.38A1,1,0,0,1,18.78,96.38Z" style="fill:#c5d6e5"/><path d="M59.2,96.38a1,1,0,0,1-1-1V85.07a1,1,0,0,1,2,0V95.38A1,1,0,0,1,59.2,96.38Z" style="fill:#c5d6e5"/></svg>