<svg xmlns="http://www.w3.org/2000/svg"><symbol id="contract" viewBox="0 0 86.91 82.89"><path d="M73.39 82.89a1 1 0 0 1-.88-1.47L80.64 66l-10-5.06-12.13 21.42a1 1 0 0 1-1.74-1l8.52-15.13V2.17a.18.18 0 0 0-.16-.17h-63a.14.14 0 0 0-.13.15v79.72a1 1 0 0 1-2 0V2.17A2.14 2.14 0 0 1 1.87 0h63.26a2.17 2.17 0 0 1 1.54.65 2.09 2.09 0 0 1 .62 1.53V62.7l2-3.6a.92.92 0 0 1 .17-.22l3.62-7a1 1 0 0 1 1.34-.43l11.91 5.94a1 1 0 0 1 .5.59 1 1 0 0 1-.06.77L83 66a.93.93 0 0 1-.31.34l-8.43 16a1 1 0 0 1-.87.55zM71.6 59.16l10.1 5 2.85-5.41-10.12-5zM53.47 74.29H13.83a1 1 0 1 1 0-2h39.64a1 1 0 0 1 0 2zm0-17.49H13.83a1 1 0 1 1 0-2h39.64a1 1 0 0 1 0 2zm0-17.49H13.83a1 1 0 1 1 0-2h39.64a1 1 0 0 1 0 2zm0-17.48H13.83a1 1 0 1 1 0-2h39.64a1 1 0 0 1 0 2z" fill="#c5d6e5"/></symbol><symbol id="logo" viewBox="0 0 547.46 357.39"><path d="M121.85 121.69q3.18-2.55 10.39-2.55a33 33 0 0 1 16.11 4.46 194.46 194.46 0 0 1 18.23 11.66 82.65 82.65 0 0 0 14.95 8.74 45.87 45.87 0 0 0 19.19 3.81A53.1 53.1 0 0 0 214.6 146a36.73 36.73 0 0 0 11.77-5.4 27.82 27.82 0 0 0 8.16-9 24.67 24.67 0 0 0 3.07-12.41q0-8.26-4.45-13.67a35.18 35.18 0 0 0-11.76-9 93.72 93.72 0 0 0-16.65-6.15q-9.33-2.53-19-5.19t-19-5.94a66.67 66.67 0 0 1-16.65-8.48 40.42 40.42 0 0 1-11.76-12.93q-4.45-7.74-4.45-19.19A34 34 0 0 1 137.22 24a38.61 38.61 0 0 1 9.12-12.3 44.63 44.63 0 0 1 14-8.48A48.33 48.33 0 0 1 178 0a52.27 52.27 0 0 1 11 1.06q5 1.07 9.86 2.33t10.07 2.33a57.64 57.64 0 0 0 11.55 1.06 26.74 26.74 0 0 0 6.1-.78 16.39 16.39 0 0 0 4.88-1.8 131.4 131.4 0 0 0 8.48 13.8q4.88 7 9.11 12.93a8 8 0 0 1-3.92 1.7 25 25 0 0 1-4.13.42 35.09 35.09 0 0 1-13.78-2.86 69.3 69.3 0 0 1-14.42-8.59 84.32 84.32 0 0 0-14.73-8.9 40.92 40.92 0 0 0-17.92-4 25.27 25.27 0 0 0-7.74 1.3 21.08 21.08 0 0 0-6.89 3.71 18.64 18.64 0 0 0-6.78 15q0 7.22 4.24 11.66a31.8 31.8 0 0 0 11.24 7.31 99.25 99.25 0 0 0 16 4.88q9 2 18.23 4.35a169.46 169.46 0 0 1 18.24 5.72 56.37 56.37 0 0 1 16 9.12A42.4 42.4 0 0 1 253.93 86q4.23 8.58 4.24 21.51 0 12.52-4.77 21.73a45.58 45.58 0 0 1-12.72 15.37 55.17 55.17 0 0 1-18.34 9.23 75.4 75.4 0 0 1-21.41 3.07 79.56 79.56 0 0 1-14.31-1.48 136.56 136.56 0 0 1-14.31-3.4q-11.44-3.6-17.39-3.6a38.18 38.18 0 0 0-9.32 1.06 58.07 58.07 0 0 0-7.42 2.33q-1.49-3.6-3.4-7.74t-4.13-8.26q-2.22-4.14-4.56-7.85c-1.56-2.5-2.97-4.59-4.24-6.28zM414.62 152a33.74 33.74 0 0 0-14.84-3.6 40.46 40.46 0 0 0-10.07 1.17c-3 .77-6.25 1.59-9.64 2.43s-7.14 1.66-11.24 2.44a80.76 80.76 0 0 1-14.83 1.17 77.45 77.45 0 0 1-31.48-6.47 88.48 88.48 0 0 1-25.76-17 79.48 79.48 0 0 1-17.38-24.06A64.31 64.31 0 0 1 273 80.56q0-18.65 6.14-33.6a82.36 82.36 0 0 1 15.9-25.34 70.32 70.32 0 0 1 21.96-16A57.2 57.2 0 0 1 341.06 0a47.26 47.26 0 0 1 11.45 1.27q5.08 1.27 9.64 2.86T371.27 7a36 36 0 0 0 9.64 1.27 16.3 16.3 0 0 0 7-1.59q3.39-1.59 6.78-3.5a104.25 104.25 0 0 0 8.06 19.61A66.11 66.11 0 0 0 415 39.64a31.74 31.74 0 0 1-5.51 1.49 33.8 33.8 0 0 1-5.51.42 27 27 0 0 1-7.95-1.27 46 46 0 0 1-8.27-3.5 56.86 56.86 0 0 1-7.76-5.09 55 55 0 0 1-6.68-6Q365 17 357.49 13.46a41.68 41.68 0 0 0-17.7-3.5 30 30 0 0 0-14.63 3.71 38.64 38.64 0 0 0-11.87 10.18 50 50 0 0 0-8.06 15.48 62.26 62.26 0 0 0-3 19.61A97.87 97.87 0 0 0 308 93a99.31 99.31 0 0 0 14.52 26.93 69.28 69.28 0 0 0 19.4 17.59q10.59 6.26 20.13 6.26a101.82 101.82 0 0 0 13.89-.85q6-.84 8.8-3.18L380.7 95h-15.05a38.9 38.9 0 0 1-12.4-1.7 23.17 23.17 0 0 1-8.16-4.56 16.73 16.73 0 0 1-4.56-6.46 20.63 20.63 0 0 1-1.38-7.42q0-8.06 4.66-13.15a14.72 14.72 0 0 1 11.24-5.09 15.6 15.6 0 0 1 10.18 3.29 10.78 10.78 0 0 1 4 8.8 10.17 10.17 0 0 1-2.12 6.36 6.62 6.62 0 0 1-5.51 2.75 8.13 8.13 0 0 1-5.3-1.9A6 6 0 0 1 354 71c0-2.4.56-4 1.7-4.88a2.89 2.89 0 0 0-1.49-.21c-1.13 0-2.26.78-3.39 2.33a11.06 11.06 0 0 0-1.7 6.58 9.34 9.34 0 0 0 3.71 7.63q3.71 3 11.56 3H418a23.69 23.69 0 0 0-5.93 7.42 22.47 22.47 0 0 0-2.34 10.6 18.33 18.33 0 0 0 .11 2c.07.64.18 1.31.32 2zM53.3 345.25a5.41 5.41 0 0 1 3.39-.83 10.73 10.73 0 0 1 5.24 1.45 62.42 62.42 0 0 1 5.93 3.79 26.84 26.84 0 0 0 4.87 2.83 14.89 14.89 0 0 0 6.27 1.24 17.29 17.29 0 0 0 4.52-.58 11.92 11.92 0 0 0 3.83-1.76 9 9 0 0 0 2.65-2.94 8.06 8.06 0 0 0 1-4 6.73 6.73 0 0 0-1.47-4.45 11.42 11.42 0 0 0-3.83-3 30.24 30.24 0 0 0-5.42-2l-6.17-1.69c-2.1-.57-4.15-1.21-6.18-1.93a21.51 21.51 0 0 1-5.41-2.76 13.07 13.07 0 0 1-3.83-4.21 12.31 12.31 0 0 1-1.45-6.24 10.93 10.93 0 0 1 1.07-4.76 12.63 12.63 0 0 1 3-4 14.82 14.82 0 0 1 4.56-2.76 15.72 15.72 0 0 1 5.76-1 17 17 0 0 1 3.55.34c1.08.23 2.15.49 3.21.76s2.15.53 3.28.76a18.86 18.86 0 0 0 3.76.35 8.87 8.87 0 0 0 2-.24A5.37 5.37 0 0 0 89 307a42.46 42.46 0 0 0 2.76 4.48c1.06 1.52 2 2.93 3 4.21a2.61 2.61 0 0 1-1.27.56 8.2 8.2 0 0 1-1.35.13 11.42 11.42 0 0 1-4.48-.93 22.51 22.51 0 0 1-4.69-2.79 26.91 26.91 0 0 0-4.8-2.9 13.34 13.34 0 0 0-5.83-1.31 8.3 8.3 0 0 0-2.52.41 6.81 6.81 0 0 0-2.24 1.21 6.31 6.31 0 0 0-1.59 2 6.25 6.25 0 0 0-.62 2.86 5.28 5.28 0 0 0 1.38 3.8 10.33 10.33 0 0 0 3.66 2.38 32.88 32.88 0 0 0 5.21 1.59c2 .43 3.93.91 5.93 1.41a58.24 58.24 0 0 1 5.88 1.89 18.64 18.64 0 0 1 5.21 3 14 14 0 0 1 3.65 4.66 15.76 15.76 0 0 1 1.38 7 15.3 15.3 0 0 1-1.55 7.08 15 15 0 0 1-4.14 5 18.22 18.22 0 0 1-6 3 24.32 24.32 0 0 1-7 1 25.86 25.86 0 0 1-4.66-.48 45.68 45.68 0 0 1-4.65-1.11 20.84 20.84 0 0 0-5.66-1.17 12.52 12.52 0 0 0-3 .34 19.78 19.78 0 0 0-2.41.76q-.48-1.17-1.11-2.52c-.41-.89-.86-1.79-1.34-2.69s-1-1.74-1.49-2.55-.94-1.52-1.36-2.07z" fill="#003980"/><path d="M97.67 306q2.55-.35 5.8-1a44.69 44.69 0 0 0 6.76-2v45.9a9.06 9.06 0 0 0 .55 3.38 8.42 8.42 0 0 0 2.55 3H97.67a9.71 9.71 0 0 0 2.24-2.28 6.66 6.66 0 0 0 1.21-4.11v-37.8a5.2 5.2 0 0 0-.76-2.9 7.08 7.08 0 0 0-2.69-2.19zM114.09 337.93a20.53 20.53 0 0 1 1.28-7.31 19.92 19.92 0 0 1 3.45-5.94 15.85 15.85 0 0 1 5.14-4 14.21 14.21 0 0 1 6.28-1.45 14 14 0 0 1 6.24 1.45 16.48 16.48 0 0 1 5.14 4 19.31 19.31 0 0 1 3.52 5.9 19.72 19.72 0 0 1 1.31 7.24 19.58 19.58 0 0 1-4.86 13 17 17 0 0 1-5.18 4 13.81 13.81 0 0 1-6.17 1.45 14.72 14.72 0 0 1-6.28-1.38 15.62 15.62 0 0 1-5.14-3.83 18.6 18.6 0 0 1-3.45-5.8 20.29 20.29 0 0 1-1.28-7.33zm10.77 8.14a14.65 14.65 0 0 0 .44 3.9 6.68 6.68 0 0 0 1.21 2.45 4.3 4.3 0 0 0 1.73 1.28 5.47 5.47 0 0 0 2 .38 4.84 4.84 0 0 0 3.69-1.76 7.15 7.15 0 0 0 1.28-2.45 12.79 12.79 0 0 0 .48-3.8v-5.45-3.93-8.35a8.4 8.4 0 0 0-1.24-4.76 4.61 4.61 0 0 0-4.14-1.86 4.66 4.66 0 0 0-4 1.86 7.91 7.91 0 0 0-1.34 4.76zM147.21 326.2a12.81 12.81 0 0 0-1.93-3.1 12.61 12.61 0 0 0-2.83-2.69h17.18A8.16 8.16 0 0 0 158 322a3.37 3.37 0 0 0-.82 2 7.24 7.24 0 0 0 .17 1.62 15.44 15.44 0 0 0 .79 2.32l7.94 19 1.52-4.42q1-2.9 1.86-6.34a27.54 27.54 0 0 0 .9-7 14.07 14.07 0 0 0-.94-5.52 11.21 11.21 0 0 0-2-3.31h14.14a21.88 21.88 0 0 0-3.93 5.31 73.11 73.11 0 0 0-3.69 7.66c-1.17 2.8-2.28 5.69-3.31 8.66s-2 5.74-2.8 8.31a7.82 7.82 0 0 0 1.83 2.9 14.9 14.9 0 0 0 2.45 2.07 29 29 0 0 0-6.28.62c-1.84.41-3.66.9-5.45 1.45zM183.51 330.34a.55.55 0 0 1-.56.35q-.13 0-.27-.21a.7.7 0 0 1-.14-.41 8.14 8.14 0 0 1 .83-3.18 12 12 0 0 1 2.55-3.59 15.2 15.2 0 0 1 4.35-3 14.53 14.53 0 0 1 6.28-1.25 19.3 19.3 0 0 1 4.17.45 12.26 12.26 0 0 1 3.69 1.45 8.89 8.89 0 0 1 2.73 2.55 7.67 7.67 0 0 1 1.27 3.7l2.07 21.32a11.47 11.47 0 0 0 .35 1.93 9.79 9.79 0 0 0 .76 2 8.62 8.62 0 0 0 1.1 1.65 2.78 2.78 0 0 0 1.45.93l-.07.28H202.2l-.55-1.31a20.74 20.74 0 0 1-4.41 2 13.77 13.77 0 0 1-3.87.52 16.29 16.29 0 0 1-5.38-.83 12.38 12.38 0 0 1-4.1-2.27 10.42 10.42 0 0 1-2.63-3.35 9.21 9.21 0 0 1-.93-4.11 11.3 11.3 0 0 1 1.24-5.31 15.57 15.57 0 0 1 3.59-4.38 32.48 32.48 0 0 1 5.66-3.86q3.31-1.83 7.45-3.83a4 4 0 0 0-2.38-2.38 9.34 9.34 0 0 0-3.76-.8 9.71 9.71 0 0 0-5 1.45 10 10 0 0 0-3.62 3.49zm15.8 1.24a32.65 32.65 0 0 0-4.07 2.83 14.24 14.24 0 0 0-2.7 2.9 10.32 10.32 0 0 0-1.48 3.24 15.35 15.35 0 0 0-.45 3.87 8.72 8.72 0 0 0 .45 2.65 10.53 10.53 0 0 0 1.28 2.66 7.74 7.74 0 0 0 2 2.07 4.56 4.56 0 0 0 2.69.83 5.65 5.65 0 0 0 4.35-1.8z" fill="#003980"/><path d="M224.63 338.07l6-6.14a12.6 12.6 0 0 0 2.14-2.9 7.11 7.11 0 0 0 .9-3.45 4.24 4.24 0 0 0-1.11-2.86 10.81 10.81 0 0 0-2.41-2.11v-.2h17l.14.48q-2.55 1.78-5.73 4.31a96.41 96.41 0 0 0-7.72 7.07l9 17.12a17.36 17.36 0 0 0 2.27 3.51 17.87 17.87 0 0 0 2.69 2.42h-16.48a9.33 9.33 0 0 0 1.42-1.31 2.55 2.55 0 0 0 .51-1.66 6 6 0 0 0-.27-1.45 8.17 8.17 0 0 0-.76-1.79l-5.24-10-2.35 2.07V349a8.68 8.68 0 0 0 .72 3.73 5 5 0 0 0 1.9 2.21v.41h-15l-.07-.35a4.25 4.25 0 0 0 2.52-2.38 10.42 10.42 0 0 0 .86-4.45v-35.42a7.75 7.75 0 0 0-.72-3.63 6.26 6.26 0 0 0-2.11-2.24v-.27a29.2 29.2 0 0 0 5.87-1.21 50.62 50.62 0 0 0 6.07-2.38z" fill="#003980"/><path d="M249.33 327.44a7.21 7.21 0 0 0-.79-3.34 4.92 4.92 0 0 0-2.59-2.31 32.79 32.79 0 0 0 6.45-1.25c2-.59 4-1.31 6-2.14v29.54a9.28 9.28 0 0 0 .86 4.41 9.62 9.62 0 0 0 2.66 3h-16.18V355a7 7 0 0 0 2.56-2.17 5 5 0 0 0 1-3zm-1.1-17.87a5.41 5.41 0 0 1 1.55-3.9 5 5 0 0 1 3.76-1.62 5.2 5.2 0 0 1 3.86 1.62 5.37 5.37 0 0 1 1.59 3.9 5.41 5.41 0 0 1-5.45 5.45 5 5 0 0 1-3.76-1.58 5.31 5.31 0 0 1-1.55-3.87zM264.72 330.34a.55.55 0 0 1-.55.35c-.1 0-.19-.07-.28-.21a.78.78 0 0 1-.14-.41 8.14 8.14 0 0 1 .83-3.18 12 12 0 0 1 2.55-3.59 15.2 15.2 0 0 1 4.35-3 14.53 14.53 0 0 1 6.28-1.25 19.23 19.23 0 0 1 4.17.45 12.26 12.26 0 0 1 3.69 1.45 8.78 8.78 0 0 1 2.73 2.55 7.79 7.79 0 0 1 1.28 3.7l2.07 21.32a10.47 10.47 0 0 0 .34 1.93 9.79 9.79 0 0 0 .76 2 8.62 8.62 0 0 0 1.1 1.65 2.78 2.78 0 0 0 1.45.93l-.07.28h-11.86l-.56-1.31a20.52 20.52 0 0 1-4.41 2 13.77 13.77 0 0 1-3.87.52 16.33 16.33 0 0 1-5.38-.83 12.38 12.38 0 0 1-4.1-2.27 10.56 10.56 0 0 1-2.63-3.35 9.21 9.21 0 0 1-.93-4.11 11.19 11.19 0 0 1 1.25-5.31 15.35 15.35 0 0 1 3.58-4.38 32.86 32.86 0 0 1 5.66-3.86q3.32-1.83 7.45-3.83a4 4 0 0 0-2.38-2.38 9.34 9.34 0 0 0-3.76-.8 9.68 9.68 0 0 0-5 1.45 10 10 0 0 0-3.62 3.49zm15.8 1.24a32.65 32.65 0 0 0-4.07 2.83 14.17 14.17 0 0 0-2.69 2.9 10.35 10.35 0 0 0-1.49 3.24 15.35 15.35 0 0 0-.45 3.87 8.72 8.72 0 0 0 .45 2.65 10.53 10.53 0 0 0 1.28 2.66 7.74 7.74 0 0 0 2 2.07 4.56 4.56 0 0 0 2.69.83 5.64 5.64 0 0 0 4.35-1.8zM351.31 355.11a11 11 0 0 0-4.83-1.17 13.37 13.37 0 0 0-3.28.38l-3.14.79c-1.1.28-2.32.54-3.65.8a26.72 26.72 0 0 1-4.83.38 25.27 25.27 0 0 1-10.25-2.11 28.65 28.65 0 0 1-8.38-5.52 25.87 25.87 0 0 1-5.66-7.83 20.91 20.91 0 0 1-2.07-9 28.62 28.62 0 0 1 2-10.94 26.77 26.77 0 0 1 5.17-8.24 22.84 22.84 0 0 1 7.15-5.21 18.56 18.56 0 0 1 7.83-1.83 15.63 15.63 0 0 1 3.72.41c1.11.28 2.15.59 3.14.93s2 .66 3 .94a11.9 11.9 0 0 0 3.14.41 5.27 5.27 0 0 0 2.28-.52c.73-.34 1.47-.72 2.21-1.14a33.69 33.69 0 0 0 2.62 6.39 21.49 21.49 0 0 0 4 5.48 11.58 11.58 0 0 1-1.79.49 11.28 11.28 0 0 1-1.8.13 8.67 8.67 0 0 1-2.59-.41 15.81 15.81 0 0 1-2.69-1.14A18.51 18.51 0 0 1 340 316a18.06 18.06 0 0 1-2.17-2 17.78 17.78 0 0 0-5.14-4 13.59 13.59 0 0 0-5.77-1.14 9.82 9.82 0 0 0-4.76 1.21 12.64 12.64 0 0 0-3.86 3.31 16.14 16.14 0 0 0-2.62 5 20.08 20.08 0 0 0-1 6.38 32 32 0 0 0 1.86 11.08 32.6 32.6 0 0 0 4.73 8.76 22.66 22.66 0 0 0 6.31 5.73 13 13 0 0 0 6.56 2 33.58 33.58 0 0 0 4.52-.27 5.68 5.68 0 0 0 2.86-1l-1.31-14.56h-4.9a12.57 12.57 0 0 1-4-.55 7.53 7.53 0 0 1-2.66-1.48 5.43 5.43 0 0 1-1.48-2.11 6.69 6.69 0 0 1-.45-2.41 6.08 6.08 0 0 1 1.51-4.28 4.8 4.8 0 0 1 3.66-1.66 5.06 5.06 0 0 1 3.31 1.07 3.51 3.51 0 0 1 1.32 2.87 3.32 3.32 0 0 1-.7 2.07 2.16 2.16 0 0 1-1.79.89 2.65 2.65 0 0 1-1.72-.62 1.94 1.94 0 0 1-.76-1.59 1.86 1.86 0 0 1 .55-1.58c-.05-.05-.21-.07-.48-.07a1.48 1.48 0 0 0-1.11.76A3.56 3.56 0 0 0 330 330a3 3 0 0 0 1.21 2.48 5.94 5.94 0 0 0 3.76 1h17.45a7.81 7.81 0 0 0-1.93 2.41 7.44 7.44 0 0 0-.76 3.45 4.68 4.68 0 0 0 0 .66c0 .2.06.42.1.65zM356.83 330.34a.54.54 0 0 1-.55.35c-.09 0-.19-.07-.28-.21a.78.78 0 0 1-.14-.41 8.14 8.14 0 0 1 .83-3.18 12.06 12.06 0 0 1 2.56-3.59 15 15 0 0 1 4.34-3 14.53 14.53 0 0 1 6.28-1.25 19.32 19.32 0 0 1 4.18.45 12.47 12.47 0 0 1 3.69 1.45 8.85 8.85 0 0 1 2.72 2.55 7.68 7.68 0 0 1 1.28 3.7l2.07 21.32a10.52 10.52 0 0 0 1.1 3.9 8.65 8.65 0 0 0 1.11 1.65 2.7 2.7 0 0 0 1.45.93l-.07.28h-11.87L375 354a20.56 20.56 0 0 1-4.42 2 13.69 13.69 0 0 1-3.86.52 16.25 16.25 0 0 1-5.38-.83 12.43 12.43 0 0 1-4.11-2.27 10.39 10.39 0 0 1-2.62-3.35 9.21 9.21 0 0 1-.93-4.11 11.18 11.18 0 0 1 1.24-5.31 15.4 15.4 0 0 1 3.59-4.38 32.76 32.76 0 0 1 5.65-3.86q3.32-1.83 7.46-3.83a4.07 4.07 0 0 0-2.38-2.38 9.38 9.38 0 0 0-3.76-.8 9.71 9.71 0 0 0-5 1.45 10 10 0 0 0-3.65 3.49zm15.8 1.24a32.65 32.65 0 0 0-4.07 2.83 14.46 14.46 0 0 0-2.69 2.9 10.1 10.1 0 0 0-1.48 3.24 15.35 15.35 0 0 0-.45 3.87 8.72 8.72 0 0 0 .45 2.65 10.17 10.17 0 0 0 1.27 2.66 7.74 7.74 0 0 0 2 2.07 4.58 4.58 0 0 0 2.69.83 5.62 5.62 0 0 0 4.35-1.8z" fill="#003980"/><path d="M386 322.89a63.16 63.16 0 0 0 6.17-1.86 46.63 46.63 0 0 0 6-2.63v8.6a24.28 24.28 0 0 1 4-5.07 7.32 7.32 0 0 1 5.28-2.18 7.42 7.42 0 0 1 2.45.42 6.8 6.8 0 0 1 2.17 1.21 6.42 6.42 0 0 1 1.55 1.86 4.88 4.88 0 0 1 .59 2.38 5.12 5.12 0 0 1-5.18 5.24 4.29 4.29 0 0 1-1.48-.24c-.44-.16-.86-.33-1.28-.52a13.49 13.49 0 0 0-1.38-.51 5.92 5.92 0 0 0-1.79-.24 3.73 3.73 0 0 0-1.69.44 5.1 5.1 0 0 0-1.59 1.35 7.07 7.07 0 0 0-1.17 2.35 11.39 11.39 0 0 0-.45 3.38v12.21a10.63 10.63 0 0 0 .55 3.69 5.14 5.14 0 0 0 2.21 2.52h-14.7a6.84 6.84 0 0 0 2-2.24 7.2 7.2 0 0 0 .86-3.69v-21.3a4.78 4.78 0 0 0-.34-1.86 7.28 7.28 0 0 0-.83-1.48 6.42 6.42 0 0 0-1-1.11c-.42-.29-.7-.54-.95-.72zM415.62 330.34a.54.54 0 0 1-.55.35c-.1 0-.19-.07-.28-.21a.78.78 0 0 1-.14-.41 8.14 8.14 0 0 1 .83-3.18 12 12 0 0 1 2.52-3.59 15.2 15.2 0 0 1 4.35-3 14.53 14.53 0 0 1 6.28-1.25 19.23 19.23 0 0 1 4.17.45 12.42 12.42 0 0 1 3.7 1.45 8.85 8.85 0 0 1 2.72 2.55 7.79 7.79 0 0 1 1.28 3.7l2.07 21.32a10.52 10.52 0 0 0 1.1 3.9 8.21 8.21 0 0 0 1.11 1.65 2.71 2.71 0 0 0 1.44.93l-.06.28h-11.84l-.55-1.31a20.78 20.78 0 0 1-4.42 2 13.74 13.74 0 0 1-3.86.52 16.35 16.35 0 0 1-5.39-.83 12.38 12.38 0 0 1-4.1-2.27 10.39 10.39 0 0 1-2.62-3.35 9.09 9.09 0 0 1-.94-4.11 11.19 11.19 0 0 1 1.25-5.31 15.35 15.35 0 0 1 3.58-4.38 32.86 32.86 0 0 1 5.66-3.86q3.31-1.83 7.45-3.83a4 4 0 0 0-2.38-2.38 9.34 9.34 0 0 0-3.76-.8 9.68 9.68 0 0 0-5 1.45 10 10 0 0 0-3.62 3.52zm15.8 1.24a32.65 32.65 0 0 0-4.07 2.83 14.17 14.17 0 0 0-2.69 2.9 10.35 10.35 0 0 0-1.49 3.24 15.37 15.37 0 0 0-.44 3.87 8.69 8.69 0 0 0 .44 2.65 10.53 10.53 0 0 0 1.28 2.66 7.74 7.74 0 0 0 2 2.07 4.56 4.56 0 0 0 2.69.83 5.62 5.62 0 0 0 4.35-1.8z" fill="#003980"/><path d="M447.84 327.86a8.07 8.07 0 0 0-.76-3.35 6.78 6.78 0 0 0-2-2.66v-.34a54.92 54.92 0 0 0 6.07-1.14 41.76 41.76 0 0 0 5.8-1.9V324a20.5 20.5 0 0 1 4.31-3.2 10.5 10.5 0 0 1 5.21-1.28 10.71 10.71 0 0 1 3 .45 8.64 8.64 0 0 1 2.87 1.45 7.77 7.77 0 0 1 2.14 2.58 8.32 8.32 0 0 1 .82 3.87v22.49a5.36 5.36 0 0 0 .7 2.64 10.7 10.7 0 0 0 1.76 2.31H464.4a8.77 8.77 0 0 0 1.24-2.42 10 10 0 0 0 .56-3.45v-19.17c0-2.07-.37-3.52-1.11-4.34a3.46 3.46 0 0 0-2.69-1.25 4.8 4.8 0 0 0-1.86.38 6.89 6.89 0 0 0-1.62 1 6.34 6.34 0 0 0-1.25 1.34 5.58 5.58 0 0 0-.72 1.45v21.26a5.21 5.21 0 0 0 .9 3.2 12.42 12.42 0 0 0 1.86 2h-15.25a10.23 10.23 0 0 0 2.42-3.11 9.65 9.65 0 0 0 1-4.48zM481 323.72h-4.35a41.44 41.44 0 0 0 7.35-5.56 53.4 53.4 0 0 0 6.11-7v9.25h4.69v3.31h-4.69v23.87a5 5 0 0 0 .72 2.8 2.28 2.28 0 0 0 2 1.07 2.78 2.78 0 0 0 1.28-.35 5 5 0 0 0 1.41-1.31 6.45 6.45 0 0 1 .14.9 3.59 3.59 0 0 1-.73 2.17 6.8 6.8 0 0 1-1.82 1.72 9.42 9.42 0 0 1-2.42 1.14 7.94 7.94 0 0 1-2.41.42 8.08 8.08 0 0 1-5.11-1.66c-1.43-1.1-2.14-3-2.14-5.59zM277.42 243.57v5.07h-6.61v-5.07a8.49 8.49 0 0 1 6.61 0zM274.11 280.81c-9.8-4.72-22.26-12.38-30.08-24.79l60.18-.13h.05c-7.82 12.5-20.32 20.19-30.15 24.92z" fill="#003980"/><path d="M304.21 255.89L244 256c2-3.54 5.19-7.38 9.49-7.38a9.58 9.58 0 0 1 8.68 5.13s3-7.76 8.66-10.13v5.07h6.61v-5.07c5.66 2.37 8.66 10.13 8.66 10.13a9.56 9.56 0 0 1 8.68-5.13c4.22-.05 7.42 3.75 9.43 7.27zM251.16 234.7s.19-2.61.19-5.64-.19-5.64-.19-5.64c7.28 2.44 15.46 2.27 19.65 2.21v-10.16a46.42 46.42 0 0 0-15.55 2.24s.19-2.61.19-5.64-.19-5.64-.19-5.64a46.53 46.53 0 0 0 15.53 2.23 90.64 90.64 0 0 0-2.07-14.53s3.85.3 5.39.3 5.4-.3 5.4-.3a90.64 90.64 0 0 0-2.07 14.53 46.47 46.47 0 0 0 15.56-2.23s-.19 2.6-.19 5.64.19 5.64.19 5.64a46.37 46.37 0 0 0-15.54-2.24v10.16c4.19.06 12.36.23 19.64-2.21 0 0-.19 2.61-.19 5.64s.19 5.64.19 5.64c-6.67-2.24-14.91-2.28-19.64-2.22v11.09a8.49 8.49 0 0 0-6.61 0v-11.09c-4.77-.06-13.01-.02-19.69 2.22zM244 256h-.09a.16.16 0 0 1 0-.07z" fill="#003980"/><path d="M244 256a49.08 49.08 0 0 1-7.47-26.65c0-29.27 1.4-42.57 1.4-42.57h72.41s1.4 13.3 1.4 42.57a49 49 0 0 1-7.46 26.62c-7.82 12.47-20.32 20.16-30.15 24.89-9.8-4.72-22.26-12.38-30.08-24.79" fill="none" stroke="#003980" stroke-miterlimit="10" stroke-width="4"/><path d="M326.71 163.38h-1.54c-1.32 0-2.65 0-4 .17a20.29 20.29 0 0 0-7.78 2.06 7.44 7.44 0 0 0-3.14 3.1 6.71 6.71 0 0 0-.5 4.33 65.06 65.06 0 0 0-72.1 0 6.71 6.71 0 0 0-.5-4.33 7.44 7.44 0 0 0-3.14-3.1 20.29 20.29 0 0 0-7.78-2.06 53.28 53.28 0 0 0-5.51-.16l-2.44.18h-.09a41.94 41.94 0 0 0-7.94 1.92 44.54 44.54 0 0 0-14.4 8.51c-1.07.93-2.13 1.89-3.15 2.92-.54.51-1 1-1.48 1.53s-1 1.09-1.47 1.65a28.06 28.06 0 0 0-3.1 4.55c-.49-.17-1-.35-1.49-.51a75.77 75.77 0 0 0-19.9-3.58 82.66 82.66 0 0 0-20.47 1.58 81.22 81.22 0 0 0-10 2.73c-1.65.59-3.27 1.2-4.91 1.91s-3.18 1.45-4.72 2.23c-6.22 3.14-12.37 7.2-16.85 13a35.58 35.58 0 0 0-5.31 9.59 43.31 43.31 0 0 0-2.29 10.68l-.1 1.3-.06 1.44c0 .94 0 1.87.11 2.8a34.73 34.73 0 0 0 .93 5.47 43.7 43.7 0 0 0 4.06 10.2 46.68 46.68 0 0 0 6.33 9 39.59 39.59 0 0 0 4 3.86c1.35 1.12 2.66 2 4 2.92-2.27 1.09-4.54 2.2-6.79 3.34-3.67 1.85-7.31 3.75-10.92 5.67l-7.58-2.7c-2.53-.92-5.08-1.91-7.66-2.92-5.16-2-10.42-4.14-15.86-6.11a161.62 161.62 0 0 0-16.91-5.23A77.53 77.53 0 0 0 36 248.91 42.88 42.88 0 0 0 17.26 253a35.71 35.71 0 0 0-4.26 2.44l-.52.34-.29.21-.24.18-.95.71c-.63.5-1.33 1.1-2 1.67a26 26 0 0 0-5.92 8.29 24.93 24.93 0 0 0 .1 20.3 26.57 26.57 0 0 0 15.19 14c.43.15.8.31 1.28.46s.8.24 1.28.36a22.82 22.82 0 0 0 2.67.51 31.68 31.68 0 0 0 5.32.23 53.34 53.34 0 0 0 10.34-1.55 125.42 125.42 0 0 0 19.57-6.86c12.7-5.52 25-12.13 37.33-18.69l7.15-3.79c9.26 3.37 18.13 6.84 26.82 9.61a125.63 125.63 0 0 0 27.21 5.95 71.67 71.67 0 0 0 24.51-1.86c1.84-.51 3.64-1 5.38-1.66.89-.28 1.71-.61 2.53-.94l1.22-.48.3-.12.33-.14.6-.27a40.52 40.52 0 0 0 8.66-5.17 31.84 31.84 0 0 0 10.15-13.62 33.15 33.15 0 0 0 2.11-11.51 65.23 65.23 0 0 0 121.14 0 33.15 33.15 0 0 0 2.11 11.51 31.84 31.84 0 0 0 10.15 13.62 40.52 40.52 0 0 0 8.66 5.17l.6.27.33.14.31.12 1.21.48c.82.33 1.64.66 2.53.94 1.74.63 3.54 1.15 5.38 1.66a71.67 71.67 0 0 0 24.51 1.86 125.63 125.63 0 0 0 27.21-5.95c8.69-2.77 17.56-6.24 26.82-9.61l7.15 3.79c12.37 6.56 24.63 13.17 37.33 18.69a125.42 125.42 0 0 0 19.57 6.86 53.34 53.34 0 0 0 10.34 1.55 31.76 31.76 0 0 0 5.33-.23 23.63 23.63 0 0 0 2.67-.51c.47-.12.88-.24 1.27-.36s.85-.31 1.28-.46a26.57 26.57 0 0 0 15.19-14 24.93 24.93 0 0 0 .1-20.3 25.86 25.86 0 0 0-5.92-8.29 33.21 33.21 0 0 0-1.95-1.67l-1-.71-.23-.18-.3-.21-.51-.34a36.63 36.63 0 0 0-4.21-2.44 42.85 42.85 0 0 0-18.72-4.06 77.37 77.37 0 0 0-18.27 2.39 161.07 161.07 0 0 0-16.92 5.23c-5.44 2-10.7 4.08-15.86 6.11-2.58 1-5.13 2-7.66 2.92l-7.58 2.7a623.82 623.82 0 0 0-10.92-5.67q-3.37-1.71-6.79-3.34c1.35-.91 2.65-1.8 4-2.92a40.56 40.56 0 0 0 4-3.86 47.17 47.17 0 0 0 6.34-9 44.12 44.12 0 0 0 4.05-10.2 33.61 33.61 0 0 0 .93-5.47c.09-.93.11-1.86.11-2.8l-.06-1.44-.1-1.3a42.86 42.86 0 0 0-2.29-10.68 35.58 35.58 0 0 0-5.26-9.61c-4.48-5.83-10.63-9.89-16.85-13-1.54-.78-3.15-1.54-4.72-2.23s-3.26-1.32-4.91-1.91a80.74 80.74 0 0 0-10.05-2.73 82.66 82.66 0 0 0-20.47-1.58 75.77 75.77 0 0 0-19.9 3.58c-.5.16-1 .34-1.49.51a27.44 27.44 0 0 0-3.1-4.55c-.47-.56-1-1.16-1.47-1.65s-.94-1-1.48-1.53c-1-1-2.08-2-3.15-2.92a44.54 44.54 0 0 0-14.43-8.49 41.94 41.94 0 0 0-7.94-1.92h-.09zm-232.23 109C82.13 279 69.92 285.56 57.44 291a122.66 122.66 0 0 1-19 6.69 49.44 49.44 0 0 1-9.63 1.46 27.38 27.38 0 0 1-4.71-.15 20.08 20.08 0 0 1-2.26-.43c-.33-.07-.72-.19-1.13-.32s-.72-.25-1.08-.38A23.11 23.11 0 0 1 6.41 285.7a21.56 21.56 0 0 1-.14-17.47 22.42 22.42 0 0 1 5.11-7.2c.54-.5 1-.95 1.64-1.44l1-.71.24-.18a.87.87 0 0 1 .19-.13l.46-.32a35 35 0 0 1 3.83-2.25A39.69 39.69 0 0 1 36 252.19a74.92 74.92 0 0 1 17.5 2.22 159.72 159.72 0 0 1 16.6 5.06c5.38 1.92 10.63 4 15.81 6 2.59 1 5.17 2 7.75 2.92l5 1.76zm228.27-93.67a10.14 10.14 0 0 0 5.8-4.79l.11-.22.1-.25.15-.39a8.55 8.55 0 0 0 .29-.82 13.72 13.72 0 0 0 .44-1.79 15 15 0 0 0 .17-3.54c0-.19-.05-.38-.08-.58a38.64 38.64 0 0 1 6.55 1.68 42 42 0 0 1 13.51 8c1 .9 2 1.82 3 2.78.48.46 1 1 1.44 1.5s.9 1 1.34 1.52a24.3 24.3 0 0 1 2.58 3.76l-.52.2c-.76.3-1.58.65-2.35 1s-1.52.81-2.24 1.24a47 47 0 0 0-8 6.06 33.25 33.25 0 0 0-6.29 7.82 17.53 17.53 0 0 0-1.85 4.87 12 12 0 0 0-.21 3.34 65.28 65.28 0 0 0-18.62-30.66 13.47 13.47 0 0 0 4.68-.72zm-130.82 3.15c.44-.53.84-1 1.34-1.52s1-1 1.44-1.5c.94-1 1.94-1.88 3-2.78a42.08 42.08 0 0 1 13.51-8 38.64 38.64 0 0 1 6.55-1.68c0 .2-.07.39-.08.58a14.54 14.54 0 0 0 .18 3.54 13.65 13.65 0 0 0 .43 1.79 8.55 8.55 0 0 0 .29.82l.15.39c0 .09 0 .08.11.25l.11.22a10.09 10.09 0 0 0 5.79 4.79 13.55 13.55 0 0 0 4.7.82 65.36 65.36 0 0 0-18.62 30.66 12 12 0 0 0-.21-3.34 17.53 17.53 0 0 0-1.85-4.87 33 33 0 0 0-6.29-7.82 47 47 0 0 0-8-6.06c-.72-.43-1.47-.85-2.23-1.24s-1.6-.74-2.35-1l-.53-.2a25 25 0 0 1 2.56-3.84zm17.17 80.49a29.71 29.71 0 0 1-9.57 12.65 38.88 38.88 0 0 1-8.22 4.81l-.57.25-.27.11-.3.12-1.23.47c-.82.33-1.65.65-2.48.91-1.64.57-3.39 1.06-5.17 1.53a68.81 68.81 0 0 1-23.68 1.6 123 123 0 0 1-26.61-6.06c-7.78-2.55-15.78-5.66-24.16-8.78 2.65-1.38 5.3-2.76 8-4.11 2.91-1.46 5.84-2.9 8.79-4.28a48.41 48.41 0 0 0 16.92 6.59 44.52 44.52 0 0 0 5.53.6c.94 0 1.9.07 2.76 0a22.43 22.43 0 0 0 2.88-.14 28.63 28.63 0 0 0 5.55-1.34 23.81 23.81 0 0 0 5.21-2.47 13.59 13.59 0 0 0 2.4-2 7.6 7.6 0 0 0 1.83-3 5.88 5.88 0 0 0-.08-3.8c-.12-.28-.23-.56-.36-.84s-.32-.55-.49-.82l-.4-.54a7.43 7.43 0 0 0-.54-.66 12.91 12.91 0 0 0-5.09-3.46 17.76 17.76 0 0 0-5.81-1.09 39.16 39.16 0 0 0-11.05 1.49 93.28 93.28 0 0 0-10.28 3.46c-3 1.17-5.87 2.44-8.75 3.76l-1.41-.91a50.88 50.88 0 0 1-4.15-3 36.31 36.31 0 0 1-3.64-3.49 43.6 43.6 0 0 1-5.86-8.27c-3.23-6-5.26-12.61-4.55-19.21a39.3 39.3 0 0 1 2.07-9.76 31.82 31.82 0 0 1 4.72-8.64c4-5.25 9.66-9 15.64-12.08a76.58 76.58 0 0 1 38.43-8.17 72.67 72.67 0 0 1 19 3.38l1 .36a.3.3 0 0 0 0 .08 37 37 0 0 0-2.28 18 21.57 21.57 0 0 0 3.28 9 16.09 16.09 0 0 0 7.48 6.49 11.21 11.21 0 0 0 5.24.7 13 13 0 0 0 5-1.73c.43-.23.68-.43 1-.65s.7-.5 1.05-.77a15.65 15.65 0 0 0 1.89-1.76 12.2 12.2 0 0 0 2.15-3.27 65 65 0 0 0-.05 27.16h-.14s.05.21.17.63.27 1.06.44 1.87a37.38 37.38 0 0 1 .82 7.35 31.21 31.21 0 0 1-2.06 11.74zm64.63 26.42a61.41 61.41 0 1 1 61.4-61.41 61.47 61.47 0 0 1-61.4 61.42zm142.7-10a123 123 0 0 1-26.58 6.05 68.81 68.81 0 0 1-23.68-1.6c-1.78-.47-3.52-1-5.17-1.53-.83-.26-1.66-.58-2.48-.91l-1.22-.47-.31-.12-.27-.11-.57-.25a38.88 38.88 0 0 1-8.22-4.81 29.79 29.79 0 0 1-9.57-12.63 31.41 31.41 0 0 1-2.08-11.63 37.38 37.38 0 0 1 .82-7.35c.17-.81.33-1.44.45-1.87s.16-.63.16-.63h-.13a65.43 65.43 0 0 0-.05-27.16 11.93 11.93 0 0 0 2.14 3.27 15.65 15.65 0 0 0 1.89 1.76c.35.27.64.5 1.05.77s.59.42 1 .65a13 13 0 0 0 5 1.73 11.2 11.2 0 0 0 5.24-.7 16.09 16.09 0 0 0 7.48-6.49 21.57 21.57 0 0 0 3.28-9 36.9 36.9 0 0 0-2.28-18v-.08l1-.36a72.67 72.67 0 0 1 19-3.38 76.58 76.58 0 0 1 38.43 8.17c6 3 11.63 6.83 15.64 12.08a31.82 31.82 0 0 1 4.72 8.64 39.3 39.3 0 0 1 2.07 9.76c.71 6.6-1.32 13.26-4.54 19.21a43.65 43.65 0 0 1-5.85 8.22 37.31 37.31 0 0 1-3.63 3.49c-1.22 1-2.74 2-4.16 3l-1.41.91c-2.88-1.32-5.78-2.59-8.74-3.76a93.45 93.45 0 0 0-10.29-3.46 39.16 39.16 0 0 0-11.05-1.49 17.76 17.76 0 0 0-5.81 1.09 12.91 12.91 0 0 0-5.09 3.46 7.43 7.43 0 0 0-.54.66l-.4.54c-.17.27-.33.55-.49.82s-.24.56-.36.84a6 6 0 0 0-.08 3.8 7.83 7.83 0 0 0 1.83 3 13.59 13.59 0 0 0 2.4 2 23.81 23.81 0 0 0 5.21 2.47 28.55 28.55 0 0 0 5.56 1.34 22.19 22.19 0 0 0 2.87.14h2.76a44.31 44.31 0 0 0 5.53-.6 48.33 48.33 0 0 0 16.92-6.59c2.95 1.38 5.88 2.82 8.79 4.28 2.67 1.35 5.32 2.73 8 4.11-8.41 3.03-16.41 6.14-24.19 8.69zm124.62 7a23.11 23.11 0 0 1-13.22 12.13c-.36.13-.76.28-1.08.38s-.8.25-1.13.32a19.66 19.66 0 0 1-2.26.43 27.3 27.3 0 0 1-4.71.19 49.42 49.42 0 0 1-9.64-1.46A122.18 122.18 0 0 1 490 291c-12.49-5.44-24.7-12-37-18.61l-4.21-2.23 5-1.76c2.58-.93 5.16-1.92 7.75-2.92 5.19-2 10.43-4.09 15.81-6a160.46 160.46 0 0 1 16.6-5.06 74.94 74.94 0 0 1 17.51-2.22 39.68 39.68 0 0 1 17.26 3.8 34.11 34.11 0 0 1 3.88 2.26l.47.32.19.13.23.18 1 .71c.6.49 1.1.94 1.65 1.44a22.54 22.54 0 0 1 5.1 7.2 21.56 21.56 0 0 1-.19 17.46z" fill="#003980" stroke="#003980" stroke-miterlimit="10" stroke-width="2"/></symbol><symbol id="professionals" viewBox="0 0 99.3 89.1"><path d="M31.16 43.64H11a10 10 0 0 0-10 10v26.27h40.3v-26.2a10.2 10.2 0 0 0-10.14-10.07z" fill="#fff"/><path d="M41.3 80.91H1a1 1 0 0 1-1-1v-26.2a11 11 0 0 1 11-11.07h20.17A11.24 11.24 0 0 1 42.3 53.7v26.21a1 1 0 0 1-1 1zm-39.3-2h38.3v-25.2a9.23 9.23 0 0 0-9.14-9.07H11a9 9 0 0 0-9 9z" fill="#c9d5e4"/><circle cx="21.08" cy="29.26" r="11.26" fill="#fff"/><path d="M21.08 41.52a12.26 12.26 0 1 1 12.26-12.26 12.27 12.27 0 0 1-12.26 12.26zm0-22.52a10.26 10.26 0 1 0 10.26 10.26A10.27 10.27 0 0 0 21.08 19z" fill="#c9d5e4"/><path d="M88.16 43.64H68a10 10 0 0 0-10 10v26.27h40.3v-26.2a10.2 10.2 0 0 0-10.14-10.07z" fill="#fff"/><path d="M98.3 80.91H58a1 1 0 0 1-1-1v-26.2a11 11 0 0 1 11-11.07h20.17A11.24 11.24 0 0 1 99.3 53.7v26.21a1 1 0 0 1-1 1zm-39.3-2h38.3v-25.2a9.23 9.23 0 0 0-9.14-9.07H68a9 9 0 0 0-9 9z" fill="#c9d5e4"/><circle cx="78.08" cy="29.26" r="11.26" fill="#fff"/><path d="M78.08 41.52a12.26 12.26 0 1 1 12.26-12.26 12.27 12.27 0 0 1-12.26 12.26zm0-22.52a10.26 10.26 0 1 0 10.26 10.26A10.27 10.27 0 0 0 78.08 19z" fill="#c9d5e4"/><path d="M78 88.1V52.4a14.66 14.66 0 0 0-14.6-14.5h-29A14.43 14.43 0 0 0 20 52.36V88.1m23.4-47.4h11.1l1 1.7-3.7 5h-5.7l-3.8-5zM48.8 87l-7-7.3 4.1-31h5.7l4.4 31z" fill="#fff"/><path d="M78 89.1a1 1 0 0 1-1-1V52.4a13.71 13.71 0 0 0-13.6-13.5h-29A13.42 13.42 0 0 0 21 52.36V88.1a1 1 0 0 1-2 0V52.4a15.43 15.43 0 0 1 15.4-15.5h29A15.72 15.72 0 0 1 79 52.39V88.1a1 1 0 0 1-1 1zM48.8 88a1 1 0 0 1-.71-.31l-7-7.3a1 1 0 0 1-.27-.82l4.1-31a1 1 0 0 1 .34-.63L41.5 43a1 1 0 0 1 0-1.14l1.1-1.7a1 1 0 0 1 .84-.46H54.5a1 1 0 0 1 .86.49l1 1.7A1 1 0 0 1 56.3 43l-3.7 5a.85.85 0 0 1-.16.17.88.88 0 0 1 .15.39l4.4 31a1 1 0 0 1-.28.84l-7.2 7.3a1 1 0 0 1-.71.3zm-5.95-8.65l6 6.22 6.13-6.22-4.25-29.65h-3.95zM46.6 46.4h4.7l3-4.06-.37-.64h-10l-.42.65zM48.9 34.4a17.2 17.2 0 1 1 17.2-17.2 17.22 17.22 0 0 1-17.2 17.2zm0-32.4a15.2 15.2 0 1 0 15.2 15.2A15.22 15.22 0 0 0 48.9 2z" fill="#c9d5e4"/></symbol><symbol id="support-man" viewBox="0 0 76.37 96.39"><path d="M5.85 47.27A5.88 5.88 0 0 1 0 41.42V28.48a5.85 5.85 0 0 1 11.7 0v12.94a5.88 5.88 0 0 1-5.85 5.85zm0-22.64A3.86 3.86 0 0 0 2 28.48v12.94a3.85 3.85 0 0 0 7.7 0V28.48a3.86 3.86 0 0 0-3.85-3.85zM70.52 47.27a5.85 5.85 0 0 1-5.85-5.85V28.48a5.86 5.86 0 0 1 5.85-5.85 5.86 5.86 0 0 1 5.85 5.85v12.94a5.88 5.88 0 0 1-5.85 5.85zm0-22.64a3.86 3.86 0 0 0-3.85 3.85v12.94a3.85 3.85 0 0 0 7.7 0V28.48a3.86 3.86 0 0 0-3.85-3.85z" fill="#c5d6e5"/><path d="M6.76 24.15a1 1 0 0 1-.29 0 1 1 0 0 1-.67-1.25C10.06 8.76 22.46 0 38.18 0S66.3 8.76 70.57 22.86a1 1 0 1 1-1.92.58C64.65 10.22 53 2 38.18 2S11.71 10.21 7.72 23.44a1 1 0 0 1-.96.71zM63.82 53.73a1 1 0 0 1 0-2A4 4 0 0 0 67.05 50a4.49 4.49 0 0 0 .83-3.28 1 1 0 0 1 2-.28 6.44 6.44 0 0 1-1.18 4.73 6 6 0 0 1-4.85 2.53z" fill="#c5d6e5"/><path d="M47.84 61.82A5.85 5.85 0 0 1 42 56v-3.27a5.88 5.88 0 0 1 5.85-5.85h9.7a5.85 5.85 0 0 1 5.85 5.85V56a5.88 5.88 0 0 1-5.81 5.82h-9.75zm0-12.94A3.86 3.86 0 0 0 44 52.73V56a3.85 3.85 0 0 0 3.85 3.82h9.73A3.86 3.86 0 0 0 61.4 56v-3.27a3.86 3.86 0 0 0-3.85-3.85z" fill="#c5d6e5"/><path d="M38.18 61.82A26.87 26.87 0 1 1 65.05 35v.93c0 5.24 0 8.7-3.41 13.24a1 1 0 0 1-1.6-1.2c3-4 3-7 3-12V35a24.87 24.87 0 1 0-24.86 24.82 10.53 10.53 0 0 0 4.21-.74c.36-.12.77-.26 1.24-.4a1 1 0 0 1 .6 1.9L43 61a12.43 12.43 0 0 1-4.82.82zm5-3.82a1 1 0 0 1-1-.74 6.1 6.1 0 0 1-.18-1.21v-3.32a5.88 5.88 0 0 1 5.85-5.85h8.85a1 1 0 0 1 0 2h-8.85A3.86 3.86 0 0 0 44 52.73V56a3.73 3.73 0 0 0 .13.74 1 1 0 0 1-.71 1.26 1.15 1.15 0 0 1-.26 0zM2.62 96.39a1 1 0 0 1-1-1V82.82a19.82 19.82 0 0 1 19.77-19.77H55a19.82 19.82 0 0 1 19.75 19.77v12.56a1 1 0 0 1-2 0V82.82A17.82 17.82 0 0 0 55 65.05H21.39A17.81 17.81 0 0 0 3.62 82.82v12.57a1 1 0 0 1-1 1z" fill="#c5d6e5"/><path d="M18.78 96.38a1 1 0 0 1-1-1V85.07a1 1 0 0 1 2 0v10.31a1 1 0 0 1-1 1zM59.2 96.38a1 1 0 0 1-1-1V85.07a1 1 0 0 1 2 0v10.31a1 1 0 0 1-1 1z" fill="#c5d6e5"/></symbol><symbol id="support" viewBox="0 0 92.49 94.26"><path d="M78.1 94.26a1 1 0 0 1-1-1l.13-10.9a2.31 2.31 0 0 0-2.23-2.3l-20.17-.23a2.27 2.27 0 0 0-2.26 2.25l-.13 11.13a1 1 0 0 1-2 0l.13-11.13a4.29 4.29 0 0 1 4.27-4.23l20.16.21a4.28 4.28 0 0 1 4.22 4.31l-.13 10.9a1 1 0 0 1-.99.99zM74 76.71l-17.82-.19a1 1 0 0 1-.71-.31 1 1 0 0 1-.28-.71l.2-8.86a6.57 6.57 0 0 1 1.91-4.56l5.59-5.6a6.75 6.75 0 0 1 3.53-1.84l3.35-.58h.12a.6.6 0 0 0 .2-.14l8.49-8.49a3.49 3.49 0 0 1 4-.51l2.07-7.66-.24-7.5A5.6 5.6 0 0 1 89.76 24a2.12 2.12 0 0 1 1.58.62 2 2 0 0 1 .66 1.3l.49 15.25v.13l-.11 1a.92.92 0 0 1 0 .16l-1 9.3a12.62 12.62 0 0 1-3.6 7.6l-9.44 9.44A12 12 0 0 0 75 75.44v.27a1 1 0 0 1-.3.71 1 1 0 0 1-.7.29zm-16.8-2.18l15.9.17a14.05 14.05 0 0 1 3.81-7.28L86.35 58a10.54 10.54 0 0 0 3-6.39l1-9.22a1.55 1.55 0 0 1 0-.22l.1-1L90 26a.32.32 0 0 0-.17-.07 3.61 3.61 0 0 0-3.46 3.71l.24 7.91a1.36 1.36 0 0 1 0 .29l-2.45 8.76a3.45 3.45 0 0 1-.65 3.59L73.71 60a1 1 0 0 1-1.42-1.42L82 48.86A1.45 1.45 0 0 0 82 47a1.46 1.46 0 0 0-2-.11l-8.5 8.42a2.68 2.68 0 0 1-.87.57 2.74 2.74 0 0 1-.51.15l-3.36.58a4.74 4.74 0 0 0-2.47 1.29l-5.58 5.59a4.61 4.61 0 0 0-1.33 3.18zm35.18-32.17zm0-.09z" fill="#c9d5e4"/><path d="M74.24 87.74a3.85 3.85 0 1 1 3.85-3.85 3.86 3.86 0 0 1-3.85 3.85zm0-5.7a1.85 1.85 0 1 0 1.85 1.85A1.85 1.85 0 0 0 74.24 82zM41.08 94.21a1 1 0 0 1-1-1l-.14-11.13a2.3 2.3 0 0 0-2.3-2.23l-20.13.22a2.27 2.27 0 0 0-2.24 2.29l.13 10.82a1 1 0 1 1-2 0l-.13-10.82a4.26 4.26 0 0 1 4.21-4.31l20.14-.22h.05a4.29 4.29 0 0 1 4.27 4.2l.14 11.14a1 1 0 0 1-1 1zM18.5 76.69a1 1 0 0 1-.7-.29 1 1 0 0 1-.3-.71v-.28a11.91 11.91 0 0 0-3.37-6.63l-9.41-9.42a12.68 12.68 0 0 1-3.61-7.61l-1-9.29a.92.92 0 0 1 0-.16l-.1-1a.71.71 0 0 1 0-.14L.48 26a2.15 2.15 0 0 1 2.18-2.1 5.63 5.63 0 0 1 5.43 5.77l-.24 7.53v.23l2.08 7.44a3.42 3.42 0 0 1 3.93.48l8.53 8.52a.51.51 0 0 0 .18.13.58.58 0 0 0 .16 0l3.31.58a6.67 6.67 0 0 1 3.54 1.84L35.17 62a6.6 6.6 0 0 1 1.95 4.57l.2 8.86a1 1 0 0 1-.28.72 1 1 0 0 1-.71.3l-17.82.19zM2.11 42.33l1 9.21a10.61 10.61 0 0 0 3 6.4l9.41 9.42a14 14 0 0 1 3.85 7.32l15.9-.17-.18-7.85a4.57 4.57 0 0 0-1.37-3.19l-5.59-5.58a4.61 4.61 0 0 0-2.47-1.3l-3.3-.59a3.13 3.13 0 0 1-.54-.17 2.44 2.44 0 0 1-.86-.57l-8.48-8.46a1.45 1.45 0 0 0-1.9 0 1.46 1.46 0 0 0-.11 2.05l9.72 9.71A1 1 0 0 1 18.77 60L9 50.26a3.5 3.5 0 0 1-.67-3.63.14.14 0 0 1 0-.06l-2.44-8.73a1.15 1.15 0 0 1 0-.33v-.34l.24-7.56a3.62 3.62 0 0 0-3.52-3.71.16.16 0 0 0-.09.05L2 41.16l.1 1a.74.74 0 0 1 .01.17zm-2 0z" fill="#c9d5e4"/><path d="M18.27 87.74a3.85 3.85 0 1 1 3.85-3.85 3.86 3.86 0 0 1-3.85 3.85zm0-5.7a1.85 1.85 0 1 0 1.85 1.85A1.85 1.85 0 0 0 18.27 82zM46.26 36.76a9.81 9.81 0 0 1-7-16.71 9.73 9.73 0 0 1 6.93-2.91 9.81 9.81 0 1 1 0 19.62zm0-17.62A7.84 7.84 0 0 0 38.45 27a7.82 7.82 0 0 0 7.81 7.76 7.81 7.81 0 1 0 0-15.62z" fill="#c9d5e4"/><path d="M43.6 53.9a4.77 4.77 0 0 1-4.76-4.68v-2.83a20.75 20.75 0 0 1-5.71-3.3l-2.39 1.4a4.74 4.74 0 0 1-2.37.64A4.62 4.62 0 0 1 27.1 45a4.75 4.75 0 0 1-2.83-2.27l-2.63-4.55a4.75 4.75 0 0 1 1.74-6.48l2.44-1.41a20.87 20.87 0 0 1 0-6.6l-2.44-1.41a4.76 4.76 0 0 1-1.74-6.48l2.64-4.57a4.76 4.76 0 0 1 6.48-1.74l2.4 1.41a20.66 20.66 0 0 1 5.72-3.3V4.74A4.76 4.76 0 0 1 43.62 0h5.27a4.76 4.76 0 0 1 4.74 4.74v2.82a20.66 20.66 0 0 1 5.72 3.3l2.39-1.4a4.76 4.76 0 0 1 6.5 1.73l2.63 4.56a4.76 4.76 0 0 1-1.74 6.49l-2.39 1.4a21 21 0 0 1 0 6.62l2.4 1.41a4.75 4.75 0 0 1 1.73 6.47l-2.61 4.57a4.74 4.74 0 0 1-2.88 2.21 4.34 4.34 0 0 1-1.27.16 4.79 4.79 0 0 1-2.36-.63L59.35 43a20.66 20.66 0 0 1-5.72 3.3v2.81a4.77 4.77 0 0 1-4.74 4.75H43.6zm-10.37-13a1 1 0 0 1 .66.25 18.71 18.71 0 0 0 6.28 3.62 1 1 0 0 1 .67.95v3.48a2.78 2.78 0 0 0 2.77 2.7h5.28a2.75 2.75 0 0 0 2.74-2.75v-3.51a1 1 0 0 1 .68-1 18.71 18.71 0 0 0 6.28-3.62 1 1 0 0 1 1.17-.02l3 1.76a2.9 2.9 0 0 0 1.39.36 2.82 2.82 0 0 0 .71-.09 2.75 2.75 0 0 0 1.66-1.28l2.61-4.57a2.73 2.73 0 0 0-1-3.74l-3-1.77a1 1 0 0 1-.47-1.05 18.87 18.87 0 0 0 0-7.26 1 1 0 0 1 .47-1.05l3-1.76a2.75 2.75 0 0 0 1-3.75l-2.63-4.61a2.74 2.74 0 0 0-3.75-1l-3 1.75a1 1 0 0 1-1.17-.11 18.71 18.71 0 0 0-6.28-3.62 1 1 0 0 1-.68-1V4.74A2.74 2.74 0 0 0 48.89 2h-5.27a2.74 2.74 0 0 0-2.74 2.74v3.52a1 1 0 0 1-.68 1 18.71 18.71 0 0 0-6.28 3.62 1 1 0 0 1-1.17.11l-3-1.76a2.73 2.73 0 0 0-3.73 1l-2.64 4.57a2.73 2.73 0 0 0 1 3.74l3.05 1.76a1 1 0 0 1 .48 1.06 18.87 18.87 0 0 0 0 7.26 1 1 0 0 1-.48 1.06l-3.05 1.72a2.72 2.72 0 0 0-1 3.74L26 41.71A2.75 2.75 0 0 0 27.65 43a2.43 2.43 0 0 0 .71.09 2.71 2.71 0 0 0 1.37-.37l3-1.75a1.06 1.06 0 0 1 .5-.1z" fill="#c9d5e4"/></symbol></svg>