<svg id="svg" version="1.1" width="400" height="299.84544049459043" viewBox="0 0 400 299.84544049459043" xmlns="http://www.w3.org/2000/svg" xmlns:xlink="http://www.w3.org/1999/xlink" ><g id="svgg"><path id="path0" d="M106.578 8.471 L 105.697 9.445 106.672 8.565 C 107.580 7.744,107.784 7.496,107.552 7.496 C 107.501 7.496,107.062 7.935,106.578 8.471 M216.328 14.468 L 215.142 15.742 216.417 14.557 C 217.602 13.455,217.829 13.193,217.602 13.193 C 217.553 13.193,216.980 13.767,216.328 14.468 M167.747 100.225 L 166.867 101.199 167.841 100.319 C 168.377 99.834,168.816 99.396,168.816 99.344 C 168.816 99.113,168.568 99.317,167.747 100.225 M180.641 101.724 L 179.760 102.699 180.735 101.818 C 181.271 101.334,181.709 100.895,181.709 100.843 C 181.709 100.612,181.462 100.816,180.641 101.724 M138.962 129.610 L 138.081 130.585 139.055 129.704 C 139.591 129.220,140.030 128.781,140.030 128.730 C 140.030 128.498,139.783 128.702,138.962 129.610 M256.359 131.109 C 257.095 131.893,257.735 132.534,257.784 132.534 C 258.009 132.534,257.771 132.265,256.447 131.022 L 255.022 129.685 256.359 131.109 M233.719 201.274 L 232.534 202.549 233.808 201.363 C 234.993 200.261,235.220 200.000,234.993 200.000 C 234.944 200.000,234.371 200.573,233.719 201.274 M228.022 227.961 L 226.837 229.235 228.111 228.050 C 228.812 227.398,229.385 226.825,229.385 226.776 C 229.385 226.549,229.124 226.776,228.022 227.961 M98.764 242.279 C 98.764 244.175,98.813 244.951,98.872 244.003 C 98.932 243.055,98.932 241.503,98.872 240.555 C 98.813 239.606,98.764 240.382,98.764 242.279 M280.024 248.941 C 280.162 249.774,280.205 249.816,280.299 249.216 C 280.360 248.826,280.287 248.383,280.136 248.232 C 279.970 248.066,279.926 248.345,280.024 248.941 M226.987 253.767 C 226.987 253.819,227.425 254.257,227.961 254.742 L 228.936 255.622 228.055 254.648 C 227.234 253.739,226.987 253.535,226.987 253.767 M356.297 260.477 C 356.585 260.552,357.058 260.552,357.346 260.477 C 357.635 260.401,357.399 260.339,356.822 260.339 C 356.244 260.339,356.008 260.401,356.297 260.477 M125.137 270.090 C 165.514 270.132,231.496 270.132,271.764 270.090 C 312.031 270.048,278.996 270.014,198.351 270.014 C 117.706 270.014,84.760 270.048,125.137 270.090 M68.486 287.706 C 68.486 290.180,68.533 291.152,68.589 289.866 C 68.645 288.581,68.645 286.557,68.588 285.369 C 68.531 284.180,68.485 285.232,68.486 287.706 M95.283 288.973 C 95.822 289.040,96.631 289.038,97.082 288.970 C 97.532 288.901,97.091 288.847,96.102 288.849 C 95.112 288.850,94.744 288.906,95.283 288.973 M315.222 288.971 C 315.677 289.040,316.352 289.038,316.721 288.967 C 317.090 288.896,316.717 288.839,315.892 288.841 C 315.067 288.844,314.766 288.902,315.222 288.971 M132.764 289.273 C 133.303 289.340,134.113 289.338,134.563 289.270 C 135.014 289.201,134.573 289.147,133.583 289.148 C 132.594 289.150,132.225 289.206,132.764 289.273 M160.945 290.477 C 161.975 290.535,163.662 290.535,164.693 290.477 C 165.723 290.418,164.880 290.370,162.819 290.370 C 160.757 290.370,159.914 290.418,160.945 290.477 M263.505 290.477 C 264.542 290.536,266.161 290.535,267.103 290.476 C 268.045 290.417,267.196 290.369,265.217 290.369 C 263.238 290.370,262.468 290.418,263.505 290.477 M118.216 291.061 C 118.504 291.137,118.977 291.137,119.265 291.061 C 119.554 290.986,119.318 290.924,118.741 290.924 C 118.163 290.924,117.927 290.986,118.216 291.061 M190.480 294.903 C 190.484 295.562,190.545 295.797,190.617 295.424 C 190.689 295.051,190.686 294.511,190.611 294.224 C 190.536 293.938,190.477 294.243,190.480 294.903 " stroke="none" fill="#000000" fill-rule="evenodd"></path><path id="path1" d="M174.243 151.286 L 171.814 153.247 171.814 173.025 L 171.814 192.804 176.912 192.804 L 182.009 192.804 182.008 172.939 L 182.008 153.073 179.636 151.199 C 176.753 148.921,177.181 148.914,174.243 151.286 M220.120 151.286 L 217.691 153.247 217.691 173.025 L 217.691 192.804 222.939 192.804 L 228.186 192.804 228.186 173.062 L 228.186 153.320 225.665 151.323 C 222.613 148.904,223.067 148.907,220.120 151.286 M188.306 153.223 L 188.306 155.322 189.805 155.322 L 191.304 155.322 191.304 154.143 C 191.304 153.218,191.437 152.922,191.918 152.769 C 192.790 152.492,193.403 153.129,193.403 154.310 C 193.403 155.310,193.420 155.322,194.753 155.322 C 196.045 155.322,196.102 155.285,196.102 154.444 C 196.102 153.540,196.762 152.624,197.413 152.624 C 198.061 152.624,198.501 153.315,198.501 154.333 C 198.501 156.081,200.970 155.836,201.367 154.049 C 201.820 152.004,203.598 152.212,203.598 154.310 C 203.598 155.310,203.615 155.322,204.948 155.322 C 206.240 155.322,206.297 155.285,206.297 154.444 C 206.297 153.540,206.957 152.624,207.608 152.624 C 208.256 152.624,208.696 153.315,208.696 154.333 C 208.696 155.306,208.718 155.322,210.045 155.322 L 211.394 155.322 211.394 153.223 L 211.394 151.124 199.850 151.124 L 188.306 151.124 188.306 153.223 M178.111 157.739 L 178.111 158.957 176.987 158.864 C 175.097 158.707,175.158 156.522,177.052 156.522 C 178.090 156.522,178.111 156.546,178.111 157.739 M223.932 157.815 L 224.027 158.959 222.883 158.865 C 221.704 158.768,221.279 158.063,221.713 156.931 C 222.117 155.880,223.829 156.563,223.932 157.815 M187.406 175.259 L 187.406 190.105 190.365 190.105 L 193.325 190.105 193.465 187.031 C 193.704 181.802,195.867 179.294,200.120 179.317 C 204.048 179.338,206.297 182.225,206.297 187.247 L 206.297 190.105 209.448 190.105 L 212.599 190.105 212.522 175.337 L 212.444 160.570 199.925 160.491 L 187.406 160.413 187.406 175.259 M178.111 163.137 L 178.111 164.354 176.987 164.261 C 175.097 164.105,175.158 161.919,177.052 161.919 C 178.090 161.919,178.111 161.943,178.111 163.137 M194.903 164.618 L 194.903 167.316 192.354 167.316 L 189.805 167.316 189.805 164.618 L 189.805 161.919 192.354 161.919 L 194.903 161.919 194.903 164.618 M202.549 164.618 L 202.549 167.166 199.925 167.253 L 197.301 167.340 197.301 164.618 L 197.301 161.896 199.925 161.982 L 202.549 162.069 202.549 164.618 M210.045 164.618 L 210.045 167.166 207.421 167.253 L 204.798 167.340 204.798 164.618 L 204.798 161.896 207.421 161.982 L 210.045 162.069 210.045 164.618 M223.988 163.118 C 223.988 164.291,223.965 164.318,222.929 164.318 C 221.753 164.318,221.414 163.858,221.713 162.668 C 222.076 161.221,223.988 161.599,223.988 163.118 M178.111 168.684 C 178.111 170.266,175.921 170.179,175.768 168.591 C 175.676 167.636,175.699 167.616,176.893 167.616 C 178.089 167.616,178.111 167.635,178.111 168.684 M223.988 168.684 C 223.988 170.266,221.798 170.179,221.645 168.591 C 221.553 167.636,221.576 167.616,222.770 167.616 C 223.966 167.616,223.988 167.635,223.988 168.684 M194.903 171.964 L 194.903 174.513 192.354 174.513 L 189.805 174.513 189.805 171.964 L 189.805 169.415 192.354 169.415 L 194.903 169.415 194.903 171.964 M202.636 171.889 L 202.549 174.363 199.925 174.449 L 197.301 174.536 197.301 171.976 L 197.301 169.415 200.012 169.415 L 202.723 169.415 202.636 171.889 M210.132 171.889 L 210.045 174.363 207.421 174.449 L 204.798 174.536 204.798 171.976 L 204.798 169.415 207.508 169.415 L 210.219 169.415 210.132 171.889 M178.111 173.931 L 178.111 175.149 176.987 175.056 C 175.097 174.899,175.158 172.714,177.052 172.714 C 178.090 172.714,178.111 172.738,178.111 173.931 M223.988 173.913 C 223.988 175.079,223.960 175.112,222.959 175.112 C 221.838 175.112,221.382 174.440,221.739 173.313 C 222.150 172.018,223.988 172.508,223.988 173.913 M178.055 179.385 C 177.969 180.281,177.876 180.360,176.912 180.360 C 175.947 180.360,175.854 180.281,175.768 179.385 C 175.676 178.428,175.696 178.411,176.912 178.411 C 178.127 178.411,178.147 178.428,178.055 179.385 M223.932 179.385 C 223.846 180.281,223.753 180.360,222.789 180.360 C 221.824 180.360,221.732 180.281,221.645 179.385 C 221.553 178.428,221.573 178.411,222.789 178.411 C 224.004 178.411,224.024 178.428,223.932 179.385 M178.111 184.726 L 178.111 185.943 176.987 185.850 C 175.097 185.694,175.158 183.508,177.052 183.508 C 178.090 183.508,178.111 183.532,178.111 184.726 M223.931 184.783 C 224.022 185.885,224.004 185.907,222.977 185.907 C 221.831 185.907,221.379 185.241,221.745 184.091 C 222.127 182.885,223.818 183.420,223.931 184.783 " stroke="none" fill="#ffffff" fill-rule="evenodd"></path><path id="path2" d="M124.779 0.303 C 111.670 2.141,101.457 10.734,98.229 22.639 C 97.151 26.616,97.671 34.880,99.230 38.531 C 103.652 48.892,111.626 55.445,124.138 59.001 C 124.715 59.165,126.117 59.654,127.253 60.087 C 129.910 61.099,135.507 62.680,149.325 66.320 C 168.321 71.323,176.705 80.968,172.479 92.954 C 166.910 108.748,142.040 112.605,124.544 100.387 C 123.530 99.680,121.424 98.193,119.863 97.083 C 113.178 92.331,105.910 88.392,101.949 87.373 C 96.482 85.967,87.193 87.550,89.138 89.556 C 91.048 91.526,100.746 109.328,100.749 110.870 C 100.750 111.374,101.609 111.340,102.658 110.793 C 103.130 110.546,103.744 110.345,104.022 110.345 C 104.300 110.345,104.656 110.224,104.813 110.077 C 106.811 108.199,116.489 108.426,122.789 110.499 C 157.593 121.952,186.258 109.665,188.667 82.261 C 189.802 69.342,185.663 58.385,177.211 51.937 C 174.074 49.544,171.001 47.717,167.316 46.055 C 165.146 45.076,156.201 42.315,151.724 41.243 C 149.168 40.630,145.862 39.803,144.378 39.405 C 142.894 39.007,140.522 38.412,139.109 38.083 C 123.637 34.480,117.014 29.831,116.435 22.168 C 115.366 7.992,131.782 2.218,147.445 11.261 C 149.000 12.159,150.327 12.894,150.394 12.894 C 150.461 12.894,152.104 14.009,154.044 15.372 C 164.572 22.768,169.798 24.869,176.781 24.512 C 182.209 24.235,183.590 22.596,180.507 20.090 C 180.101 19.760,173.282 9.572,171.775 7.044 C 170.889 5.559,169.936 4.021,169.656 3.627 L 169.148 2.911 167.707 3.528 C 163.228 5.446,156.875 5.189,146.652 2.677 C 137.826 0.508,136.306 0.256,131.334 0.142 C 128.778 0.084,125.828 0.156,124.779 0.303 M243.928 0.309 C 236.878 1.390,226.740 5.458,223.683 8.432 C 223.438 8.670,222.361 9.532,221.289 10.349 C 210.045 18.911,201.502 34.447,199.997 49.067 C 199.812 50.858,199.552 52.750,199.418 53.270 C 197.530 60.600,201.933 78.169,207.677 86.226 C 212.012 92.305,214.360 95.043,217.636 97.833 C 219.035 99.025,220.598 100.381,221.110 100.847 C 222.931 102.506,227.801 105.509,231.959 107.536 C 242.868 112.856,246.782 113.768,258.771 113.783 C 268.468 113.795,270.640 113.470,281.937 110.318 C 288.992 108.350,295.873 108.236,299.515 110.028 C 301.327 110.920,302.945 111.548,303.081 111.412 C 303.221 111.272,302.109 98.972,301.345 92.204 C 301.196 90.885,301.003 89.063,300.915 88.156 C 300.726 86.203,300.598 85.106,300.095 81.109 C 299.687 77.874,299.603 73.160,299.931 71.990 C 300.896 68.555,302.429 65.810,304.458 63.884 C 305.057 63.316,305.547 62.742,305.547 62.610 C 305.547 62.477,296.473 62.366,285.382 62.363 C 261.020 62.356,259.731 62.219,257.160 59.374 C 254.549 56.483,255.072 50.165,258.034 48.815 C 258.940 48.402,259.302 48.685,258.738 49.364 C 257.014 51.442,259.155 56.084,262.232 56.939 C 270.775 59.310,273.100 46.160,264.814 42.337 C 255.306 37.950,245.581 46.664,247.645 57.721 C 249.239 66.254,255.584 69.565,270.341 69.565 C 274.367 69.565,277.661 69.615,277.661 69.676 C 277.661 69.738,277.856 71.728,278.095 74.099 C 278.334 76.471,278.601 79.220,278.688 80.210 C 278.872 82.287,279.088 84.373,279.338 86.507 C 279.732 89.862,280.629 99.784,280.644 100.948 C 280.697 105.143,263.091 106.113,254.310 102.398 C 228.190 91.349,212.849 47.914,226.112 22.562 C 230.003 15.123,237.281 9.321,244.265 8.090 C 254.582 6.271,263.383 9.861,273.313 19.939 C 277.748 24.439,282.932 27.798,287.706 29.266 C 288.696 29.570,289.573 29.890,289.655 29.977 C 289.738 30.064,290.007 30.181,290.255 30.238 C 290.502 30.295,290.975 30.413,291.304 30.501 C 293.526 31.089,300.444 30.737,301.499 29.982 C 301.664 29.864,302.170 29.679,302.624 29.571 C 303.749 29.302,303.703 29.179,301.647 26.972 C 297.911 22.962,292.154 13.089,290.551 7.946 C 290.345 7.286,290.077 6.612,289.956 6.447 C 289.834 6.282,289.498 5.405,289.208 4.498 C 288.445 2.106,288.517 2.117,284.937 3.846 C 279.057 6.686,274.957 6.486,264.468 2.848 C 257.607 0.469,249.455 -0.539,243.928 0.309 M194.603 117.682 C 194.355 117.740,193.167 117.948,191.961 118.144 C 187.769 118.828,180.792 121.248,176.713 123.433 L 174.866 124.423 174.550 123.517 C 173.756 121.238,171.829 119.899,167.731 118.778 C 165.945 118.290,159.029 118.347,157.311 118.864 C 155.509 119.406,155.552 119.393,155.022 119.550 C 148.185 121.577,139.937 127.402,136.738 132.464 L 136.009 133.618 134.046 133.070 C 117.209 128.366,97.025 131.774,84.108 141.501 C 69.217 152.715,68.807 173.671,83.217 187.030 L 85.761 189.388 80.355 192.031 C 74.101 195.090,75.129 195.038,68.613 192.626 C 66.086 191.690,63.073 190.578,61.919 190.155 C 60.765 189.732,59.775 189.277,59.720 189.146 C 59.665 189.014,59.424 188.906,59.183 188.906 C 58.943 188.906,58.226 188.640,57.589 188.315 C 52.305 185.619,37.000 181.600,30.228 181.129 C 13.789 179.987,1.989 187.267,0.272 199.612 C -0.399 204.437,1.478 211.716,4.059 214.296 C 4.275 214.513,4.698 214.996,4.999 215.370 C 5.795 216.358,8.366 218.385,9.670 219.052 C 10.289 219.368,10.795 219.713,10.795 219.818 C 10.795 221.419,20.152 222.648,25.487 221.749 C 31.993 220.653,47.209 214.982,53.823 211.188 C 54.483 210.809,57.586 209.199,60.720 207.609 C 63.853 206.019,67.997 203.859,69.927 202.809 C 71.858 201.759,73.579 200.900,73.750 200.900 C 73.922 200.900,74.063 200.798,74.063 200.673 C 74.063 200.021,75.886 199.643,76.846 200.095 C 81.714 202.388,101.363 208.677,106.112 209.463 C 106.708 209.561,107.399 209.720,107.646 209.815 C 107.894 209.910,108.433 210.036,108.846 210.096 C 109.258 210.155,110.202 210.334,110.945 210.493 C 112.886 210.910,120.193 211.424,121.759 211.254 C 122.490 211.175,124.044 211.042,125.212 210.960 C 126.380 210.877,127.999 210.672,128.810 210.503 C 129.621 210.334,130.555 210.148,130.885 210.091 C 131.214 210.033,131.687 209.914,131.934 209.827 C 132.181 209.741,133.626 209.315,135.144 208.882 C 146.270 205.707,153.831 198.989,155.855 190.482 C 156.431 188.063,156.540 187.948,157.135 189.130 C 167.029 208.785,191.263 218.937,213.738 212.841 C 224.809 209.839,236.806 200.326,242.313 190.183 C 243.347 188.279,243.778 187.883,243.778 188.839 C 243.778 189.755,245.289 194.089,246.101 195.502 C 250.492 203.143,257.704 207.507,270.667 210.367 C 272.992 210.880,279.949 211.455,281.468 211.260 C 282.095 211.179,283.814 211.034,285.288 210.938 C 286.761 210.841,288.043 210.716,288.136 210.660 C 288.229 210.605,288.913 210.477,289.655 210.377 C 291.057 210.187,291.405 210.116,293.403 209.612 C 294.063 209.446,296.559 208.825,298.951 208.232 C 304.605 206.831,314.609 203.546,320.390 201.191 C 320.885 200.990,321.593 200.707,321.964 200.562 C 322.335 200.418,322.978 200.141,323.392 199.947 C 324.023 199.652,324.330 199.695,325.267 200.210 C 329.976 202.798,334.493 205.154,344.228 210.099 C 366.082 221.199,378.751 224.350,387.221 220.793 C 388.230 220.369,389.123 219.926,389.205 219.808 C 389.288 219.690,390.088 219.199,390.984 218.717 C 402.104 212.736,402.842 194.466,392.278 186.711 C 381.521 178.815,366.087 179.134,343.928 187.711 C 343.021 188.062,341.874 188.497,341.379 188.677 C 340.885 188.857,340.412 189.091,340.330 189.197 C 340.131 189.453,328.214 193.877,326.456 194.348 L 325.082 194.715 319.738 192.041 L 314.393 189.367 317.841 185.902 C 326.826 176.871,329.509 165.691,325.490 154.031 C 319.525 136.730,291.457 126.659,266.642 132.917 C 265.116 133.301,263.868 133.489,263.868 133.334 C 263.868 132.809,260.529 129.101,257.917 126.725 C 254.195 123.340,252.140 122.207,244.528 119.340 C 238.143 116.935,227.694 118.867,225.901 122.784 L 225.186 124.345 222.387 122.967 C 220.848 122.209,218.318 121.135,216.766 120.580 C 215.213 120.026,213.673 119.452,213.343 119.306 C 210.782 118.172,197.448 117.016,194.603 117.682 M208.427 123.215 C 231.949 127.892,247.613 150.993,243.056 174.288 L 242.485 177.211 236.834 177.211 L 231.184 177.211 231.184 164.583 L 231.184 151.955 229.910 150.790 C 229.209 150.149,228.535 149.625,228.411 149.625 C 228.287 149.625,228.186 147.881,228.186 145.749 C 228.186 141.406,228.566 142.515,224.908 136.190 C 223.221 133.272,222.365 133.228,220.870 135.982 C 220.333 136.972,219.330 138.706,218.642 139.836 L 217.391 141.890 217.391 145.647 L 217.391 149.403 216.042 150.659 C 214.749 151.864,214.693 151.987,214.693 153.619 C 214.693 154.933,214.590 155.322,214.243 155.322 C 213.874 155.322,213.793 154.796,213.793 152.384 C 213.793 148.358,215.195 148.726,199.850 148.726 C 184.506 148.726,185.907 148.358,185.907 152.384 C 185.907 154.796,185.826 155.322,185.457 155.322 C 185.104 155.322,185.007 154.910,185.007 153.409 C 185.007 151.506,185.001 151.491,183.658 150.391 L 182.309 149.285 182.309 145.474 C 182.309 142.499,182.206 141.515,181.839 140.992 C 181.581 140.623,181.206 140.020,181.007 139.651 C 177.379 132.946,176.853 132.671,174.731 136.357 C 171.243 142.418,171.514 141.620,171.514 145.819 L 171.514 149.585 170.165 150.691 L 168.816 151.796 168.816 164.504 L 168.816 177.211 163.261 177.211 L 157.706 177.211 157.426 176.474 C 156.102 172.992,155.922 162.621,157.093 157.271 C 162.245 133.736,185.095 118.577,208.427 123.215 M158.021 123.737 C 158.021 126.733,160.721 130.478,163.624 131.509 L 165.162 132.055 163.596 133.869 C 161.991 135.727,158.921 139.883,158.921 140.195 C 158.921 140.291,158.598 140.799,158.204 141.324 C 157.346 142.466,155.550 146.031,155.041 147.601 C 154.599 148.963,154.391 149.001,153.868 147.818 C 153.306 146.549,151.509 143.987,150.530 143.058 C 150.079 142.629,148.847 141.457,147.793 140.452 C 145.646 138.405,143.506 136.838,141.384 135.760 L 139.958 135.035 140.966 133.859 C 146.021 127.962,152.679 123.654,157.796 122.969 C 157.920 122.952,158.021 123.298,158.021 123.737 M244.868 123.726 C 249.765 125.362,252.703 127.274,256.897 131.556 C 260.527 135.263,260.439 134.927,258.098 136.146 C 253.929 138.315,246.853 145.300,246.037 148.051 C 245.831 148.746,245.277 148.990,245.277 148.386 C 245.277 146.443,239.241 136.720,235.804 133.127 L 234.794 132.071 236.337 131.523 C 239.345 130.454,241.979 126.912,241.979 123.935 C 241.979 122.737,241.921 122.742,244.868 123.726 M126.523 136.011 C 131.005 136.682,134.108 137.603,133.881 138.194 C 132.104 142.803,132.200 150.718,134.089 155.268 C 137.180 162.712,145.940 165.572,150.993 160.787 L 151.611 160.202 151.594 165.483 C 151.578 170.678,151.921 174.158,152.841 178.111 C 157.461 197.977,136.551 211.218,108.846 205.971 C 102.985 204.861,91.934 201.516,86.207 199.120 C 85.052 198.636,83.468 197.996,82.685 197.696 C 80.781 196.967,80.780 196.968,85.870 194.496 L 90.315 192.336 93.208 193.751 C 108.353 201.154,128.021 195.489,122.170 185.409 C 118.553 179.179,107.183 179.441,92.420 186.093 C 90.447 186.982,90.894 187.081,88.333 185.187 C 85.952 183.427,83.838 181.149,82.098 178.471 C 81.488 177.531,80.859 176.612,80.702 176.429 C 77.424 172.624,76.354 163.385,78.430 156.822 C 82.988 142.415,105.181 132.811,126.523 136.011 M290.466 136.009 C 303.660 137.921,315.733 144.944,320.061 153.223 C 325.697 164.005,321.817 178.254,311.286 185.450 L 309.244 186.845 307.171 185.888 C 297.755 181.543,287.441 179.734,282.818 181.616 C 276.902 184.024,275.098 189.070,278.821 192.793 C 284.483 198.455,296.491 198.814,307.131 193.639 C 310.051 192.218,309.407 192.124,314.678 194.743 L 319.161 196.971 317.727 197.586 C 316.938 197.924,316.163 198.201,316.005 198.201 C 315.846 198.201,314.879 198.590,313.856 199.066 C 311.707 200.064,301.340 203.524,297.151 204.640 C 284.086 208.121,273.233 208.017,262.917 204.312 C 250.266 199.769,244.779 190.260,247.349 177.328 C 248.266 172.709,248.668 167.876,248.463 163.927 L 248.279 160.388 249.552 161.175 C 255.806 165.045,262.140 162.923,265.681 155.772 C 267.826 151.440,268.033 143.157,266.119 138.194 C 265.967 137.797,266.366 137.591,268.273 137.083 C 275.096 135.266,282.777 134.895,290.466 136.009 M179.765 151.022 L 182.313 153.018 182.236 172.986 L 182.159 192.954 176.912 192.954 L 171.664 192.954 171.587 172.983 L 171.510 153.013 174.127 151.019 C 177.285 148.614,176.691 148.613,179.765 151.022 M225.669 150.991 L 228.186 152.956 228.186 173.030 L 228.186 193.103 222.939 193.103 L 217.691 193.103 217.691 173.039 L 217.691 152.975 220.165 151.002 C 223.157 148.615,222.628 148.616,225.669 150.991 M211.694 153.223 L 211.694 155.622 210.045 155.622 L 208.396 155.622 208.396 154.455 C 208.396 153.653,208.243 153.229,207.908 153.100 C 207.170 152.817,206.597 153.477,206.597 154.609 L 206.597 155.622 204.948 155.622 L 203.298 155.622 203.298 154.455 C 203.298 153.653,203.145 153.229,202.811 153.100 C 202.069 152.816,201.499 153.479,201.499 154.625 L 201.499 155.654 199.925 155.563 L 198.351 155.472 198.259 154.374 C 198.096 152.414,196.402 152.629,196.402 154.609 L 196.402 155.622 194.753 155.622 L 193.103 155.622 193.103 154.455 C 193.103 153.653,192.951 153.229,192.616 153.100 C 191.878 152.817,191.304 153.477,191.304 154.609 L 191.304 155.622 189.805 155.622 L 188.306 155.622 188.306 153.223 L 188.306 150.825 200.000 150.825 L 211.694 150.825 211.694 153.223 M176.012 157.721 C 176.012 158.521,176.112 158.621,176.912 158.621 C 177.711 158.621,177.811 158.521,177.811 157.721 C 177.811 156.922,177.711 156.822,176.912 156.822 C 176.112 156.822,176.012 156.922,176.012 157.721 M221.944 157.646 C 222.094 158.953,223.688 159.039,223.688 157.741 C 223.688 156.915,223.595 156.822,222.769 156.822 C 221.943 156.822,221.859 156.905,221.944 157.646 M212.744 175.262 L 212.744 190.255 209.370 190.340 L 205.997 190.424 205.995 187.641 C 205.991 180.835,201.813 177.541,196.803 180.393 C 194.703 181.589,194.178 182.792,194.003 186.807 L 193.853 190.255 190.480 190.340 L 187.106 190.424 187.106 175.269 L 187.106 160.114 199.925 160.192 L 212.744 160.270 212.744 175.262 M176.212 162.419 C 175.601 163.029,176.034 164.018,176.912 164.018 C 177.711 164.018,177.811 163.918,177.811 163.118 C 177.811 162.241,176.822 161.808,176.212 162.419 M189.805 164.618 L 189.805 167.016 192.204 167.016 L 194.603 167.016 194.603 164.618 L 194.603 162.219 192.204 162.219 L 189.805 162.219 189.805 164.618 M197.601 164.605 L 197.601 167.016 200.013 167.016 L 202.424 167.016 202.336 164.693 L 202.249 162.369 199.925 162.281 L 197.601 162.194 197.601 164.605 M205.097 164.618 L 205.097 167.016 207.496 167.016 L 209.895 167.016 209.895 164.618 L 209.895 162.219 207.496 162.219 L 205.097 162.219 205.097 164.618 M222.089 162.419 C 221.478 163.029,221.911 164.018,222.789 164.018 C 223.588 164.018,223.688 163.918,223.688 163.118 C 223.688 162.241,222.699 161.808,222.089 162.419 M176.012 168.516 C 176.012 169.315,176.112 169.415,176.912 169.415 C 177.711 169.415,177.811 169.315,177.811 168.516 C 177.811 167.716,177.711 167.616,176.912 167.616 C 176.112 167.616,176.012 167.716,176.012 168.516 M221.944 168.441 C 222.094 169.747,223.688 169.834,223.688 168.536 C 223.688 167.710,223.595 167.616,222.769 167.616 C 221.943 167.616,221.859 167.700,221.944 168.441 M189.805 171.814 L 189.805 174.213 192.204 174.213 L 194.603 174.213 194.603 171.814 L 194.603 169.415 192.204 169.415 L 189.805 169.415 189.805 171.814 M197.601 171.814 L 197.601 174.213 200.000 174.213 L 202.399 174.213 202.399 171.814 L 202.399 169.415 200.000 169.415 L 197.601 169.415 197.601 171.814 M205.097 171.814 L 205.097 174.213 207.496 174.213 L 209.895 174.213 209.895 171.814 L 209.895 169.415 207.496 169.415 L 205.097 169.415 205.097 171.814 M176.067 173.838 C 176.217 175.144,177.811 175.231,177.811 173.933 C 177.811 173.107,177.718 173.013,176.892 173.013 C 176.065 173.013,175.982 173.097,176.067 173.838 M221.997 173.463 C 221.710 174.211,222.126 174.813,222.929 174.813 C 223.573 174.813,223.688 174.676,223.688 173.913 C 223.688 172.915,222.345 172.557,221.997 173.463 M176.012 179.310 C 176.012 180.110,176.112 180.210,176.912 180.210 C 177.711 180.210,177.811 180.110,177.811 179.310 C 177.811 178.511,177.711 178.411,176.912 178.411 C 176.112 178.411,176.012 178.511,176.012 179.310 M221.889 179.310 C 221.889 180.110,221.989 180.210,222.789 180.210 C 223.588 180.210,223.688 180.110,223.688 179.310 C 223.688 178.511,223.588 178.411,222.789 178.411 C 221.989 178.411,221.889 178.511,221.889 179.310 M168.816 188.156 C 168.816 193.896,168.873 194.660,169.340 195.127 C 170.049 195.836,229.846 195.940,230.697 195.234 C 231.120 194.883,231.184 193.961,231.184 188.269 L 231.184 181.709 236.121 181.709 L 241.058 181.709 240.484 183.049 C 235.098 195.613,221.985 206.540,209.490 208.874 C 208.971 208.971,208.411 209.076,208.246 209.106 C 208.081 209.137,207.803 209.252,207.628 209.362 C 206.290 210.199,194.102 210.151,192.517 209.302 C 192.262 209.166,191.951 209.052,191.824 209.048 C 190.545 209.010,184.785 207.193,182.009 205.952 C 172.658 201.771,164.354 193.476,159.990 183.958 C 159.688 183.298,159.319 182.522,159.170 182.234 C 158.918 181.744,159.232 181.709,163.858 181.709 L 168.816 181.709 168.816 188.156 M176.066 184.783 C 176.217 185.843,177.811 185.930,177.811 184.877 C 177.811 184.218,177.679 184.108,176.891 184.108 C 176.108 184.108,175.985 184.209,176.066 184.783 M221.943 184.783 C 222.094 185.843,223.688 185.930,223.688 184.877 C 223.688 184.218,223.556 184.108,222.768 184.108 C 221.985 184.108,221.862 184.209,221.943 184.783 M33.433 185.762 C 38.046 186.457,47.497 188.910,49.175 189.848 C 49.423 189.986,52.391 191.126,55.772 192.381 C 63.197 195.137,68.656 197.149,69.265 197.356 C 69.551 197.452,69.113 197.811,68.066 198.338 C 67.159 198.795,66.214 199.339,65.967 199.547 C 65.330 200.083,47.319 209.148,43.176 211.017 C 23.527 219.885,11.015 219.183,6.201 208.943 C -0.459 194.776,13.633 182.781,33.433 185.762 M380.942 186.177 C 395.015 189.925,400.184 204.080,390.728 212.975 C 381.966 221.216,366.461 217.545,334.241 199.601 L 330.401 197.463 331.692 197.044 C 332.402 196.813,335.885 195.513,339.430 194.154 C 342.976 192.795,346.754 191.381,347.826 191.010 C 348.898 190.639,350.180 190.161,350.675 189.947 C 359.725 186.037,373.820 184.281,380.942 186.177 M78.884 221.663 C 77.989 221.968,75.931 222.444,74.311 222.721 C 70.971 223.291,70.956 223.306,72.489 224.710 L 73.613 225.741 73.699 240.531 C 73.795 256.994,73.866 256.019,72.413 258.131 L 71.354 259.670 77.387 259.670 L 83.420 259.670 82.506 258.629 C 81.008 256.923,80.980 256.543,80.964 238.413 C 80.957 229.089,80.851 221.381,80.730 221.284 C 80.609 221.188,79.778 221.358,78.884 221.663 M161.484 222.104 C 160.503 222.515,158.682 223.057,157.436 223.307 C 154.652 223.867,154.755 223.755,155.867 225.021 C 157.166 226.500,157.162 226.443,157.062 242.429 C 156.986 254.573,156.902 256.927,156.525 257.496 C 155.135 259.594,154.395 256.983,153.423 246.553 C 152.590 237.619,152.307 236.348,150.884 235.152 C 145.602 230.709,136.003 232.834,133.714 238.952 C 132.606 241.912,133.512 242.962,135.150 240.614 C 136.669 238.437,140.694 237.323,142.907 238.468 C 144.924 239.511,144.833 239.666,141.015 241.683 C 133.841 245.473,131.634 248.116,131.634 252.919 C 131.634 258.804,139.763 262.810,145.557 259.781 C 146.510 259.283,147.093 259.121,147.164 259.334 C 147.299 259.739,166.417 259.820,166.417 259.416 C 166.417 259.277,166.133 258.838,165.785 258.442 C 164.417 256.880,163.991 249.835,165.199 248.743 C 165.763 248.232,165.810 248.276,166.840 250.322 C 167.423 251.480,168.198 252.944,168.562 253.575 C 170.604 257.116,170.631 257.259,169.521 258.577 L 168.728 259.520 180.062 259.599 C 192.589 259.686,192.075 259.744,190.795 258.391 C 189.013 256.509,189.063 256.896,188.962 244.153 C 188.910 237.680,188.775 232.385,188.662 232.387 C 188.548 232.389,187.268 232.789,185.816 233.276 C 182.522 234.381,181.109 234.663,181.109 234.216 C 181.109 233.982,179.151 233.883,174.513 233.883 C 167.644 233.883,167.340 233.944,168.811 235.031 C 171.664 237.141,171.151 239.347,166.794 243.708 L 164.618 245.887 164.618 233.588 L 164.618 221.289 163.943 221.323 C 163.572 221.342,162.466 221.694,161.484 222.104 M183.124 222.422 C 180.226 224.217,181.053 230.129,184.229 230.323 C 186.773 230.478,188.201 229.795,189.044 228.018 C 190.853 224.206,186.653 220.235,183.124 222.422 M48.343 223.679 C 39.726 226.780,39.487 237.746,47.952 241.647 C 49.110 242.181,52.646 243.354,55.810 244.254 C 64.146 246.625,66.267 248.094,66.267 251.495 C 66.267 257.992,57.418 259.978,50.044 255.136 C 44.613 251.570,42.919 250.919,40.337 251.403 C 38.809 251.690,38.777 252.139,40.136 254.241 C 40.791 255.255,41.638 256.834,42.018 257.752 C 42.681 259.350,42.747 259.412,43.619 259.234 C 46.780 258.591,50.972 258.952,52.324 259.985 C 53.303 260.733,59.715 261.041,61.956 260.448 C 65.220 259.585,70.165 256.272,70.165 254.949 C 70.165 254.742,70.289 254.573,70.441 254.573 C 71.096 254.573,71.814 251.406,71.800 248.576 C 71.765 241.615,68.372 238.569,57.652 235.875 C 50.616 234.106,48.380 232.899,48.229 230.787 C 47.805 224.857,53.740 223.975,61.019 228.885 C 64.765 231.412,68.198 232.321,69.242 231.063 C 69.950 230.209,65.725 223.958,64.618 224.223 C 63.048 224.598,59.902 224.382,57.371 223.725 C 54.219 222.906,50.544 222.887,48.343 223.679 M235.163 223.529 C 227.754 225.969,222.789 233.478,222.789 242.242 C 222.789 249.592,227.637 256.181,235.188 259.093 C 239.678 260.824,243.241 260.973,248.163 259.635 C 251.441 258.744,253.300 258.648,256.018 259.231 C 257.011 259.444,257.012 259.442,256.849 258.433 C 255.567 250.520,255.724 245.184,257.267 244.231 C 258.678 243.358,257.523 243.178,250.510 243.178 C 241.932 243.178,240.620 242.726,241.661 240.130 L 241.941 239.430 241.960 240.208 C 242.029 243.052,246.027 242.482,246.027 239.629 C 246.027 236.008,241.534 235.018,239.272 238.141 C 236.480 241.994,239.400 245.823,245.352 246.114 C 248.257 246.256,248.276 246.262,248.314 247.042 C 248.335 247.473,248.383 248.096,248.421 248.426 C 248.458 248.756,248.587 250.105,248.706 251.424 C 248.825 252.744,248.986 254.390,249.062 255.082 L 249.202 256.342 247.925 256.685 C 242.018 258.276,235.846 254.495,232.536 247.259 C 225.814 232.563,235.713 219.563,246.213 229.299 C 249.955 232.768,252.965 234.039,255.699 233.303 C 257.250 232.886,257.248 232.947,255.767 231.027 C 254.687 229.628,252.474 225.130,252.474 224.335 C 252.474 223.717,251.912 223.701,250.630 224.282 C 248.896 225.069,247.851 225.037,245.064 224.113 C 242.186 223.158,237.186 222.863,235.163 223.529 M356.372 228.675 C 354.815 230.850,351.649 233.828,349.524 235.114 C 347.423 236.386,347.416 236.582,349.475 236.582 L 351.124 236.582 351.124 246.471 C 351.124 257.963,351.175 258.248,353.466 259.591 C 356.535 261.389,361.492 259.676,362.343 256.522 C 362.658 255.357,362.087 255.030,361.062 255.788 C 358.514 257.672,358.025 255.944,358.023 245.067 L 358.021 236.610 359.895 236.521 L 361.769 236.432 361.861 235.157 L 361.954 233.883 359.987 233.883 L 358.021 233.883 358.021 230.435 C 358.021 226.471,357.981 226.427,356.372 228.675 M289.355 232.971 C 288.778 233.281,286.855 233.982,285.082 234.530 C 281.723 235.568,281.438 235.814,282.500 236.760 C 284.715 238.734,284.676 258.321,282.458 258.321 C 281.741 258.321,280.723 255.283,280.497 252.471 C 280.385 251.071,280.238 249.832,280.170 249.719 C 280.103 249.606,279.787 246.794,279.467 243.470 C 278.785 236.384,278.437 235.464,275.928 234.098 C 270.762 231.286,262.974 233.214,260.767 237.851 C 259.096 241.361,259.512 242.928,261.535 240.744 C 263.870 238.224,267.162 237.288,269.479 238.486 C 271.471 239.516,271.367 239.723,268.015 241.399 C 260.886 244.962,258.077 248.127,258.047 252.624 C 258.007 258.750,265.840 262.763,272.114 259.830 C 273.016 259.409,273.727 259.237,273.898 259.400 C 274.055 259.549,278.487 259.670,283.774 259.670 L 293.366 259.670 292.536 258.804 C 291.371 257.588,291.169 256.351,291.163 250.375 C 291.154 241.960,292.537 239.770,296.748 241.529 C 302.339 243.865,305.505 236.391,300.000 233.850 C 297.391 232.646,294.127 233.617,292.322 236.134 L 291.304 237.553 291.218 234.968 C 291.122 232.126,291.059 232.058,289.355 232.971 M331.649 233.007 C 330.751 233.326,328.828 233.815,327.377 234.093 C 324.360 234.671,324.421 234.584,325.712 236.492 L 326.687 237.931 326.687 246.777 C 326.687 255.028,326.646 255.702,326.087 256.805 C 324.575 259.789,324.005 258.028,322.917 247.011 C 322.431 242.080,321.847 237.603,321.621 237.062 C 319.075 230.967,306.728 231.621,303.553 238.020 C 302.065 241.018,302.764 243.346,304.407 240.863 C 306.393 237.862,311.646 237.024,313.613 239.394 C 313.935 239.781,313.711 239.988,312.092 240.801 C 303.272 245.232,300.602 248.349,301.142 253.583 C 301.723 259.214,309.312 262.623,314.930 259.776 C 315.917 259.276,316.507 259.117,316.579 259.333 C 316.659 259.573,319.491 259.670,326.417 259.670 L 336.142 259.670 335.087 258.137 L 334.033 256.604 334.033 248.363 C 334.033 240.499,334.061 240.083,334.656 239.247 C 335.935 237.452,337.943 237.005,339.339 238.205 L 340.180 238.928 340.277 247.125 C 340.376 255.468,340.153 258.047,339.267 258.781 C 339.031 258.978,338.911 259.258,339.002 259.404 C 339.181 259.695,349.025 259.781,349.025 259.492 C 349.025 259.393,348.776 258.955,348.472 258.517 C 347.325 256.870,347.226 255.919,347.226 246.572 C 347.226 236.820,347.147 236.216,345.687 234.872 C 343.190 232.573,338.696 232.564,335.307 234.851 L 334.033 235.711 334.033 234.047 C 334.033 232.157,334.039 232.159,331.649 233.007 M200.601 233.017 C 197.394 233.568,194.771 235.439,193.421 238.140 C 191.800 241.384,192.378 242.991,194.339 240.696 C 196.478 238.194,199.746 237.322,202.303 238.571 C 204.172 239.484,203.935 239.865,200.380 241.658 C 193.177 245.291,190.800 248.228,191.051 253.186 C 191.344 258.991,199.193 262.779,204.826 259.834 C 205.835 259.306,206.464 259.122,206.535 259.334 C 206.650 259.681,216.192 259.845,216.192 259.500 C 216.192 259.407,215.733 258.897,215.172 258.368 C 213.811 257.084,213.670 256.406,212.767 246.777 C 212.342 242.241,211.834 238.014,211.638 237.383 C 210.649 234.190,205.538 232.168,200.601 233.017 M91.535 233.556 C 83.001 236.705,80.365 249.754,86.861 256.699 C 94.290 264.641,106.566 259.213,107.266 247.676 C 107.861 237.872,99.696 230.544,91.535 233.556 M104.048 234.077 C 104.048 234.183,104.663 234.928,105.415 235.732 C 106.167 236.536,106.991 237.697,107.245 238.312 C 107.924 239.951,109.128 242.617,109.578 243.478 C 109.966 244.220,111.082 246.886,114.410 255.022 C 116.728 260.688,117.182 261.556,117.720 261.350 C 117.962 261.257,118.999 260.963,120.025 260.696 C 121.050 260.429,122.159 260.137,122.489 260.048 C 122.819 259.958,123.799 259.824,124.667 259.750 L 126.246 259.614 124.742 257.969 C 122.931 255.987,122.945 256.463,124.556 251.712 C 127.444 243.193,129.464 238.733,131.682 235.981 C 132.480 234.990,133.133 234.113,133.133 234.031 C 133.133 233.950,130.705 233.883,127.736 233.883 C 124.768 233.883,122.339 233.938,122.339 234.005 C 122.339 234.073,122.679 234.784,123.096 235.587 C 124.705 238.688,124.606 242.408,122.753 248.522 C 122.170 250.446,121.643 252.070,121.582 252.131 C 121.345 252.368,117.503 243.505,115.851 238.909 C 115.077 236.756,115.215 235.842,116.472 234.799 C 117.450 233.988,116.768 233.883,110.495 233.883 C 106.949 233.883,104.048 233.970,104.048 234.077 M97.172 235.892 C 98.802 236.855,98.927 237.671,98.861 246.940 C 98.796 256.031,98.760 256.240,97.039 257.640 C 95.366 258.999,92.428 257.568,91.946 255.158 C 91.436 252.607,91.751 238.566,92.348 237.251 C 93.185 235.407,95.328 234.803,97.172 235.892 M181.484 237.207 C 182.201 238.609,182.283 255.571,181.579 256.933 C 180.309 259.390,179.500 258.514,174.992 249.799 C 170.874 241.839,171.060 243.162,173.688 240.567 C 178.920 235.402,180.264 234.823,181.484 237.207 M146.137 249.790 L 146.808 256.136 146.193 256.531 C 142.224 259.083,137.993 253.058,140.290 248.126 C 141.263 246.037,145.078 242.280,145.362 243.132 C 145.419 243.304,145.768 246.300,146.137 249.790 M205.400 249.383 C 206.163 256.579,206.170 256.521,204.493 256.973 C 202.286 257.567,199.889 255.824,199.092 253.045 C 198.107 249.609,199.930 245.844,203.734 243.457 C 204.834 242.767,204.616 241.991,205.400 249.383 M272.729 249.543 C 273.476 256.563,273.488 256.480,271.614 256.985 C 267.083 258.205,264.450 251.086,267.691 246.377 C 268.466 245.251,271.623 242.738,271.907 243.021 C 271.986 243.100,272.356 246.035,272.729 249.543 M315.689 250.778 L 316.234 256.129 315.487 256.618 C 310.059 260.174,306.694 249.986,311.733 245.257 C 315.017 242.175,314.778 241.842,315.689 250.778 M51.574 268.590 L 51.574 270.015 198.426 269.941 L 345.277 269.866 345.277 268.591 L 345.277 267.316 198.426 267.241 L 51.574 267.166 51.574 268.590 M66.020 281.024 C 66.090 281.513,66.368 281.748,67.008 281.859 C 68.521 282.119,68.705 282.896,68.597 288.546 C 68.493 293.975,68.492 293.979,66.792 294.348 C 66.174 294.483,65.967 294.706,65.967 295.240 C 65.967 295.950,65.978 295.952,69.565 295.952 C 73.117 295.952,73.163 295.943,73.163 295.264 C 73.163 294.748,72.921 294.505,72.193 294.290 C 70.693 293.846,70.472 293.057,70.483 288.156 L 70.492 283.808 71.524 286.507 C 72.092 287.991,73.049 290.656,73.651 292.429 C 75.381 297.525,76.746 296.938,78.712 290.255 C 78.833 289.843,79.234 288.831,79.603 288.006 C 79.973 287.181,80.559 285.832,80.907 285.007 L 81.540 283.508 81.549 288.509 C 81.560 293.916,81.413 294.453,79.921 294.453 C 79.226 294.453,78.708 295.163,79.027 295.679 C 79.120 295.829,81.144 295.952,83.526 295.952 L 87.856 295.952 87.856 295.202 C 87.856 294.613,87.704 294.453,87.143 294.453 C 85.829 294.453,85.739 293.996,85.825 287.820 L 85.907 282.014 86.807 281.860 C 87.455 281.748,87.733 281.515,87.803 281.023 C 87.900 280.342,87.897 280.341,84.238 280.425 L 80.575 280.510 80.191 281.709 C 79.325 284.416,77.086 289.466,76.936 289.050 C 76.848 288.806,76.115 286.784,75.308 284.558 L 73.840 280.510 69.881 280.426 L 65.923 280.342 66.020 281.024 M117.456 284.742 C 117.326 284.872,116.753 284.947,116.181 284.909 L 115.142 284.839 115.142 286.947 C 115.142 289.588,115.817 289.854,117.074 287.709 C 118.541 285.206,121.077 285.676,120.411 288.327 C 120.270 288.892,119.968 289.092,119.035 289.241 C 117.512 289.485,117.205 290.855,118.674 290.855 C 120.621 290.855,121.514 292.717,120.228 294.096 C 119.065 295.345,117.928 294.992,117.962 293.392 C 117.995 291.830,117.631 291.466,116.027 291.459 C 113.375 291.447,113.495 294.788,116.183 295.815 C 119.115 296.934,124.130 295.875,125.007 293.951 C 125.777 292.260,124.566 289.972,122.887 289.943 C 122.272 289.933,122.302 289.882,123.140 289.518 C 124.965 288.724,125.287 286.487,123.742 285.337 C 122.857 284.679,117.978 284.217,117.456 284.742 M144.365 284.979 C 141.626 286.172,141.742 289.055,144.528 289.055 C 146.047 289.055,146.740 288.371,146.530 287.078 C 146.342 285.915,146.852 285.588,147.808 286.258 C 148.781 286.939,148.584 288.863,147.526 289.009 C 147.114 289.066,146.642 289.217,146.477 289.344 C 146.312 289.472,145.484 289.802,144.638 290.078 C 142.550 290.759,141.979 291.453,141.979 293.311 C 141.979 295.969,145.092 297.275,147.676 295.702 C 148.547 295.172,148.604 295.172,149.475 295.702 C 150.457 296.299,152.439 296.421,153.654 295.959 C 154.560 295.615,154.737 294.453,153.883 294.453 C 152.812 294.453,152.624 293.840,152.624 290.359 C 152.624 286.536,152.358 285.684,150.963 285.022 C 149.744 284.443,145.655 284.417,144.365 284.979 M157.841 285.129 C 153.876 286.930,153.733 293.640,157.619 295.514 C 160.321 296.816,164.401 296.259,165.991 294.370 C 167.393 292.703,166.151 291.736,164.485 293.198 C 162.318 295.100,159.220 293.802,159.220 290.990 L 159.220 290.255 162.861 290.255 L 166.501 290.255 166.327 288.569 C 165.963 285.040,161.775 283.343,157.841 285.129 M228.036 284.812 C 222.799 286.515,222.967 294.547,228.270 295.975 C 234.030 297.526,238.601 293.259,236.747 288.061 C 235.733 285.219,231.566 283.665,228.036 284.812 M260.342 285.053 C 256.073 287.158,255.900 293.418,260.054 295.488 C 262.631 296.772,266.145 296.417,267.987 294.686 C 268.555 294.152,268.666 294.128,268.666 294.539 C 268.666 295.384,269.888 296.252,271.077 296.252 C 273.550 296.252,275.562 292.393,275.562 287.651 C 275.562 286.413,275.601 286.357,276.462 286.357 L 277.361 286.357 277.361 290.405 L 277.361 294.453 276.612 294.453 C 276.010 294.453,275.862 294.602,275.862 295.212 L 275.862 295.970 279.535 295.886 C 282.972 295.808,283.208 295.764,283.208 295.207 C 283.208 294.849,282.969 294.565,282.609 294.497 C 281.672 294.319,281.569 293.922,281.564 290.460 C 281.559 287.013,281.821 286.057,282.769 286.057 C 283.158 286.057,283.358 285.853,283.358 285.457 C 283.358 284.879,283.158 284.858,277.661 284.858 C 272.262 284.858,271.964 284.887,271.964 285.428 C 271.964 285.798,272.295 286.114,272.904 286.326 L 273.844 286.654 273.694 288.679 C 273.487 291.489,272.762 293.195,272.070 292.503 C 271.698 292.131,271.287 292.049,270.491 292.190 C 269.899 292.295,269.008 292.409,268.509 292.442 C 268.011 292.476,267.279 292.806,266.882 293.175 C 264.829 295.086,261.774 293.834,261.770 291.079 L 261.769 290.255 265.256 290.255 L 268.742 290.255 268.605 288.828 C 268.247 285.101,264.093 283.204,260.342 285.053 M286.807 284.919 C 283.999 285.900,283.798 289.055,286.543 289.055 C 288.204 289.055,288.756 288.612,288.756 287.278 C 288.756 285.947,289.273 285.583,290.220 286.247 C 291.885 287.413,291.133 288.562,287.998 289.643 C 284.464 290.861,283.465 292.336,284.444 294.889 C 284.952 296.212,288.099 296.675,290.000 295.706 C 291.036 295.177,291.093 295.177,291.746 295.706 C 292.429 296.259,294.483 296.436,295.877 296.063 C 296.748 295.829,296.844 294.453,295.989 294.453 C 294.896 294.453,294.692 293.753,294.878 290.644 C 295.095 287.014,294.749 285.830,293.253 285.083 C 292.060 284.487,288.316 284.392,286.807 284.919 M88.756 285.457 C 88.756 285.787,88.948 286.057,89.184 286.057 C 90.286 286.057,90.555 286.902,90.550 290.351 C 90.545 294.032,90.455 294.343,89.355 294.498 C 88.841 294.570,88.606 294.791,88.606 295.202 C 88.606 295.961,96.750 296.266,98.818 295.585 C 101.169 294.810,102.081 292.085,100.483 290.607 C 98.877 289.120,98.713 289.055,96.564 289.055 L 94.453 289.055 94.453 287.850 C 94.453 286.854,94.584 286.584,95.202 286.302 C 97.202 285.391,96.150 284.858,92.354 284.858 C 88.956 284.858,88.756 284.891,88.756 285.457 M100.750 285.425 C 100.750 285.780,101.030 286.062,101.499 286.180 L 102.249 286.368 102.249 290.289 C 102.249 293.957,102.210 294.219,101.649 294.366 C 101.261 294.467,101.049 294.775,101.049 295.237 C 101.049 295.949,101.064 295.952,104.498 295.952 L 107.946 295.952 107.946 295.223 C 107.946 294.696,107.760 294.468,107.271 294.399 C 106.616 294.306,106.594 294.192,106.513 290.338 L 106.429 286.373 107.188 286.182 C 107.665 286.063,107.946 285.781,107.946 285.425 C 107.946 284.900,107.677 284.858,104.348 284.858 C 101.018 284.858,100.750 284.900,100.750 285.425 M125.937 285.457 C 125.937 285.835,126.137 286.057,126.477 286.057 C 127.554 286.057,127.736 286.666,127.732 290.240 C 127.727 293.924,127.630 294.318,126.687 294.497 C 126.326 294.565,126.087 294.849,126.087 295.207 C 126.087 295.762,126.323 295.808,129.610 295.887 L 133.133 295.971 133.133 295.247 C 133.133 294.775,132.925 294.468,132.534 294.366 C 132.024 294.233,131.934 293.957,131.934 292.532 L 131.934 290.855 133.598 290.855 L 135.262 290.855 135.172 292.579 C 135.093 294.106,135.005 294.314,134.408 294.399 C 133.919 294.468,133.733 294.696,133.733 295.223 L 133.733 295.952 137.352 295.952 C 140.929 295.952,140.970 295.944,140.875 295.280 C 140.820 294.892,140.527 294.561,140.180 294.496 C 139.235 294.318,139.140 293.925,139.135 290.154 L 139.130 286.605 140.030 286.265 C 142.263 285.422,141.181 284.858,137.331 284.858 C 133.535 284.858,132.483 285.391,134.483 286.302 C 135.121 286.593,135.232 286.844,135.232 288.000 L 135.232 289.355 133.583 289.355 L 131.934 289.355 131.934 287.876 C 131.934 286.661,132.041 286.363,132.534 286.207 C 132.864 286.102,133.133 285.756,133.133 285.437 C 133.133 284.897,132.892 284.858,129.535 284.858 C 126.137 284.858,125.937 284.891,125.937 285.457 M167.226 285.048 C 166.835 285.439,167.015 285.741,167.916 286.207 L 168.816 286.672 168.816 290.420 C 168.816 294.142,168.810 294.170,168.066 294.453 C 166.241 295.147,167.127 295.952,169.715 295.952 C 172.303 295.952,173.189 295.147,171.364 294.453 C 170.627 294.172,170.615 294.117,170.638 290.937 L 170.662 287.706 172.018 291.695 L 173.374 295.685 174.459 295.593 L 175.544 295.502 176.825 291.781 C 177.530 289.735,178.180 287.987,178.269 287.898 C 178.359 287.808,178.394 289.207,178.347 291.006 C 178.262 294.219,178.247 294.280,177.511 294.452 C 177.037 294.563,176.726 294.871,176.666 295.290 C 176.571 295.943,176.621 295.952,180.360 295.952 C 184.119 295.952,184.149 295.946,184.054 295.277 C 183.992 294.844,183.717 294.568,183.283 294.507 C 182.622 294.413,182.609 294.332,182.609 290.390 L 182.609 286.368 183.358 286.180 C 183.833 286.061,184.108 285.780,184.108 285.415 C 184.108 284.875,183.894 284.843,180.781 284.923 L 177.454 285.007 176.780 287.133 C 175.746 290.399,175.683 290.412,174.812 287.554 L 174.037 285.007 170.736 284.923 C 168.920 284.877,167.341 284.933,167.226 285.048 M197.001 285.386 C 197.001 285.677,197.305 286.048,197.676 286.211 C 198.256 286.465,198.375 286.802,198.520 288.606 C 198.818 292.315,201.567 293.875,204.831 292.187 L 205.733 291.720 205.640 293.011 C 205.563 294.088,205.435 294.319,204.873 294.399 C 204.384 294.468,204.198 294.696,204.198 295.223 L 204.198 295.952 207.796 295.952 L 211.394 295.952 211.394 295.202 C 211.394 294.680,211.230 294.453,210.855 294.453 C 209.773 294.453,209.595 293.846,209.595 290.169 L 209.595 286.605 210.495 286.265 C 211.030 286.063,211.394 285.709,211.394 285.392 C 211.394 284.894,210.899 284.858,204.198 284.858 C 197.524 284.858,197.001 284.896,197.001 285.386 M211.694 286.957 C 211.694 289.351,212.437 289.909,213.329 288.184 C 213.909 287.062,214.621 286.357,215.173 286.357 C 216.024 286.357,215.625 294.277,214.768 294.399 C 214.277 294.468,214.093 294.695,214.093 295.232 L 214.093 295.970 217.766 295.886 C 221.182 295.808,221.439 295.761,221.439 295.216 C 221.439 294.838,221.173 294.567,220.690 294.453 C 219.631 294.204,219.318 286.357,220.366 286.357 C 220.958 286.357,222.489 288.053,222.489 288.709 C 222.489 288.900,222.826 289.055,223.238 289.055 C 223.967 289.055,223.988 288.996,223.988 286.957 L 223.988 284.858 217.841 284.858 L 211.694 284.858 211.694 286.957 M244.978 285.428 C 244.978 285.792,245.303 286.112,245.877 286.312 C 247.530 286.888,245.559 294.453,243.756 294.453 C 243.234 294.453,243.178 294.683,243.178 296.852 C 243.178 299.537,243.892 300.247,244.680 298.345 C 246.094 294.931,253.101 294.825,254.699 298.193 C 255.658 300.214,256.372 299.651,256.372 296.871 C 256.372 294.499,256.370 294.492,255.547 294.398 L 254.723 294.303 254.639 290.477 L 254.555 286.652 255.313 286.306 C 255.731 286.116,256.072 285.713,256.072 285.409 C 256.072 284.893,255.711 284.858,250.525 284.858 C 245.273 284.858,244.978 284.888,244.978 285.428 M296.452 285.057 C 295.813 285.697,296.257 289.055,296.981 289.055 C 297.437 289.055,297.779 288.840,297.893 288.480 C 298.236 287.399,299.281 286.357,300.022 286.357 L 300.750 286.357 300.745 290.030 C 300.740 294.041,300.660 294.342,299.550 294.498 C 299.036 294.570,298.801 294.791,298.801 295.202 C 298.801 295.765,299.029 295.807,302.474 295.886 L 306.147 295.970 306.147 295.232 C 306.147 294.695,305.963 294.468,305.472 294.399 C 304.485 294.258,304.234 286.357,305.217 286.357 C 305.829 286.357,306.890 287.491,307.204 288.480 C 307.705 290.059,308.546 289.104,308.546 286.957 L 308.546 284.858 302.599 284.858 C 299.328 284.858,296.562 284.948,296.452 285.057 M308.846 285.392 C 308.846 285.711,309.211 286.063,309.754 286.268 L 310.663 286.611 310.579 290.444 C 310.495 294.256,310.491 294.278,309.745 294.453 C 309.261 294.567,308.996 294.838,308.996 295.216 C 308.996 296.044,317.230 296.262,319.266 295.487 C 323.601 293.839,321.595 288.946,316.615 289.022 L 314.543 289.053 314.543 288.026 C 314.543 286.960,315.172 286.057,315.913 286.057 C 316.149 286.057,316.342 285.787,316.342 285.457 C 316.342 284.890,316.142 284.858,312.594 284.858 C 309.199 284.858,308.846 284.908,308.846 285.392 M232.089 286.812 C 233.206 288.158,232.639 294.144,231.347 294.639 C 229.607 295.307,228.625 293.652,228.658 290.105 C 228.694 286.233,230.316 284.676,232.089 286.812 M161.548 286.432 C 161.714 286.638,161.944 287.245,162.058 287.781 L 162.267 288.756 160.743 288.756 C 159.358 288.756,159.220 288.694,159.220 288.073 C 159.220 286.581,160.781 285.480,161.548 286.432 M205.117 286.367 C 205.591 286.621,205.697 287.005,205.697 288.466 L 205.697 290.255 204.669 290.255 C 203.287 290.255,202.699 289.595,202.699 288.045 C 202.699 286.210,203.624 285.568,205.117 286.367 M263.830 286.460 C 264.014 286.682,264.249 287.289,264.354 287.810 L 264.543 288.756 263.156 288.756 C 261.985 288.756,261.769 288.665,261.769 288.175 C 261.769 286.456,262.986 285.444,263.830 286.460 M250.608 290.330 L 250.525 294.303 248.511 294.391 L 246.498 294.480 247.219 292.892 C 247.615 292.019,248.112 290.191,248.324 288.831 L 248.708 286.357 249.700 286.357 L 250.692 286.357 250.608 290.330 M96.105 290.970 C 97.331 291.866,96.304 295.099,94.958 294.582 C 94.557 294.429,94.453 293.992,94.453 292.472 C 94.453 290.399,94.842 290.046,96.105 290.970 M148.426 292.043 C 148.426 293.910,147.568 294.627,146.551 293.611 C 145.773 292.832,146.018 291.780,147.139 291.087 C 148.348 290.341,148.426 290.398,148.426 292.043 M290.855 292.006 C 290.855 293.609,290.023 294.400,288.961 293.806 C 287.902 293.213,288.530 291.291,289.955 290.767 C 290.789 290.461,290.855 290.551,290.855 292.006 M316.470 291.026 C 317.645 292.201,316.486 295.172,315.136 294.449 C 314.145 293.919,314.262 290.555,315.271 290.555 C 315.671 290.555,316.211 290.767,316.470 291.026 M323.645 292.165 C 321.924 293.645,322.896 296.252,325.168 296.252 C 327.280 296.252,328.298 293.375,326.646 292.076 C 325.611 291.262,324.662 291.290,323.645 292.165 M186.274 292.221 C 184.757 293.283,185.727 295.952,187.631 295.952 C 188.543 295.952,187.887 297.368,186.525 298.338 C 185.557 299.027,185.572 299.850,186.551 299.850 C 188.225 299.850,190.405 296.925,190.405 294.678 C 190.405 292.385,188.044 290.981,186.274 292.221 " stroke="none" fill="#003980" fill-rule="evenodd"></path><path id="path3" d="M194.078 151.049 C 197.335 151.098,202.665 151.098,205.922 151.049 C 209.179 151.001,206.514 150.961,200.000 150.961 C 193.486 150.961,190.821 151.001,194.078 151.049 M171.849 152.732 C 171.603 153.028,171.531 158.592,171.587 173.047 L 171.664 192.954 176.912 192.954 L 182.159 192.954 182.236 172.977 C 182.308 154.220,182.281 152.976,181.786 152.602 C 181.338 152.262,181.315 152.265,181.634 152.623 C 181.926 152.950,182.009 157.444,182.009 172.924 L 182.009 192.804 176.912 192.804 L 171.814 192.804 171.814 172.924 C 171.814 157.861,171.901 152.956,172.174 152.684 C 172.372 152.486,172.456 152.324,172.361 152.324 C 172.265 152.324,172.035 152.507,171.849 152.732 M193.103 154.573 C 193.103 155.150,193.211 155.622,193.343 155.622 C 193.475 155.622,193.528 155.150,193.460 154.573 C 193.393 153.996,193.285 153.523,193.221 153.523 C 193.156 153.523,193.103 153.996,193.103 154.573 M198.270 154.423 C 198.270 155.000,198.332 155.236,198.408 154.948 C 198.483 154.659,198.483 154.187,198.408 153.898 C 198.332 153.609,198.270 153.846,198.270 154.423 M203.298 154.573 C 203.298 155.150,203.406 155.622,203.538 155.622 C 203.670 155.622,203.722 155.150,203.655 154.573 C 203.588 153.996,203.480 153.523,203.415 153.523 C 203.351 153.523,203.298 153.996,203.298 154.573 M177.881 157.721 C 177.881 158.298,177.942 158.534,178.018 158.246 C 178.093 157.957,178.093 157.485,178.018 157.196 C 177.942 156.908,177.881 157.144,177.881 157.721 M223.758 157.721 C 223.758 158.298,223.819 158.534,223.895 158.246 C 223.970 157.957,223.970 157.485,223.895 157.196 C 223.819 156.908,223.758 157.144,223.758 157.721 M212.733 175.262 C 212.733 183.508,212.771 186.838,212.818 182.663 C 212.865 178.487,212.865 171.740,212.818 167.670 C 212.771 163.600,212.733 167.016,212.733 175.262 M177.881 163.118 C 177.881 163.696,177.942 163.932,178.018 163.643 C 178.093 163.355,178.093 162.882,178.018 162.594 C 177.942 162.305,177.881 162.541,177.881 163.118 M194.662 164.531 L 194.603 166.992 192.129 167.093 L 189.655 167.194 192.138 167.255 C 195.043 167.327,194.973 167.404,194.826 164.290 L 194.722 162.069 194.662 164.531 M197.433 164.768 L 197.451 167.166 199.776 167.187 L 202.101 167.207 199.863 167.099 L 197.625 166.992 197.520 164.680 L 197.415 162.369 197.433 164.768 M223.758 163.118 C 223.758 163.696,223.819 163.932,223.895 163.643 C 223.970 163.355,223.970 162.882,223.895 162.594 C 223.819 162.305,223.758 162.541,223.758 163.118 M204.898 164.618 C 204.898 165.855,204.951 166.361,205.016 165.742 C 205.081 165.124,205.081 164.112,205.016 163.493 C 204.951 162.875,204.898 163.381,204.898 164.618 M206.222 167.236 C 206.923 167.299,208.070 167.299,208.771 167.236 C 209.472 167.173,208.898 167.121,207.496 167.121 C 206.094 167.121,205.521 167.173,206.222 167.236 M177.852 168.421 C 177.818 169.219,177.676 169.396,176.987 169.500 L 176.162 169.625 176.996 169.670 C 177.913 169.720,178.233 169.251,178.026 168.163 C 177.922 167.621,177.884 167.679,177.852 168.421 M223.729 168.475 C 223.691 169.414,223.627 169.474,222.804 169.354 C 222.318 169.282,221.989 169.334,222.073 169.470 C 222.691 170.470,224.145 169.432,223.903 168.163 C 223.805 167.651,223.759 167.733,223.729 168.475 M194.662 171.727 L 194.603 174.189 192.129 174.290 L 189.655 174.391 192.138 174.452 C 195.043 174.523,194.973 174.601,194.826 171.486 L 194.722 169.265 194.662 171.727 M197.433 171.964 L 197.451 174.363 199.850 174.381 L 202.249 174.399 199.937 174.294 L 197.625 174.189 197.520 171.877 L 197.415 169.565 197.433 171.964 M204.929 171.964 L 204.948 174.363 207.346 174.381 L 209.745 174.399 207.433 174.294 L 205.121 174.189 205.016 171.877 L 204.911 169.565 204.929 171.964 M177.119 172.928 C 177.560 173.010,177.815 173.315,177.896 173.856 C 178.005 174.583,178.014 174.574,177.989 173.763 C 177.966 173.019,177.831 172.859,177.211 172.835 C 176.596 172.811,176.579 172.828,177.119 172.928 M222.083 172.942 C 221.994 173.087,222.309 173.148,222.783 173.078 C 223.541 172.967,223.661 173.056,223.770 173.807 L 223.894 174.663 223.866 173.763 C 223.838 172.862,222.511 172.250,222.083 172.942 M177.881 179.310 C 177.881 179.888,177.942 180.124,178.018 179.835 C 178.093 179.546,178.093 179.074,178.018 178.786 C 177.942 178.497,177.881 178.733,177.881 179.310 M223.758 179.310 C 223.758 179.888,223.819 180.124,223.895 179.835 C 223.970 179.546,223.970 179.074,223.895 178.786 C 223.819 178.497,223.758 178.733,223.758 179.310 M176.818 184.024 C 177.587 184.120,177.799 184.302,177.898 184.950 C 178.009 185.680,178.025 185.664,178.066 184.783 C 178.109 183.841,178.073 183.810,176.987 183.856 C 175.906 183.902,175.899 183.909,176.818 184.024 M222.789 183.977 C 224.142 184.231,224.133 185.741,222.779 185.542 C 222.229 185.461,221.979 185.517,222.145 185.683 C 222.773 186.312,223.838 185.792,223.838 184.858 C 223.838 184.058,223.730 183.950,222.864 183.883 C 221.903 183.809,221.902 183.810,222.789 183.977 M193.701 187.168 C 193.620 188.933,193.660 190.270,193.790 190.140 C 193.920 190.009,193.986 188.565,193.938 186.930 L 193.849 183.958 193.701 187.168 M206.107 187.556 C 206.107 189.205,206.158 189.842,206.218 188.970 C 206.279 188.099,206.279 186.750,206.217 185.972 C 206.155 185.194,206.106 185.907,206.107 187.556 M220.150 193.027 C 221.584 193.081,224.013 193.082,225.547 193.027 C 227.081 192.973,225.907 192.928,222.939 192.927 C 219.970 192.927,218.715 192.972,220.150 193.027 " stroke="none" fill="#628bb3" fill-rule="evenodd"></path><path id="path4" d="M211.452 153.148 L 211.394 155.322 210.063 155.322 C 208.786 155.322,208.727 155.283,208.612 154.348 C 208.493 153.377,208.492 153.377,208.519 154.423 C 208.545 155.458,208.565 155.474,209.973 155.564 C 211.680 155.673,211.766 155.533,211.617 152.892 L 211.510 150.975 211.452 153.148 M196.143 154.331 C 196.104 155.231,196.026 155.295,194.828 155.403 L 193.553 155.517 194.837 155.570 C 196.225 155.626,196.550 155.296,196.316 154.070 C 196.213 153.530,196.174 153.589,196.143 154.331 M206.338 154.331 C 206.299 155.231,206.221 155.295,205.022 155.403 L 203.748 155.517 205.032 155.570 C 206.420 155.626,206.745 155.296,206.511 154.070 C 206.408 153.530,206.369 153.589,206.338 154.331 M201.234 154.481 C 201.202 155.224,201.084 155.299,199.775 155.402 L 198.351 155.514 199.785 155.568 C 201.290 155.625,201.689 155.293,201.409 154.215 C 201.316 153.854,201.257 153.942,201.234 154.481 M188.981 155.537 C 189.434 155.606,190.176 155.606,190.630 155.537 C 191.083 155.468,190.712 155.412,189.805 155.412 C 188.898 155.412,188.527 155.468,188.981 155.537 M175.829 156.950 C 175.386 158.104,175.828 158.770,177.061 158.806 L 178.261 158.842 177.136 158.713 C 176.127 158.598,176.012 158.496,176.012 157.721 C 176.012 156.944,176.125 156.846,177.136 156.740 L 178.261 156.623 177.127 156.572 C 176.385 156.539,175.936 156.670,175.829 156.950 M221.706 156.950 C 221.263 158.104,221.705 158.770,222.939 158.806 L 224.138 158.842 223.013 158.713 C 221.419 158.531,221.298 156.933,222.864 156.739 L 223.838 156.618 222.854 156.570 C 222.243 156.540,221.808 156.684,221.706 156.950 M187.244 160.495 C 187.165 160.701,187.135 167.481,187.178 175.562 L 187.256 190.255 190.405 190.255 L 193.553 190.255 193.573 187.556 L 193.593 184.858 193.486 187.481 L 193.380 190.105 190.393 190.105 L 187.406 190.105 187.406 175.256 L 187.406 160.407 200.000 160.488 C 206.927 160.533,212.594 160.469,212.594 160.345 C 212.594 159.925,187.405 160.074,187.244 160.495 M175.829 162.347 C 175.386 163.501,175.828 164.167,177.061 164.204 L 178.261 164.239 177.136 164.111 C 176.127 163.995,176.012 163.893,176.012 163.118 C 176.012 162.342,176.125 162.243,177.136 162.137 L 178.261 162.020 177.127 161.969 C 176.385 161.936,175.936 162.067,175.829 162.347 M191.089 162.140 C 191.877 162.202,193.091 162.201,193.787 162.138 C 194.483 162.075,193.838 162.025,192.354 162.025 C 190.870 162.026,190.300 162.078,191.089 162.140 M199.797 162.136 L 202.442 162.243 202.346 164.766 C 202.292 166.154,202.356 167.181,202.487 167.049 C 202.618 166.918,202.686 165.743,202.637 164.439 L 202.549 162.069 199.850 162.049 L 197.151 162.030 199.797 162.136 M204.797 162.132 C 204.797 162.262,205.938 162.325,207.333 162.272 L 209.870 162.176 209.976 164.521 L 210.081 166.867 210.063 164.468 L 210.045 162.069 207.421 161.982 C 205.978 161.935,204.797 162.002,204.797 162.132 M222.417 162.131 C 222.790 162.203,223.330 162.200,223.617 162.125 C 223.903 162.050,223.598 161.991,222.939 161.995 C 222.279 161.998,222.044 162.059,222.417 162.131 M221.710 163.418 C 221.735 164.064,221.884 164.172,222.789 164.195 C 223.796 164.220,223.799 164.217,222.882 164.103 C 222.184 164.016,221.893 163.806,221.803 163.326 C 221.703 162.785,221.686 162.801,221.710 163.418 M175.712 168.498 C 175.712 168.983,175.819 169.446,175.949 169.526 C 176.080 169.607,176.132 169.210,176.066 168.645 C 175.919 167.384,175.712 167.299,175.712 168.498 M221.589 168.498 C 221.589 168.983,221.696 169.446,221.826 169.526 C 221.957 169.607,222.010 169.210,221.944 168.645 C 221.796 167.384,221.589 167.299,221.589 168.498 M202.504 171.814 C 202.504 173.216,202.555 173.789,202.618 173.088 C 202.681 172.388,202.681 171.241,202.618 170.540 C 202.555 169.839,202.504 170.412,202.504 171.814 M210.000 171.814 C 210.000 173.216,210.051 173.789,210.115 173.088 C 210.178 172.388,210.178 171.241,210.115 170.540 C 210.051 169.839,210.000 170.412,210.000 171.814 M175.829 173.142 C 175.386 174.296,175.828 174.961,177.061 174.998 L 178.261 175.034 177.106 174.903 C 175.987 174.777,175.955 174.741,176.071 173.743 C 176.198 172.659,176.104 172.426,175.829 173.142 M222.417 175.025 C 222.790 175.096,223.330 175.094,223.617 175.019 C 223.903 174.944,223.598 174.885,222.939 174.888 C 222.279 174.892,222.044 174.953,222.417 175.025 M175.787 179.385 C 175.853 180.244,175.969 180.363,176.762 180.388 C 177.573 180.413,177.582 180.404,176.854 180.295 C 176.240 180.203,176.007 179.964,175.880 179.293 C 175.720 178.453,175.716 178.457,175.787 179.385 M221.664 179.385 C 221.730 180.244,221.846 180.363,222.639 180.388 C 223.450 180.413,223.459 180.404,222.731 180.295 C 222.117 180.203,221.884 179.964,221.757 179.293 C 221.597 178.453,221.593 178.457,221.664 179.385 M175.912 183.708 C 175.633 183.987,175.662 185.541,175.949 185.718 C 176.080 185.799,176.134 185.411,176.069 184.856 C 175.955 183.882,175.990 183.844,177.106 183.728 L 178.261 183.609 177.186 183.559 C 176.595 183.531,176.022 183.598,175.912 183.708 M221.889 183.625 C 221.889 183.690,222.352 183.797,222.917 183.863 C 223.483 183.929,223.880 183.876,223.799 183.745 C 223.654 183.511,221.889 183.400,221.889 183.625 M207.882 190.327 C 208.836 190.387,210.321 190.386,211.180 190.326 C 212.040 190.265,211.259 190.216,209.445 190.217 C 207.631 190.218,206.928 190.267,207.882 190.327 " stroke="none" fill="#96b5d2" fill-rule="evenodd"></path></g></svg>