<!DOCTYPE svg PUBLIC "-//W3C//DTD SVG 20010904//EN" "http://www.w3.org/TR/2001/REC-SVG-20010904/DTD/svg10.dtd">
<svg version="1.0" xmlns="http://www.w3.org/2000/svg" width="1293px" height="965px" viewBox="0 0 12930 9650" preserveAspectRatio="xMidYMid meet">
<g id="layer101" fill="#003880" stroke="none">
 <path d="M2622 9508 c-27 -79 -62 -181 -77 -227 -29 -89 -60 -131 -95 -131 -13 0 -20 -7 -20 -20 0 -19 7 -20 145 -20 138 0 145 1 145 20 0 12 -7 20 -17 20 -47 1 -47 12 3 164 27 80 51 146 54 146 3 0 29 -79 59 -175 l54 -176 46 3 45 3 66 188 66 188 47 -157 c26 -86 44 -160 41 -165 -3 -5 -23 -12 -45 -15 -29 -5 -39 -11 -39 -25 0 -17 9 -19 115 -19 104 0 115 2 115 18 0 11 -12 23 -34 30 -40 15 -30 -6 -126 267 l-77 220 -44 0 -43 0 -65 -185 -66 -185 -60 188 -60 187 -41 0 -42 0 -50 -142z"/>
 <path d="M3435 9636 c-37 -17 -80 -62 -94 -99 -16 -42 -13 -134 5 -170 39 -77 93 -107 191 -107 114 0 172 45 181 139 l5 51 -128 0 -127 0 6 38 c10 52 37 85 78 96 47 12 80 2 116 -34 26 -26 32 -27 48 -15 18 13 18 14 -2 41 -36 49 -97 74 -178 74 -39 -1 -84 -7 -101 -14z m115 -232 c30 -7 31 -8 25 -43 -8 -43 -21 -61 -45 -61 -25 0 -50 32 -57 74 -5 33 -4 36 19 36 14 0 40 -3 58 -6z"/>
 <path d="M5071 9639 c-77 -31 -121 -98 -121 -184 0 -70 29 -128 81 -162 39 -26 50 -28 139 -28 88 0 100 2 137 27 121 80 100 287 -35 343 -39 17 -164 19 -201 4z m151 -69 c13 -25 18 -59 18 -115 0 -101 -20 -149 -66 -153 -41 -4 -63 22 -74 94 -12 71 2 168 27 196 28 31 74 20 95 -22z"/>
 <path d="M5516 9498 c-42 -110 -67 -160 -87 -179 -50 -44 -40 -49 92 -49 109 0 120 2 117 18 -2 9 -13 18 -26 20 -12 2 -22 7 -22 12 0 4 15 46 33 93 l33 86 38 -115 37 -114 43 0 43 0 43 117 44 117 23 -64 c39 -103 40 -118 9 -130 -14 -5 -26 -16 -26 -25 0 -12 15 -15 80 -15 70 0 80 2 80 18 0 9 -10 22 -22 27 -24 11 -54 75 -113 240 l-33 90 -39 3 -40 3 -45 -122 -45 -123 -40 120 -40 119 -39 3 -40 3 -58 -153z"/>
 <path d="M6410 9640 c0 -6 -27 -79 -60 -164 -48 -123 -65 -155 -85 -164 -14 -6 -25 -18 -25 -27 0 -13 19 -15 120 -15 101 0 120 2 120 15 0 9 -11 20 -24 25 l-24 9 32 85 c17 47 34 82 37 78 4 -4 22 -53 40 -110 l34 -103 43 3 44 3 43 114 c31 85 44 109 49 95 9 -21 56 -156 56 -160 0 -1 -13 -7 -30 -13 -16 -5 -30 -17 -30 -25 0 -13 15 -16 85 -16 70 0 85 3 85 15 0 9 -11 20 -24 25 -25 9 -70 104 -124 263 l-27 78 -40 -3 -39 -3 -41 -107 c-22 -58 -43 -109 -46 -112 -3 -4 -24 45 -45 109 l-39 115 -42 0 c-24 0 -43 -5 -43 -10z"/>
 <path d="M7473 9626 c-23 -20 -28 -32 -28 -70 0 -63 31 -92 137 -126 l83 -27 3 -37 c4 -46 -11 -66 -50 -66 -28 0 -29 2 -23 34 6 27 2 39 -14 55 -41 41 -121 16 -121 -38 0 -55 73 -91 182 -91 142 0 172 37 162 201 -7 109 2 139 41 139 18 0 25 5 25 19 0 23 -26 31 -101 31 -43 0 -60 -5 -73 -19 -18 -19 -18 -19 -49 0 -48 29 -137 26 -174 -5z m172 -48 c23 -10 25 -17 25 -70 0 -32 -2 -58 -5 -58 -4 0 -19 7 -35 15 -49 25 -65 78 -34 109 18 19 17 19 49 4z"/>
 <path d="M7963 9626 c-28 -24 -28 -25 -31 -165 l-4 -141 -34 0 c-30 0 -34 -3 -34 -25 0 -22 4 -25 35 -25 l35 0 0 -55 0 -55 65 0 65 0 0 55 0 55 50 0 c47 0 50 2 50 25 0 23 -3 25 -50 25 l-50 0 0 113 c0 138 11 161 71 155 35 -3 39 -1 39 18 0 28 -43 44 -121 44 -47 0 -63 -5 -86 -24z"/>
 <path d="M8467 9639 c-35 -20 -47 -72 -47 -199 l0 -120 -30 0 c-25 0 -30 -4 -30 -25 0 -21 5 -25 30 -25 30 0 30 -1 30 -55 l0 -55 65 0 65 0 0 55 0 55 55 0 c52 0 55 1 55 25 0 24 -3 25 -56 25 l-56 0 3 118 c5 139 12 156 71 150 33 -3 38 -1 38 18 0 16 -9 25 -31 33 -40 14 -138 14 -162 0z"/>
 <path d="M8795 9636 c-150 -67 -148 -299 2 -362 48 -20 169 -17 219 5 138 63 139 283 2 350 -52 25 -174 29 -223 7z m149 -45 c40 -44 39 -229 -1 -273 -28 -31 -74 -20 -96 22 -24 48 -21 203 6 243 21 32 65 36 91 8z"/>
 <path d="M9440 9628 c-48 -33 -68 -66 -80 -126 -16 -86 3 -147 65 -200 44 -39 70 -46 151 -39 l64 5 0 -59 c0 -67 -21 -99 -65 -99 -18 0 -25 -5 -25 -20 0 -17 7 -20 49 -20 26 0 76 -3 109 -6 l62 -7 2 264 3 263 33 10 c21 6 32 15 32 27 0 17 -9 19 -77 19 -43 0 -88 3 -100 6 -17 5 -23 2 -23 -10 0 -20 -9 -20 -34 -1 -32 24 -126 20 -166 -7z m182 -55 c15 -13 18 -32 18 -115 0 -55 -5 -108 -10 -118 -30 -56 -90 -42 -116 26 -24 63 -16 165 16 199 27 29 65 32 92 8z"/>
 <path d="M9965 9633 c-75 -39 -105 -90 -105 -177 0 -130 72 -196 215 -196 114 0 195 53 211 136 20 107 -19 198 -100 235 -53 24 -177 25 -221 2z m149 -38 c25 -25 39 -95 33 -165 -7 -80 -23 -119 -53 -126 -60 -15 -86 23 -92 132 -4 66 -1 89 16 127 18 41 25 47 51 47 16 0 37 -7 45 -15z"/>
 <path d="M3940 9625 c0 -9 11 -20 25 -25 l25 -10 0 -231 0 -231 -30 -11 c-16 -6 -30 -19 -30 -28 0 -13 16 -17 91 -22 50 -4 95 -4 100 -1 5 3 9 86 9 185 l0 180 55 -47 c59 -51 67 -69 35 -77 -11 -3 -20 -12 -20 -21 0 -14 15 -16 101 -16 88 0 100 2 97 17 -2 9 -17 21 -35 27 -17 6 -52 26 -78 43 l-45 33 56 82 c78 113 96 131 133 130 17 0 35 -3 41 -7 6 -4 10 -57 10 -129 0 -106 -2 -125 -18 -139 -10 -10 -24 -17 -30 -17 -7 0 -12 -9 -12 -20 0 -17 7 -20 49 -20 26 0 69 -3 95 -6 45 -7 46 -6 46 19 l0 26 36 -24 c28 -19 50 -25 93 -25 106 0 131 41 131 215 0 114 0 116 25 125 14 5 25 16 25 25 0 13 -19 15 -115 15 -99 0 -115 -2 -115 -16 0 -9 9 -18 20 -21 11 -3 23 -16 26 -30 11 -41 -1 -210 -15 -227 -18 -22 -53 -20 -85 5 -25 20 -26 24 -26 130 0 108 0 110 25 119 14 5 25 16 25 25 0 13 -28 15 -207 15 l-208 0 -40 -66 c-22 -36 -48 -72 -57 -81 -17 -15 -18 -13 -18 41 0 51 2 57 25 66 14 5 25 16 25 25 0 13 -19 15 -120 15 -101 0 -120 -2 -120 -15z"/>
 <path d="M6912 9623 c2 -9 14 -20 28 -23 l25 -6 3 -223 c2 -198 0 -226 -14 -242 -10 -11 -25 -19 -36 -19 -11 0 -18 -7 -18 -20 0 -17 7 -20 39 -20 21 0 66 -3 100 -6 l61 -7 0 126 0 126 36 -24 c28 -19 50 -25 93 -25 106 0 131 41 131 215 0 114 0 116 25 125 14 5 25 16 25 25 0 13 -19 15 -115 15 -99 0 -115 -2 -115 -16 0 -9 9 -18 20 -21 11 -3 23 -16 26 -30 11 -41 -1 -210 -15 -227 -18 -22 -53 -20 -85 5 -25 20 -26 24 -26 130 0 108 0 110 25 119 14 5 25 16 25 25 0 13 -19 15 -121 15 -108 0 -120 -2 -117 -17z"/>
 <path d="M1780 8720 l0 -40 4750 0 4750 0 0 40 0 40 -4750 0 -4750 0 0 -40z"/>
 <path d="M3677 8203 c-58 -137 -131 -310 -163 -386 -45 -106 -70 -151 -107 -193 l-49 -54 207 0 207 0 -26 34 c-15 20 -26 48 -26 66 0 30 189 500 201 500 3 0 22 -53 42 -117 66 -214 70 -321 17 -427 l-29 -56 170 0 c93 0 169 4 169 8 0 5 -9 17 -21 28 -58 53 -155 258 -243 513 -64 185 -64 181 11 247 l36 31 -64 7 c-35 4 -98 16 -141 27 -42 10 -78 19 -81 19 -3 0 -52 -111 -110 -247z"/>
 <path d="M1795 8429 c-33 -4 -105 -19 -160 -33 -113 -30 -144 -31 -208 -12 l-46 14 -29 -63 c-17 -34 -46 -88 -67 -120 -44 -69 -40 -75 56 -75 75 0 118 18 250 107 124 84 154 96 249 101 97 5 148 -6 206 -44 55 -35 86 -84 92 -144 6 -63 -10 -100 -60 -146 -49 -44 -101 -67 -243 -105 -254 -70 -322 -97 -393 -162 -65 -60 -92 -124 -92 -217 0 -127 60 -220 178 -276 84 -40 178 -43 319 -10 120 28 185 32 230 15 17 -6 29 -7 31 -1 2 6 32 53 68 106 36 53 62 101 59 106 -4 6 -34 10 -68 10 -70 0 -138 -27 -217 -85 -26 -19 -76 -48 -111 -65 -136 -64 -271 -23 -286 88 -7 55 1 83 34 117 40 40 87 58 273 105 264 66 360 122 422 249 19 39 22 62 23 156 0 100 -2 115 -28 167 -78 158 -268 244 -482 217z"/>
 <path d="M4433 8412 c-182 -65 -237 -259 -118 -415 39 -51 160 -135 278 -193 42 -21 76 -43 74 -48 -9 -26 -60 -50 -116 -54 -74 -5 -132 20 -186 79 -63 70 -84 26 -34 -72 26 -53 111 -125 175 -148 67 -26 187 -28 262 -6 57 17 115 62 138 107 10 19 25 133 44 323 23 236 33 302 49 334 29 57 39 58 61 9 19 -41 20 -68 20 -518 0 -456 -1 -476 -20 -507 -11 -18 -24 -33 -30 -33 -5 0 -10 -6 -10 -14 0 -9 17 -16 48 -21 26 -4 88 -22 138 -41 51 -19 95 -34 98 -34 3 0 6 183 6 408 l1 407 80 -83 c83 -88 119 -144 119 -187 0 -34 -24 -78 -55 -103 -14 -11 -25 -23 -25 -26 0 -3 93 -6 206 -6 177 0 205 2 201 15 -5 11 0 13 26 8 27 -5 196 -56 234 -70 10 -4 13 74 13 375 0 244 4 391 11 409 5 15 24 43 42 61 l31 32 -367 0 -368 0 22 -29 c30 -40 23 -65 -57 -217 -64 -121 -67 -124 -88 -111 -19 13 -21 25 -24 118 -4 127 2 160 33 198 14 16 25 32 25 35 0 11 -595 7 -607 -5 -8 -8 -23 -4 -54 12 -61 32 -202 37 -276 11z m1437 -101 c7 -19 10 -120 8 -328 -3 -289 -4 -303 -24 -330 -12 -15 -29 -29 -38 -31 -18 -4 -172 116 -244 191 l-43 44 115 219 c63 120 129 236 146 257 30 36 33 37 50 22 10 -9 23 -29 30 -44z m-1166 5 c19 -8 36 -18 39 -22 3 -5 -6 -106 -19 -224 -13 -118 -24 -216 -24 -218 -1 -12 -71 43 -116 91 -59 63 -75 106 -75 194 0 68 41 148 92 175 41 22 59 22 103 4z"/>
 <path d="M6365 8416 c-65 -20 -101 -43 -137 -86 -40 -45 -58 -97 -58 -162 0 -133 90 -234 307 -345 62 -32 113 -61 113 -65 0 -19 -68 -52 -117 -56 -71 -6 -131 18 -187 74 -67 67 -82 55 -50 -39 20 -58 84 -126 155 -164 50 -26 62 -28 169 -28 103 0 120 3 164 25 27 14 62 42 78 62 35 42 38 63 72 414 25 253 32 281 83 329 l28 25 -152 0 c-91 0 -153 -4 -155 -10 -2 -6 -29 1 -63 15 -68 28 -181 33 -250 11z m278 -109 l23 -15 -22 -205 c-12 -113 -24 -214 -26 -223 -2 -14 -15 -7 -68 32 -84 64 -123 134 -124 227 -2 116 74 215 157 204 21 -3 48 -12 60 -20z"/>
 <path d="M7736 8419 c-243 -32 -467 -232 -522 -465 -32 -135 -2 -316 74 -454 47 -86 149 -186 232 -227 124 -61 219 -68 356 -26 138 41 186 41 265 -4 3 -2 11 16 18 39 19 62 57 135 103 196 22 30 37 57 33 60 -4 4 -39 7 -78 7 -91 -1 -145 -27 -247 -120 -93 -86 -154 -115 -240 -115 -114 1 -196 58 -254 180 -30 63 -31 69 -31 205 0 131 2 145 31 228 62 171 164 300 286 362 64 32 79 35 153 35 45 0 96 -5 113 -11 31 -11 32 -12 27 -62 -12 -114 -25 -260 -25 -272 0 -9 -28 -14 -103 -17 -116 -4 -156 -20 -194 -78 -42 -61 -23 -168 35 -206 31 -20 102 -23 136 -5 69 37 54 161 -19 161 -35 0 -68 -36 -62 -66 3 -20 2 -22 -9 -13 -23 19 -17 73 12 100 25 24 29 24 266 29 l240 5 -26 24 c-45 42 -48 78 -26 291 11 106 19 195 17 196 -1 2 -21 -3 -42 -11 -56 -20 -91 -18 -213 9 -132 30 -217 37 -306 25z"/>
 <path d="M8531 8414 c-100 -36 -161 -99 -181 -187 -36 -162 74 -296 353 -433 31 -16 56 -33 54 -38 -9 -26 -60 -50 -115 -54 -72 -5 -135 22 -187 79 -42 47 -55 49 -55 7 0 -80 94 -189 196 -227 67 -26 187 -28 263 -5 70 20 135 80 149 137 6 23 23 164 37 312 21 226 29 277 48 315 26 54 46 57 69 10 16 -31 18 -69 18 -318 0 -297 -1 -304 -47 -353 -29 -31 -30 -30 64 -58 39 -11 101 -35 138 -51 37 -17 69 -30 71 -30 2 0 4 39 4 86 l0 85 58 -59 c82 -87 164 -103 250 -50 66 41 84 140 36 197 -40 48 -87 57 -159 32 -77 -27 -97 -26 -134 5 -47 39 -53 75 -49 311 l3 212 29 30 30 31 -305 0 c-205 0 -309 -4 -316 -11 -8 -8 -23 -4 -54 12 -58 30 -202 37 -268 13z m278 -105 c31 -19 33 -23 27 -62 -3 -23 -12 -112 -21 -197 -9 -85 -18 -165 -21 -178 l-5 -23 -32 22 c-101 69 -147 139 -155 235 -6 74 9 123 51 171 50 57 99 67 156 32z"/>
 <path d="M9913 8412 c-182 -65 -237 -259 -118 -415 39 -51 160 -135 278 -193 42 -21 76 -43 74 -48 -9 -26 -60 -50 -116 -54 -74 -5 -132 20 -186 79 -43 48 -68 47 -58 -3 16 -87 102 -181 199 -217 67 -26 187 -28 262 -6 57 17 115 62 138 107 10 19 25 133 44 323 23 236 33 302 50 334 11 22 24 42 28 45 5 3 20 -14 33 -37 23 -41 24 -48 27 -312 4 -290 0 -324 -45 -383 -14 -18 -23 -35 -22 -36 2 -2 37 -9 78 -16 41 -7 106 -23 143 -36 l68 -23 0 60 0 60 45 -31 c67 -46 108 -60 175 -60 93 0 160 35 198 105 15 26 17 73 20 335 1 168 4 315 7 327 3 12 17 35 31 52 l26 31 -166 0 c-91 0 -166 -2 -166 -3 0 -2 8 -19 18 -38 15 -30 17 -68 17 -332 l0 -299 -28 -24 c-15 -13 -37 -24 -49 -24 -35 0 -87 31 -108 65 -19 30 -20 49 -20 281 0 137 4 265 10 283 5 19 22 47 37 63 l27 28 -305 0 c-205 0 -309 -4 -316 -11 -8 -8 -23 -4 -54 12 -61 32 -202 37 -276 11z m271 -96 c19 -8 36 -18 39 -23 6 -9 -38 -431 -46 -439 -7 -7 -100 69 -134 111 -78 94 -71 248 14 326 45 42 73 48 127 25z"/>
 <path d="M2938 8397 c-149 -63 -236 -197 -246 -377 -5 -104 9 -179 51 -262 133 -267 472 -292 636 -47 62 93 85 179 79 299 -4 86 -9 107 -40 172 -46 95 -101 156 -180 198 -56 30 -73 34 -153 37 -77 3 -98 0 -147 -20z m207 -70 c52 -52 57 -89 53 -371 -3 -232 -5 -254 -24 -286 -27 -46 -59 -62 -114 -56 -52 5 -83 34 -99 94 -18 61 -14 498 4 560 19 63 53 92 107 92 32 0 47 -7 73 -33z"/>
 <path d="M11433 8401 c-77 -35 -78 -41 -81 -413 l-3 -328 -50 0 c-27 0 -49 -3 -49 -7 0 -5 28 -26 61 -48 58 -38 249 -227 249 -246 0 -5 5 -9 10 -9 6 0 10 43 10 110 l0 110 55 0 55 0 0 45 0 45 -55 0 -55 0 0 298 c0 253 2 301 16 320 19 27 55 28 79 2 24 -26 38 -15 31 23 -19 94 -166 146 -273 98z"/>
 <path d="M2327 8368 c18 -18 37 -46 42 -61 7 -19 11 -196 11 -514 l0 -486 -40 -38 c-46 -44 -52 -38 65 -59 33 -7 90 -20 126 -31 36 -10 69 -19 73 -19 3 0 6 257 6 571 0 402 3 577 11 592 6 12 23 34 37 50 l26 27 -194 0 -194 0 31 -32z"/>
 <path d="M5918 7434 c-38 -20 -58 -63 -58 -122 0 -55 22 -92 70 -117 115 -59 238 81 170 192 -35 59 -121 81 -182 47z"/>
 <path d="M485 7164 c-222 -54 -412 -240 -469 -461 -21 -79 -21 -237 0 -317 38 -149 164 -308 310 -394 170 -101 336 -137 584 -129 296 11 531 74 1085 292 94 37 225 87 293 111 l124 44 177 -92 178 -93 -79 -74 c-273 -256 -388 -590 -319 -926 64 -309 255 -528 613 -700 393 -189 877 -235 1298 -125 41 11 84 22 95 25 16 4 27 -6 53 -44 50 -74 200 -213 298 -278 166 -108 303 -153 489 -160 153 -6 225 5 312 48 48 23 69 40 88 73 14 24 25 49 25 57 0 10 38 -4 123 -46 137 -68 242 -105 392 -137 138 -30 441 -32 590 -4 137 25 290 76 415 139 58 28 108 53 112 55 4 2 14 -14 23 -35 44 -106 160 -152 381 -153 238 0 455 89 668 276 41 35 98 94 127 131 29 38 55 71 59 75 3 4 37 -1 75 -12 268 -78 613 -89 910 -29 347 70 703 260 862 460 137 172 199 362 197 599 -1 145 -26 245 -96 387 -69 143 -196 304 -288 368 l-41 28 183 94 183 93 97 -35 c54 -19 207 -77 340 -129 557 -217 826 -286 1115 -286 379 0 679 159 805 426 141 299 7 675 -292 822 -129 64 -190 76 -350 69 -322 -12 -688 -157 -1524 -601 -120 -64 -220 -116 -223 -116 -3 0 -134 47 -291 104 -158 58 -357 125 -442 150 -530 153 -925 152 -1328 -4 -277 -107 -482 -329 -535 -577 -6 -29 -14 -53 -17 -53 -3 0 -22 32 -44 71 -96 177 -296 396 -471 515 -166 114 -348 194 -545 241 -129 30 -425 43 -562 24 -493 -70 -919 -363 -1161 -800 l-34 -62 -17 73 c-37 154 -139 313 -269 418 -80 65 -275 161 -402 198 -176 52 -280 66 -490 66 -346 -1 -620 -66 -1236 -294 l-197 -72 -337 177 c-630 333 -984 481 -1261 529 -109 19 -279 19 -359 0z m344 -139 c170 -33 420 -125 716 -265 169 -79 706 -362 700 -368 -4 -5 -255 -101 -530 -204 -493 -184 -835 -236 -1100 -168 -181 46 -354 169 -424 299 -123 232 -36 516 202 655 111 66 264 83 436 51z m11665 -33 c266 -128 372 -427 238 -676 -45 -84 -145 -175 -253 -229 -216 -109 -449 -124 -778 -50 -163 36 -349 97 -714 236 l-318 120 138 74 c240 128 683 347 813 402 295 124 483 172 665 168 119 -2 121 -2 209 -45z m-5757 -221 c437 -89 816 -385 1009 -787 24 -51 44 -97 44 -103 0 -8 -53 -11 -165 -11 l-165 0 0 219 c0 163 -3 221 -12 228 -16 11 -1957 11 -1975 0 -10 -6 -13 -63 -13 -228 l0 -219 -165 0 -165 0 21 53 c69 177 228 395 384 526 228 192 469 300 760 340 106 15 325 6 442 -18z m-2507 -94 c446 -106 679 -322 723 -667 9 -74 8 -104 -7 -191 -10 -57 -25 -142 -33 -189 -15 -91 -21 -399 -9 -439 8 -23 7 -23 -30 7 -66 53 -130 75 -212 75 -93 -1 -159 -32 -234 -111 -61 -64 -97 -126 -124 -217 -26 -88 -24 -301 5 -409 12 -44 21 -80 21 -82 0 -6 -225 -54 -305 -65 -133 -17 -423 -7 -559 21 -400 79 -756 293 -880 529 -125 239 -130 481 -15 717 72 147 160 255 282 346 l68 51 37 -16 c348 -143 474 -179 637 -181 129 -1 201 17 267 67 121 92 141 207 53 305 -172 191 -573 205 -917 32 l-83 -42 -157 78 c-87 43 -154 81 -150 85 4 3 106 43 227 87 392 143 582 195 870 236 17 2 118 3 225 1 166 -3 211 -7 300 -28z m5048 18 c158 -22 320 -62 507 -122 192 -63 515 -181 529 -194 5 -4 -57 -41 -146 -85 l-155 -76 -104 51 c-57 28 -149 63 -204 78 -90 25 -116 28 -265 28 -161 0 -167 -1 -247 -32 -96 -36 -162 -79 -200 -130 -22 -29 -28 -48 -31 -102 -3 -60 -1 -70 28 -113 65 -98 172 -144 330 -142 157 2 326 46 573 151 l108 45 56 -38 c171 -119 324 -353 370 -568 39 -184 -24 -435 -150 -602 -143 -188 -458 -357 -806 -432 -116 -24 -144 -26 -356 -26 -211 0 -240 2 -350 26 -66 14 -132 31 -147 37 -25 9 -27 13 -17 38 36 94 50 299 28 419 -14 79 -68 187 -124 251 -112 127 -285 153 -420 64 -22 -15 -45 -30 -51 -34 -8 -5 -10 29 -6 126 3 77 -1 176 -8 237 -15 135 -15 132 -34 218 -34 158 -13 344 56 480 115 228 385 389 753 447 110 18 359 18 483 0z m-3818 -1370 l0 -414 45 -38 45 -37 0 -126 0 -126 67 -114 c37 -63 72 -118 78 -122 29 -21 46 -4 114 116 l71 123 0 127 c0 69 3 126 8 126 4 0 26 17 50 39 40 37 42 42 42 95 0 43 3 56 15 56 12 0 15 -17 15 -94 0 -67 4 -97 14 -105 9 -8 134 -10 442 -9 l429 3 3 103 c3 101 3 102 27 102 24 0 25 -3 25 -63 0 -62 1 -64 40 -96 l40 -32 0 -122 0 -122 73 -125 c96 -167 97 -167 194 -2 l73 123 0 124 c0 116 1 124 23 138 12 8 32 25 45 36 l22 22 0 414 0 415 189 0 190 0 10 -52 c35 -170 42 -377 16 -533 -62 -387 -286 -736 -609 -955 -557 -375 -1292 -312 -1775 155 -120 116 -205 230 -280 374 -67 131 -101 229 -133 375 -29 134 -31 396 -4 531 9 49 20 93 22 97 3 4 88 8 190 8 l184 0 0 -415z m-426 -597 c67 -148 161 -291 259 -395 27 -29 46 -56 43 -61 -3 -5 -18 -12 -34 -15 -15 -3 -50 -21 -77 -39 -59 -39 -102 -115 -112 -196 -3 -29 -7 -52 -8 -52 -2 0 -34 9 -71 21 -163 50 -334 165 -462 311 l-62 72 59 31 c152 81 320 239 382 358 18 36 35 64 37 62 2 -2 23 -45 46 -97z m2943 30 c50 -95 178 -225 301 -306 51 -33 101 -64 112 -67 27 -9 16 -28 -66 -115 -123 -130 -270 -226 -418 -274 -43 -14 -82 -26 -86 -26 -4 0 -10 26 -13 58 -9 107 -73 189 -176 226 l-50 18 73 86 c113 135 201 277 257 415 12 31 24 57 25 57 2 0 20 -33 41 -72z"/>
 <path d="M4630 3713 c-182 -17 -388 -59 -591 -118 -83 -25 -188 -52 -232 -60 -154 -29 -312 -16 -476 40 l-73 24 -26 -62 c-79 -186 -211 -431 -314 -585 -47 -69 -49 -74 -31 -87 37 -27 128 -45 234 -45 219 0 335 51 740 325 399 270 541 329 816 342 399 18 721 -127 858 -388 47 -89 65 -166 65 -274 0 -160 -40 -261 -143 -366 -76 -76 -155 -130 -271 -184 -136 -64 -229 -94 -597 -195 -414 -113 -695 -205 -830 -271 -342 -167 -528 -385 -584 -684 -24 -126 -17 -341 15 -440 119 -374 463 -634 897 -676 145 -14 297 -1 473 41 416 100 422 101 562 107 146 6 225 -4 303 -37 l44 -19 39 72 c50 90 135 221 268 408 57 81 104 152 104 158 0 44 -230 68 -362 37 -161 -38 -306 -112 -523 -269 -145 -106 -384 -228 -500 -258 -115 -29 -282 -36 -365 -15 -259 66 -411 277 -371 517 19 116 65 190 165 265 136 103 301 163 691 254 458 106 701 182 887 277 421 214 617 562 595 1058 -9 205 -48 352 -134 500 -202 351 -565 558 -1058 605 -105 10 -199 11 -275 3z"/>
 <path d="M8174 3680 c-612 -60 -1208 -444 -1512 -976 -94 -165 -154 -322 -193 -504 -20 -91 -23 -134 -23 -315 0 -372 61 -633 220 -945 275 -541 776 -895 1319 -935 167 -13 320 14 600 105 192 62 252 77 346 86 101 9 163 -6 287 -68 56 -28 103 -49 105 -47 1 2 15 42 30 89 90 271 250 557 404 721 25 27 42 52 39 58 -15 24 -157 43 -279 38 -140 -5 -205 -24 -358 -103 -126 -65 -225 -141 -382 -292 -148 -144 -229 -205 -338 -257 -131 -62 -212 -78 -394 -79 -155 -1 -163 0 -247 30 -323 115 -558 429 -635 848 -24 125 -23 446 1 611 37 255 116 498 241 744 229 451 563 762 941 877 81 25 103 27 249 27 238 -1 401 -28 458 -77 l25 -21 -48 -515 c-26 -283 -48 -515 -49 -516 -1 -1 -115 -4 -253 -7 -281 -7 -346 -17 -461 -70 -194 -90 -291 -273 -259 -488 6 -45 23 -106 36 -135 33 -72 115 -157 185 -191 50 -25 66 -28 161 -28 86 0 114 4 152 22 118 54 168 122 176 239 12 182 -117 292 -263 225 -92 -42 -126 -126 -91 -223 13 -35 12 -38 -5 -38 -28 0 -83 61 -97 107 -17 59 -14 142 7 189 24 52 92 110 156 132 45 15 120 17 748 20 383 1 697 5 697 8 0 4 -25 33 -55 65 -93 101 -141 234 -133 370 2 35 28 304 58 596 29 293 51 535 49 538 -3 3 -32 -6 -65 -19 -107 -43 -204 -59 -332 -54 -99 4 -152 14 -342 61 -124 31 -278 66 -342 77 -137 23 -400 33 -534 20z"/>
 </g>
<g id="layer102" fill="#fffffc" stroke="none">
 <path d="M5552 5594 l3 -646 81 -63 80 -63 82 64 82 64 0 645 0 645 -165 0 -165 0 2 -646z m198 386 c0 -28 -3 -30 -35 -30 -32 0 -35 2 -35 30 0 28 3 30 35 30 32 0 35 -2 35 -30z m0 -176 c0 -34 -1 -35 -32 -32 -54 5 -53 68 2 68 28 0 30 -3 30 -36z m0 -180 c0 -34 -1 -35 -32 -32 -29 3 -33 7 -36 36 -3 31 -2 32 32 32 35 0 36 -1 36 -36z m0 -170 c0 -34 -1 -35 -32 -32 -54 5 -53 68 2 68 28 0 30 -3 30 -36z m0 -174 c0 -28 -3 -30 -35 -30 -32 0 -35 2 -35 30 0 28 3 30 35 30 32 0 35 -2 35 -30z m0 -176 c0 -34 -1 -35 -32 -32 -54 5 -53 68 2 68 28 0 30 -3 30 -36z"/>
 <path d="M7030 5598 l1 -643 85 -67 85 -67 85 66 84 66 0 644 0 643 -170 0 -170 0 0 -642z m200 382 c0 -27 -3 -30 -30 -30 -27 0 -30 3 -30 30 0 27 3 30 30 30 27 0 30 -3 30 -30z m0 -175 c0 -32 -2 -35 -30 -35 -28 0 -30 3 -30 35 0 32 2 35 30 35 28 0 30 -3 30 -35z m0 -180 c0 -32 -2 -35 -30 -35 -28 0 -30 3 -30 35 0 32 2 35 30 35 28 0 30 -3 30 -35z m0 -170 c0 -32 -2 -35 -30 -35 -28 0 -30 3 -30 35 0 32 2 35 30 35 28 0 30 -3 30 -35z m0 -175 c0 -27 -3 -30 -30 -30 -27 0 -30 3 -30 30 0 27 3 30 30 30 27 0 30 -3 30 -30z m0 -175 c0 -32 -2 -35 -30 -35 -28 0 -30 3 -30 35 0 32 2 35 30 35 28 0 30 -3 30 -35z"/>
 <path d="M6050 5675 l0 -485 410 0 410 0 0 485 0 485 -105 0 -105 0 0 -97 c0 -73 -5 -108 -19 -138 -58 -129 -225 -159 -323 -58 -50 52 -58 78 -58 194 l0 99 -105 0 -105 0 0 -485z m245 -110 l0 -80 -82 -3 -83 -3 0 79 c0 43 3 82 7 86 4 4 41 5 83 4 l75 -3 0 -80z m245 0 l0 -85 -80 0 -80 0 0 85 0 85 80 0 80 0 0 -85z m245 0 l0 -80 -82 -3 -83 -3 0 79 c0 43 3 82 7 86 4 4 41 5 83 4 l75 -3 0 -80z m-485 -235 l0 -80 -85 0 -85 0 0 80 0 80 85 0 85 0 0 -80z m240 0 l0 -80 -80 0 -80 0 0 80 0 80 80 0 80 0 0 -80z m250 0 l0 -80 -85 0 -85 0 0 80 0 80 85 0 85 0 0 -80z"/>
 <path d="M6080 4960 l0 -70 380 0 380 0 0 70 0 70 -49 0 -50 0 -3 -37 c-2 -31 -7 -39 -27 -41 -28 -4 -41 12 -41 51 0 25 -3 27 -45 27 -42 0 -45 -2 -45 -27 0 -39 -13 -55 -41 -51 -20 2 -25 10 -27 41 l-3 37 -49 0 -49 0 -3 -37 c-2 -31 -7 -39 -27 -41 -28 -4 -41 12 -41 51 0 25 -3 27 -45 27 -42 0 -45 -2 -45 -27 0 -39 -13 -55 -41 -51 -20 2 -25 10 -27 41 l-3 37 -50 0 -49 0 0 -70z"/>
 </g>

</svg>