<svg id="svg" version="1.1" width="400" height="298.53054911059553" viewBox="0 0 400 298.53054911059553" xmlns="http://www.w3.org/2000/svg" xmlns:xlink="http://www.w3.org/1999/xlink" ><g id="svgg"><path id="path0" d="M215.667 15.161 L 214.638 16.281 215.758 15.251 C 216.801 14.293,217.016 14.040,216.788 14.040 C 216.738 14.040,216.233 14.544,215.667 15.161 M272.442 19.567 C 273.501 20.635,274.434 21.509,274.516 21.509 C 274.598 21.509,273.799 20.635,272.741 19.567 C 271.682 18.499,270.749 17.625,270.667 17.625 C 270.585 17.625,271.384 18.499,272.442 19.567 M199.368 50.617 C 199.277 50.854,199.255 51.291,199.320 51.588 C 199.393 51.926,199.495 51.764,199.592 51.158 C 199.755 50.140,199.649 49.885,199.368 50.617 M199.064 58.701 C 199.064 60.344,199.114 60.978,199.175 60.109 C 199.236 59.241,199.235 57.897,199.174 57.122 C 199.112 56.347,199.063 57.058,199.064 58.701 M173.050 87.379 C 173.053 88.200,173.111 88.501,173.179 88.047 C 173.248 87.593,173.246 86.920,173.175 86.553 C 173.104 86.186,173.048 86.557,173.050 87.379 M215.235 96.191 C 216.044 97.013,216.774 97.685,216.856 97.685 C 216.938 97.685,216.343 97.013,215.534 96.191 C 214.725 95.370,213.996 94.698,213.913 94.698 C 213.831 94.698,214.426 95.370,215.235 96.191 M164.899 118.711 C 164.899 118.775,165.295 118.885,165.780 118.956 C 166.264 119.027,166.592 118.975,166.509 118.841 C 166.361 118.601,164.899 118.484,164.899 118.711 M250.320 142.121 L 249.291 143.241 250.411 142.212 C 251.453 141.254,251.668 141.001,251.440 141.001 C 251.390 141.001,250.886 141.505,250.320 142.121 M181.760 247.647 C 181.760 252.494,181.801 254.477,181.851 252.054 C 181.902 249.630,181.902 245.665,181.851 243.241 C 181.801 240.818,181.760 242.801,181.760 247.647 M195.894 239.656 C 195.508 240.026,195.399 240.179,195.654 239.997 C 195.908 239.815,196.385 239.516,196.714 239.334 C 197.043 239.152,197.151 238.998,196.955 238.993 C 196.758 238.988,196.281 239.287,195.894 239.656 M261.818 240.851 L 260.941 241.822 261.912 240.945 C 262.817 240.127,263.020 239.881,262.789 239.881 C 262.738 239.881,262.301 240.317,261.818 240.851 M303.641 246.527 L 302.763 247.498 303.734 246.621 C 304.268 246.138,304.705 245.701,304.705 245.650 C 304.705 245.419,304.459 245.622,303.641 246.527 M236.283 253.398 C 237.016 254.178,237.654 254.817,237.702 254.817 C 237.927 254.817,237.689 254.549,236.370 253.311 L 234.951 251.979 236.283 253.398 M316.057 287.472 C 316.057 287.524,316.494 287.960,317.028 288.443 L 317.999 289.320 317.121 288.350 C 316.303 287.445,316.057 287.241,316.057 287.472 M268.335 292.905 C 268.339 293.562,268.400 293.796,268.471 293.424 C 268.543 293.053,268.540 292.515,268.465 292.230 C 268.390 291.944,268.332 292.248,268.335 292.905 " stroke="none" fill="#ffffff" fill-rule="evenodd"></path><path id="path1" d="M174.235 151.520 L 171.770 153.372 171.770 173.176 L 171.770 192.980 176.848 192.980 L 181.927 192.980 181.926 173.189 L 181.924 153.398 179.635 151.652 C 176.663 149.385,177.062 149.394,174.235 151.520 M220.081 151.649 L 217.476 153.633 217.476 173.307 L 217.476 192.980 222.704 192.980 L 227.931 192.980 227.925 173.189 L 227.919 153.398 225.438 151.531 C 222.461 149.291,223.197 149.275,220.081 151.649 M188.499 153.547 L 188.499 155.639 189.843 155.639 C 191.165 155.639,191.187 155.622,191.187 154.653 C 191.187 153.638,191.626 152.950,192.271 152.950 C 192.920 152.950,193.577 153.863,193.577 154.764 C 193.577 155.585,193.650 155.639,194.772 155.639 C 195.940 155.639,195.967 155.615,195.967 154.587 C 195.967 153.758,196.124 153.463,196.705 153.198 C 197.705 152.743,198.357 153.308,198.357 154.630 L 198.357 155.639 199.851 155.639 L 201.344 155.639 201.344 154.476 C 201.344 153.387,201.688 152.950,202.542 152.950 C 203.088 152.950,203.734 153.933,203.734 154.764 C 203.734 155.585,203.807 155.639,204.929 155.639 C 206.051 155.639,206.124 155.585,206.124 154.764 C 206.124 153.863,206.782 152.950,207.430 152.950 C 208.076 152.950,208.514 153.638,208.514 154.653 C 208.514 155.622,208.536 155.639,209.858 155.639 L 211.202 155.639 211.202 153.547 L 211.202 151.456 199.851 151.456 L 188.499 151.456 188.499 153.547 M178.043 158.028 L 178.043 159.223 176.848 159.223 L 175.653 159.223 175.653 158.028 L 175.653 156.833 176.848 156.833 L 178.043 156.833 178.043 158.028 M223.898 158.028 C 223.898 159.021,223.842 159.079,222.778 159.167 L 221.658 159.259 221.658 158.028 L 221.658 156.797 222.778 156.890 C 223.842 156.978,223.898 157.036,223.898 158.028 M187.304 175.653 L 187.304 190.590 190.252 190.590 L 193.200 190.590 193.339 187.472 C 193.578 182.098,195.592 179.682,199.827 179.690 C 204.157 179.697,205.926 181.781,206.074 187.053 L 206.174 190.590 209.286 190.590 L 212.397 190.590 212.397 175.653 L 212.397 160.717 199.851 160.717 L 187.304 160.717 187.304 175.653 M177.987 163.480 L 178.079 164.600 176.866 164.600 C 175.691 164.600,175.653 164.570,175.653 163.605 C 175.653 161.658,177.826 161.542,177.987 163.480 M195.008 164.985 L 195.095 167.610 192.319 167.524 L 189.544 167.438 189.456 165.226 C 189.330 162.081,189.241 162.173,192.303 162.274 L 194.922 162.360 195.008 164.985 M202.476 164.974 L 202.562 167.588 199.862 167.588 L 197.162 167.588 197.162 165.098 C 197.162 163.729,197.257 162.514,197.372 162.399 C 197.488 162.283,198.664 162.227,199.986 162.274 L 202.390 162.360 202.476 164.974 M210.007 164.899 L 210.007 167.588 207.319 167.588 L 204.630 167.588 204.630 165.098 C 204.630 163.729,204.720 162.519,204.829 162.410 C 204.939 162.300,206.149 162.211,207.518 162.211 L 210.007 162.211 210.007 164.899 M223.898 163.406 C 223.898 164.398,223.842 164.456,222.778 164.544 C 221.675 164.635,221.068 163.198,221.871 162.396 C 222.561 161.705,223.898 162.372,223.898 163.406 M178.043 168.783 L 178.043 169.978 176.848 169.978 C 175.682 169.978,175.051 168.589,175.853 167.787 C 176.655 166.985,178.043 167.616,178.043 168.783 M223.991 168.857 L 224.084 169.978 222.871 169.978 C 221.695 169.978,221.658 169.947,221.658 168.982 C 221.658 167.035,223.831 166.919,223.991 168.857 M195.008 172.293 L 194.922 174.907 192.408 174.994 C 189.420 175.098,189.406 175.085,189.400 172.193 C 189.394 169.568,189.260 169.679,192.444 169.679 L 195.094 169.679 195.008 172.293 M202.476 172.293 L 202.390 174.907 199.851 174.907 L 197.311 174.907 197.225 172.293 L 197.139 169.679 199.851 169.679 L 202.562 169.679 202.476 172.293 M210.007 172.379 L 210.007 175.079 207.394 174.993 L 204.780 174.907 204.693 172.293 L 204.607 169.679 207.307 169.679 L 210.007 169.679 210.007 172.379 M178.043 174.160 L 178.043 175.355 176.848 175.355 L 175.653 175.355 175.653 174.160 L 175.653 172.965 176.848 172.965 L 178.043 172.965 178.043 174.160 M223.898 174.160 C 223.898 175.152,223.842 175.210,222.778 175.298 L 221.658 175.391 221.658 174.160 L 221.658 172.929 222.778 173.022 C 223.842 173.110,223.898 173.167,223.898 174.160 M178.043 179.696 C 178.043 180.868,177.586 181.205,176.400 180.908 C 174.958 180.546,175.335 178.641,176.848 178.641 C 178.017 178.641,178.043 178.664,178.043 179.696 M224.048 179.500 C 224.048 181.413,221.871 181.656,221.715 179.761 L 221.622 178.641 222.835 178.641 C 223.972 178.641,224.048 178.695,224.048 179.500 M178.043 185.063 C 178.043 186.084,178.015 186.109,176.848 186.109 C 175.682 186.109,175.653 186.084,175.653 185.063 C 175.653 184.043,175.682 184.018,176.848 184.018 C 178.015 184.018,178.043 184.043,178.043 185.063 M223.992 185.138 C 224.084 186.090,224.061 186.109,222.872 186.109 C 221.680 186.109,221.658 186.090,221.658 185.045 C 221.658 183.469,223.839 183.556,223.992 185.138 " stroke="none" fill="#ffffff" fill-rule="evenodd"></path><path id="path2" d="M125.384 0.304 C 107.147 2.397,95.442 16.797,97.963 34.039 C 99.596 45.207,107.821 53.594,121.882 58.429 C 123.936 59.135,126.557 60.056,127.707 60.475 C 130.077 61.338,136.981 63.265,147.573 66.020 C 151.457 67.030,154.730 68.087,156.442 68.883 C 157.294 69.280,158.055 69.604,158.133 69.604 C 158.584 69.604,163.255 71.974,164.899 73.037 C 174.556 79.281,176.019 90.869,168.282 99.831 C 160.487 108.861,141.465 110.548,128.849 103.330 C 127.975 102.830,123.557 99.946,119.032 96.922 C 105.486 87.868,99.562 85.813,92.022 87.551 C 88.527 88.356,88.290 88.747,89.889 91.065 C 92.553 94.928,95.861 100.852,98.171 105.900 C 100.847 111.747,100.863 111.763,102.899 110.835 C 107.669 108.662,117.803 108.575,122.629 110.667 C 125.412 111.873,132.260 113.545,138.760 114.606 C 154.275 117.138,172.007 111.870,180.126 102.315 C 180.825 101.494,181.720 100.449,182.117 99.994 C 190.112 90.821,191.153 71.023,184.214 60.110 C 179.427 52.581,173.041 48.044,162.359 44.585 C 152.512 41.396,150.430 40.816,142.689 39.109 C 134.083 37.211,125.808 34.683,125.168 33.757 C 125.086 33.638,124.548 33.301,123.973 33.008 C 111.997 26.906,114.432 10.542,127.797 7.310 C 131.622 6.385,138.479 7.117,142.144 8.842 C 146.344 10.818,148.756 12.081,150.991 13.474 C 153.298 14.912,154.019 15.410,158.415 18.595 C 163.852 22.533,169.128 24.322,175.355 24.336 C 182.860 24.353,183.075 24.055,179.406 18.738 C 178.020 16.729,176.440 14.436,175.896 13.641 C 175.352 12.846,174.766 12.039,174.594 11.848 C 173.623 10.772,171.252 6.848,169.902 4.083 C 169.477 3.214,169.221 2.988,168.838 3.146 C 165.316 4.602,165.183 4.625,159.970 4.627 C 154.552 4.631,153.821 4.524,145.631 2.535 C 136.361 0.284,130.849 -0.323,125.384 0.304 M245.706 0.209 C 231.893 1.464,215.709 11.837,209.211 23.600 C 208.894 24.175,208.199 25.317,207.667 26.139 C 204.210 31.480,201.059 40.592,199.985 48.345 C 199.743 50.097,199.474 51.723,199.388 51.957 C 199.218 52.421,199.188 63.798,199.355 64.526 C 199.412 64.772,199.540 65.310,199.640 65.721 C 199.740 66.131,200.036 67.588,200.298 68.958 C 203.511 85.728,217.695 102.105,235.400 109.484 C 236.468 109.929,237.896 110.544,238.574 110.850 C 242.215 112.496,249.656 113.959,256.012 114.278 C 264.101 114.684,270.839 113.662,283.794 110.061 C 289.612 108.444,296.690 108.814,301.156 110.968 C 302.019 111.384,302.768 111.725,302.819 111.725 C 303.129 111.725,303.003 110.276,300.759 88.125 C 299.107 71.809,299.538 68.847,304.242 64.240 C 304.989 63.507,305.601 62.806,305.601 62.682 C 305.601 62.558,295.822 62.416,283.869 62.365 C 259.576 62.263,260.382 62.332,257.825 60.143 C 255.596 58.234,254.816 55.092,255.776 51.886 C 256.160 50.604,257.827 48.693,258.561 48.693 C 259.098 48.693,259.125 49.046,258.626 49.544 C 257.070 51.100,258.578 55.301,261.151 56.584 C 265.748 58.875,270.126 55.698,269.947 50.201 C 269.611 39.849,253.926 38.060,248.985 47.810 C 246.320 53.069,247.182 60.999,250.782 64.335 C 255.689 68.884,258.934 69.861,269.978 70.111 C 274.291 70.209,277.833 70.303,277.850 70.320 C 277.867 70.337,278.522 77.476,279.306 86.184 L 280.731 102.016 280.003 102.640 C 277.662 104.647,264.306 105.815,259.298 104.452 C 249.524 101.790,238.309 92.867,232.740 83.322 C 232.149 82.309,231.413 81.059,231.105 80.546 C 230.463 79.475,227.633 73.851,226.953 72.293 C 226.702 71.718,226.160 70.508,225.750 69.604 C 221.272 59.738,219.791 40.997,222.697 30.968 C 225.850 20.090,233.047 11.531,241.075 9.114 C 241.486 8.990,241.957 8.783,242.121 8.654 C 243.552 7.531,253.395 7.526,255.863 8.647 C 256.191 8.797,257.401 9.216,258.551 9.579 C 262.686 10.885,266.552 13.532,271.844 18.680 C 281.985 28.546,290.424 32.121,299.739 30.499 C 303.688 29.811,303.813 29.587,301.605 27.146 C 300.721 26.170,299.079 23.998,297.955 22.320 C 296.832 20.641,295.822 19.201,295.711 19.119 C 295.009 18.599,290.869 9.263,289.616 5.377 C 288.526 1.993,288.712 2.070,285.481 3.674 C 279.541 6.622,276.184 6.656,267.460 3.852 C 257.079 0.516,251.890 -0.353,245.706 0.209 M194.324 117.984 C 193.503 118.123,192.158 118.332,191.337 118.449 C 190.515 118.565,189.642 118.759,189.395 118.878 C 189.149 118.998,188.006 119.341,186.856 119.640 C 184.142 120.346,179.999 121.942,177.110 123.394 L 174.815 124.548 174.352 123.572 C 172.655 119.998,163.494 117.261,158.775 118.919 C 158.447 119.035,157.124 119.360,155.836 119.641 C 149.136 121.106,140.678 126.852,136.635 132.686 C 135.991 133.614,135.678 133.832,135.195 133.689 C 110.088 126.223,81.116 136.149,74.237 154.573 C 70.110 165.626,73.435 178.116,82.967 187.364 L 85.337 189.664 79.935 192.398 C 74.687 195.055,74.504 195.123,73.488 194.764 C 68.699 193.075,53.207 187.230,52.128 186.706 C 50.979 186.148,45.228 184.336,41.806 183.454 C 24.669 179.039,10.992 181.633,3.865 190.649 C -4.049 200.661,0.379 216.486,12.332 220.910 C 13.354 221.288,14.459 221.699,14.787 221.822 C 15.980 222.271,16.339 222.312,19.866 222.399 C 23.474 222.489,24.177 222.390,29.873 220.998 C 33.321 220.155,39.188 218.146,43.167 216.445 C 47.063 214.779,65.630 205.574,66.158 205.047 C 66.359 204.845,68.575 203.653,71.082 202.398 L 75.641 200.114 76.880 200.553 C 82.647 202.597,88.432 204.714,89.171 205.051 C 92.527 206.585,102.889 209.456,108.588 210.431 C 132.916 214.594,153.213 205.441,156.109 189.001 L 156.310 187.861 157.393 189.976 C 162.476 199.901,172.754 208.597,183.719 212.250 C 185.116 212.715,186.395 213.198,186.561 213.322 C 188.411 214.704,201.654 215.561,207.344 214.667 C 212.984 213.781,221.367 210.584,226.325 207.429 C 232.511 203.493,239.594 195.839,242.435 190.020 C 243.378 188.090,243.764 187.769,243.764 188.916 C 243.764 191.362,246.636 197.466,249.051 200.152 C 260.093 212.433,283.399 214.835,307.446 206.168 C 308.814 205.676,312.151 204.471,314.862 203.491 C 317.573 202.511,320.799 201.345,322.031 200.901 L 324.272 200.092 329.052 202.536 C 331.680 203.880,334.033 205.156,334.279 205.371 C 334.990 205.993,352.547 214.647,356.833 216.489 C 361.273 218.396,367.379 220.449,370.874 221.210 C 372.188 221.496,373.465 221.801,373.712 221.888 C 373.958 221.976,374.361 222.108,374.608 222.182 C 374.854 222.256,377.005 222.332,379.388 222.351 C 401.930 222.532,407.960 193.286,387.292 184.013 C 380.005 180.743,370.355 180.454,359.074 183.167 C 355.407 184.048,346.666 186.833,346.079 187.307 C 345.915 187.439,345.041 187.817,344.137 188.145 C 343.234 188.474,339.134 190.007,335.026 191.552 C 324.679 195.445,325.375 195.261,323.981 194.478 C 323.345 194.121,320.960 192.895,318.681 191.753 L 314.538 189.677 316.523 187.818 C 326.448 178.525,329.805 165.896,325.444 154.253 C 318.919 136.834,290.584 126.595,266.874 133.089 L 264.227 133.814 263.480 132.852 C 262.217 131.225,256.852 125.972,255.102 124.649 C 245.283 117.229,228.069 116.721,225.518 123.776 L 225.157 124.774 223.587 123.828 C 221.663 122.670,216.637 120.668,213.431 119.783 C 212.123 119.422,210.851 119.053,210.605 118.963 C 210.358 118.874,209.754 118.749,209.261 118.686 C 208.768 118.624,207.961 118.433,207.468 118.263 C 206.317 117.866,196.283 117.653,194.324 117.984 M206.195 123.111 C 223.715 125.323,238.149 138.715,242.703 156.983 C 242.744 157.147,242.858 157.483,242.955 157.730 C 244.076 160.555,244.002 172.469,242.846 175.377 C 242.677 175.800,242.518 176.439,242.491 176.796 C 242.442 177.439,242.382 177.446,236.680 177.446 L 230.919 177.446 230.919 164.615 L 230.919 151.785 229.574 150.661 L 228.230 149.537 228.230 145.759 L 228.230 141.980 226.782 139.773 C 225.985 138.559,224.925 136.826,224.425 135.922 C 222.886 133.140,222.480 133.330,219.759 138.115 L 217.476 142.132 217.464 145.973 L 217.452 149.813 216.120 150.794 L 214.787 151.774 214.787 153.706 C 214.787 155.428,214.723 155.639,214.200 155.639 C 213.657 155.639,213.606 155.392,213.528 152.427 L 213.443 149.216 200.000 149.137 C 184.317 149.046,185.810 148.654,185.810 152.858 C 185.810 154.512,185.689 155.639,185.512 155.639 C 185.347 155.639,185.213 154.917,185.213 154.036 C 185.213 152.222,184.672 151.312,182.967 150.258 L 181.927 149.615 181.914 145.681 L 181.901 141.748 179.748 138.013 C 176.996 133.241,176.789 133.192,174.659 136.819 C 173.839 138.215,173.081 139.425,172.976 139.507 C 171.830 140.399,171.471 141.878,171.471 145.705 L 171.471 149.592 170.127 150.693 L 168.783 151.795 168.783 164.620 L 168.783 177.446 163.144 177.446 L 157.506 177.446 157.294 176.475 C 157.177 175.941,157.011 175.034,156.925 174.459 C 156.839 173.883,156.640 173.170,156.482 172.872 C 156.059 172.074,155.841 164.140,156.185 162.061 C 156.494 160.192,156.567 159.836,157.309 156.579 C 158.703 150.460,162.565 142.550,166.082 138.611 C 177.172 126.189,190.322 121.108,206.195 123.111 M158.028 123.967 C 158.028 127.426,160.798 131.176,163.903 131.919 C 165.292 132.251,165.291 132.338,163.871 133.785 C 160.903 136.813,157.112 142.779,154.876 147.944 L 154.262 149.361 153.576 147.944 C 151.564 143.790,146.773 139.182,141.374 136.212 C 139.667 135.273,139.713 135.134,142.718 132.117 C 147.524 127.294,151.359 124.846,156.198 123.511 C 158.095 122.989,158.028 122.972,158.028 123.967 M244.602 123.845 C 249.318 125.428,251.882 127.064,256.064 131.161 C 260.006 135.022,260.310 135.452,259.313 135.768 C 255.699 136.915,248.183 143.936,246.277 147.946 C 245.753 149.049,245.258 149.416,245.258 148.702 C 245.258 147.120,239.821 138.206,236.506 134.351 C 235.020 132.623,234.847 132.304,235.308 132.141 C 239.439 130.682,241.258 128.563,241.598 124.813 C 241.781 122.803,241.637 122.850,244.602 123.845 M125.317 136.053 C 126.632 136.272,127.976 136.520,128.305 136.606 C 128.633 136.691,129.956 137.032,131.243 137.363 C 134.085 138.094,133.897 137.899,133.388 139.592 C 128.738 155.041,139.752 168.919,150.600 161.280 L 151.386 160.726 151.369 165.725 C 151.351 170.887,151.755 175.079,152.569 178.193 C 155.687 190.116,148.579 201.162,135.015 205.474 C 128.704 207.480,118.168 208.201,111.725 207.067 C 108.024 206.415,101.480 204.898,100.523 204.471 C 100.030 204.250,98.954 203.872,98.133 203.630 C 96.605 203.181,87.433 199.992,83.271 198.464 C 80.342 197.388,80.183 197.641,85.484 194.937 L 90.012 192.627 92.579 193.836 C 100.778 197.700,110.710 199.053,114.679 196.848 C 114.944 196.701,116.062 196.185,117.163 195.702 C 121.726 193.698,124.010 190.052,122.664 186.921 C 119.517 179.601,108.314 179.281,93.056 186.075 C 90.468 187.227,90.348 187.252,89.770 186.745 C 89.441 186.456,88.768 185.969,88.275 185.663 C 83.782 182.873,78.391 174.439,77.364 168.598 C 74.830 154.171,86.714 140.790,105.306 137.136 C 106.290 136.943,107.431 136.658,107.842 136.504 C 110.123 135.647,121.159 135.362,125.317 136.053 M288.899 135.940 C 290.281 136.113,291.680 136.377,292.009 136.525 C 292.338 136.673,293.010 136.861,293.503 136.941 C 315.858 140.596,328.531 158.621,320.196 174.906 C 317.554 180.068,313.468 184.861,310.297 186.518 L 309.229 187.076 306.344 185.839 C 292.041 179.704,282.336 179.592,278.072 185.512 C 273.975 191.200,281.330 197.760,291.807 197.760 C 295.013 197.760,300.754 196.899,301.561 196.298 C 301.729 196.173,302.539 195.832,303.361 195.540 C 304.182 195.249,305.971 194.468,307.337 193.805 L 309.819 192.601 314.431 194.897 C 318.525 196.935,319.760 197.760,318.719 197.760 C 318.541 197.760,316.595 198.430,314.394 199.250 C 312.194 200.069,308.139 201.486,305.384 202.398 C 302.628 203.310,300.105 204.180,299.776 204.332 C 293.965 207.012,278.071 208.393,270.351 206.888 C 267.175 206.269,261.688 204.620,261.688 204.284 C 261.688 204.146,261.494 204.033,261.258 204.033 C 259.969 204.033,254.349 200.327,252.077 197.979 C 247.699 193.454,245.713 185.508,247.230 178.586 C 247.806 175.959,247.833 175.776,248.274 171.668 C 248.465 169.887,248.558 166.695,248.482 164.574 C 248.405 162.452,248.390 160.717,248.448 160.717 C 248.506 160.717,249.257 161.182,250.117 161.750 C 260.548 168.645,271.387 153.574,266.322 139.218 L 265.914 138.063 267.460 137.700 C 268.311 137.500,269.208 137.235,269.455 137.110 C 269.914 136.877,270.260 136.806,274.384 136.097 C 277.296 135.597,285.468 135.508,288.899 135.940 M225.761 151.432 L 228.221 153.398 228.226 173.338 L 228.230 193.279 222.853 193.279 L 217.476 193.279 217.480 173.338 L 217.485 153.398 220.089 151.258 C 221.521 150.080,222.830 149.196,222.997 149.292 C 223.164 149.387,224.408 150.351,225.761 151.432 M179.725 151.382 L 182.225 153.398 182.225 173.338 L 182.226 193.279 176.848 193.279 L 171.471 193.279 171.471 173.325 L 171.471 153.371 173.936 151.384 C 176.966 148.940,176.699 148.940,179.725 151.382 M211.650 153.547 L 211.650 155.788 210.082 155.878 C 208.522 155.968,208.514 155.964,208.514 155.081 C 208.514 153.754,208.227 153.249,207.471 153.249 C 206.770 153.249,206.435 153.901,206.427 155.281 C 206.423 155.922,206.317 155.962,204.854 155.878 L 203.286 155.788 203.192 154.651 C 203.029 152.664,201.344 152.931,201.344 154.944 L 201.344 155.968 199.776 155.878 L 198.208 155.788 198.058 154.593 C 197.940 153.647,197.784 153.398,197.311 153.398 C 196.838 153.398,196.683 153.647,196.565 154.593 L 196.415 155.788 194.772 155.788 L 193.129 155.788 192.980 154.596 C 192.719 152.518,191.202 152.846,191.192 154.982 L 191.187 155.968 189.619 155.878 L 188.051 155.788 187.961 153.878 C 187.911 152.827,187.941 151.784,188.027 151.559 C 188.157 151.221,190.218 151.164,199.917 151.229 L 211.650 151.307 211.650 153.547 M176.060 157.580 C 175.774 158.326,176.188 158.925,176.988 158.925 C 177.629 158.925,177.745 158.788,177.745 158.028 C 177.745 157.034,176.407 156.678,176.060 157.580 M221.957 158.028 C 221.957 158.873,222.037 158.955,222.778 158.870 C 223.430 158.795,223.600 158.621,223.600 158.028 C 223.600 157.436,223.430 157.262,222.778 157.187 C 222.037 157.102,221.957 157.184,221.957 158.028 M212.624 175.579 L 212.547 190.739 209.261 190.739 L 205.975 190.739 205.825 187.304 C 205.612 182.409,204.059 180.250,200.504 179.909 C 196.198 179.495,194.132 181.803,193.882 187.304 L 193.727 190.739 190.441 190.739 L 187.155 190.739 187.077 175.579 L 187.000 160.418 199.851 160.418 L 212.702 160.418 212.624 175.579 M175.952 163.406 C 175.952 164.202,176.052 164.302,176.848 164.302 C 177.645 164.302,177.745 164.202,177.745 163.406 C 177.745 162.609,177.645 162.509,176.848 162.509 C 176.052 162.509,175.952 162.609,175.952 163.406 M189.694 164.899 L 189.694 167.289 192.084 167.289 L 194.473 167.289 194.473 164.899 L 194.473 162.509 192.084 162.509 L 189.694 162.509 189.694 164.899 M197.461 164.899 L 197.461 167.289 199.851 167.289 L 202.240 167.289 202.240 164.899 L 202.240 162.509 199.851 162.509 L 197.461 162.509 197.461 164.899 M204.929 164.899 L 204.929 167.289 207.319 167.289 L 209.709 167.289 209.709 164.899 L 209.709 162.509 207.319 162.509 L 204.929 162.509 204.929 164.899 M221.957 163.386 C 221.957 164.209,222.050 164.302,222.873 164.302 C 224.166 164.302,224.080 162.714,222.778 162.564 C 222.040 162.479,221.957 162.563,221.957 163.386 M176.151 168.086 C 175.543 168.694,175.974 169.679,176.848 169.679 C 177.645 169.679,177.745 169.579,177.745 168.783 C 177.745 167.908,176.760 167.477,176.151 168.086 M221.957 168.763 C 221.957 169.586,222.050 169.679,222.873 169.679 C 224.166 169.679,224.080 168.091,222.778 167.941 C 222.040 167.856,221.957 167.940,221.957 168.763 M189.893 169.878 C 189.783 169.988,189.694 171.063,189.694 172.268 L 189.694 174.459 192.084 174.459 L 194.473 174.459 194.473 172.069 L 194.473 169.679 192.283 169.679 C 191.078 169.679,190.002 169.768,189.893 169.878 M197.461 172.069 L 197.461 174.459 199.851 174.459 L 202.240 174.459 202.240 172.069 L 202.240 169.679 199.851 169.679 L 197.461 169.679 197.461 172.069 M205.128 169.878 C 205.019 169.988,204.929 171.063,204.929 172.268 L 204.929 174.459 207.319 174.459 L 209.709 174.459 209.709 172.069 L 209.709 169.679 207.518 169.679 C 206.313 169.679,205.238 169.768,205.128 169.878 M176.151 173.463 C 175.543 174.071,175.974 175.056,176.848 175.056 C 177.645 175.056,177.745 174.956,177.745 174.160 C 177.745 173.286,176.760 172.855,176.151 173.463 M221.957 174.140 C 221.957 174.963,222.050 175.056,222.873 175.056 C 224.166 175.056,224.080 173.468,222.778 173.318 C 222.040 173.234,221.957 173.317,221.957 174.140 M176.151 178.840 C 175.543 179.448,175.974 180.433,176.848 180.433 C 177.645 180.433,177.745 180.334,177.745 179.537 C 177.745 178.663,176.760 178.232,176.151 178.840 M221.957 179.517 C 221.957 180.340,222.050 180.433,222.873 180.433 C 224.166 180.433,224.080 178.845,222.778 178.696 C 222.040 178.611,221.957 178.694,221.957 179.517 M168.783 188.631 C 168.783 193.669,168.875 195.393,169.156 195.571 C 169.696 195.912,230.087 195.915,230.545 195.574 C 230.825 195.367,230.919 193.612,230.919 188.612 L 230.919 181.927 235.868 181.927 L 240.817 181.927 240.612 182.599 C 238.563 189.320,231.396 198.033,223.600 203.281 C 206.549 214.759,180.893 211.449,167.676 196.066 C 166.994 195.272,166.082 194.220,165.650 193.727 C 163.663 191.458,161.076 187.024,159.421 183.047 L 158.955 181.927 163.869 181.927 L 168.783 181.927 168.783 188.631 M176.007 185.138 C 176.157 186.440,177.745 186.526,177.745 185.233 C 177.745 184.410,177.652 184.317,176.829 184.317 C 176.005 184.317,175.922 184.400,176.007 185.138 M221.957 185.233 C 221.957 186.056,222.040 186.139,222.778 186.054 C 224.080 185.904,224.166 184.317,222.873 184.317 C 222.050 184.317,221.957 184.410,221.957 185.233 M34.503 186.222 C 37.837 186.827,40.965 187.555,41.673 187.891 C 42.001 188.048,44.421 188.870,47.050 189.719 C 52.401 191.448,62.632 195.195,65.161 196.351 C 66.071 196.767,67.380 197.277,68.070 197.484 C 69.595 197.941,69.709 197.835,65.123 200.230 C 63.069 201.303,60.381 202.735,59.149 203.413 C 57.011 204.590,45.494 210.306,45.261 210.306 C 45.117 210.306,41.596 211.893,39.246 213.016 C 31.494 216.724,20.282 218.723,15.599 217.233 C 2.818 213.168,0.295 197.642,11.202 190.184 C 17.626 185.793,25.117 184.519,34.503 186.222 M377.687 185.833 C 396.472 188.641,402.284 208.439,386.608 216.218 L 383.774 217.625 379.415 217.622 C 374.001 217.618,367.328 216.038,361.464 213.372 C 360.560 212.961,359.081 212.296,358.178 211.894 C 353.742 209.920,352.626 209.398,348.322 207.286 C 345.774 206.036,342.479 204.343,341.001 203.523 C 339.522 202.702,336.522 201.119,334.334 200.003 L 330.357 197.974 331.795 197.441 C 332.586 197.148,334.108 196.543,335.176 196.096 C 354.306 188.096,369.037 184.539,377.687 185.833 M77.412 222.424 C 76.038 222.805,74.211 223.205,73.351 223.312 C 71.000 223.606,70.900 223.779,72.279 225.159 L 73.488 226.367 73.488 241.503 C 73.488 257.846,73.526 257.432,71.873 258.977 C 70.620 260.147,70.820 260.194,77.072 260.194 C 80.358 260.194,83.047 260.100,83.047 259.984 C 83.047 259.869,82.610 259.324,82.076 258.773 L 81.105 257.771 81.024 239.715 C 80.948 222.823,80.909 221.660,80.426 221.694 C 80.143 221.714,78.786 222.042,77.412 222.424 M160.717 222.721 C 159.320 223.267,157.472 223.804,156.609 223.915 C 154.945 224.129,154.554 224.662,155.635 225.241 C 157.109 226.030,157.132 226.287,157.132 241.801 C 157.132 256.993,156.994 258.701,155.762 258.701 C 154.617 258.701,154.143 256.531,153.258 247.261 C 152.785 242.298,152.266 237.894,152.106 237.474 C 149.791 231.415,137.222 232.060,133.978 238.403 C 132.217 241.848,132.888 243.296,135.161 240.957 C 135.896 240.201,136.627 239.582,136.786 239.582 C 136.945 239.582,137.310 239.347,137.597 239.059 C 138.774 237.882,144.308 238.765,144.283 240.125 C 144.281 240.237,142.840 241.068,141.081 241.972 C 132.036 246.618,129.053 252.490,133.017 257.851 C 135.240 260.857,142.058 262.129,145.741 260.223 C 146.677 259.740,147.138 259.640,147.369 259.871 C 147.828 260.330,166.393 260.323,166.393 259.864 C 166.393 259.682,166.060 259.272,165.653 258.952 C 164.118 257.744,163.679 250.172,165.090 249.237 C 165.708 248.828,165.794 248.937,167.711 252.560 C 170.094 257.065,170.296 257.825,169.421 259.007 C 169.070 259.482,168.783 259.944,168.783 260.033 C 168.783 260.122,173.891 260.194,180.134 260.194 C 186.378 260.194,191.486 260.083,191.486 259.948 C 191.486 259.812,191.133 259.375,190.701 258.977 C 189.125 257.524,189.096 257.264,189.096 244.520 C 189.096 238.025,189.021 232.711,188.930 232.711 C 188.838 232.711,187.528 233.109,186.017 233.596 C 182.012 234.887,180.732 235.135,180.732 234.621 C 180.732 234.278,179.601 234.205,174.309 234.205 C 167.566 234.205,167.160 234.294,168.639 235.458 C 171.285 237.539,170.763 239.882,166.710 244.113 L 164.325 246.602 164.313 234.130 C 164.302 222.442,164.269 221.660,163.779 221.693 C 163.491 221.713,162.114 222.175,160.717 222.721 M183.245 222.820 C 180.373 224.571,180.165 228.063,182.817 229.984 C 186.473 232.632,191.014 228.402,188.849 224.365 C 187.809 222.426,185.111 221.682,183.245 222.820 M49.106 223.734 C 39.837 225.947,38.798 237.806,47.505 242.016 C 48.405 242.452,51.158 243.368,53.622 244.053 C 62.502 246.522,63.412 246.917,65.002 249.002 C 70.173 255.781,58.420 261.643,50.635 256.167 C 45.170 252.323,44.143 251.845,41.336 251.836 C 38.414 251.827,38.183 252.162,39.591 254.363 C 40.186 255.293,41.035 256.817,41.478 257.751 C 42.692 260.305,42.538 260.190,44.110 259.717 C 46.105 259.116,47.200 259.192,51.232 260.212 C 62.565 263.077,71.057 258.886,71.619 250.153 C 71.962 244.807,69.858 241.078,65.258 238.882 C 64.280 238.415,63.241 237.908,62.950 237.754 C 62.658 237.601,60.186 236.939,57.456 236.284 C 49.796 234.444,48.096 233.371,48.096 230.375 C 48.096 225.203,53.699 224.697,60.638 229.244 C 64.468 231.753,68.644 232.809,69.183 231.403 C 69.483 230.623,65.357 224.330,64.675 224.527 C 62.848 225.056,60.649 224.964,57.452 224.224 C 54.134 223.455,51.035 223.273,49.106 223.734 M235.863 223.787 C 232.449 224.587,228.461 227.390,226.566 230.321 C 226.088 231.060,225.600 231.737,225.483 231.824 C 223.543 233.266,221.996 242.122,222.966 246.229 C 225.519 257.041,236.493 262.936,248.746 260.077 C 252.635 259.170,253.414 259.133,255.283 259.768 C 257.091 260.381,257.010 260.851,256.310 253.768 C 255.643 247.015,255.711 246.224,257.066 244.951 C 258.282 243.808,258.065 243.764,251.158 243.757 C 242.279 243.747,241.344 243.492,241.399 241.093 L 241.423 240.030 241.851 241.010 C 242.875 243.353,246.154 242.719,246.154 240.178 C 246.154 236.365,240.799 235.483,238.914 238.984 C 236.769 242.967,239.487 246.184,245.183 246.403 C 247.201 246.480,248.245 246.636,248.246 246.860 C 248.247 247.363,248.813 253.853,248.996 255.458 C 249.192 257.186,248.542 257.506,244.840 257.505 C 230.089 257.504,224.133 227.342,238.717 226.497 C 241.769 226.321,243.599 227.135,246.555 229.984 C 249.777 233.089,252.492 234.233,255.550 233.774 C 257.206 233.526,257.216 233.391,255.720 231.410 C 254.509 229.806,252.427 225.647,252.427 224.832 C 252.427 224.061,251.896 224.002,250.657 224.634 C 249.052 225.453,247.927 225.403,244.163 224.347 C 240.837 223.412,238.215 223.236,235.863 223.787 M356.875 228.647 C 355.041 230.886,352.511 233.298,350.221 234.991 C 347.621 236.914,347.531 237.192,349.515 237.192 L 351.008 237.192 351.010 246.677 C 351.012 256.599,351.156 258.001,352.306 259.249 C 354.529 261.661,359.807 261.188,361.688 258.410 C 362.866 256.670,362.375 255.033,361.049 256.279 C 358.804 258.388,358.476 257.127,358.476 246.386 L 358.476 237.192 360.119 237.192 L 361.763 237.192 361.763 235.698 L 361.763 234.205 360.119 234.205 L 358.476 234.205 358.476 230.936 C 358.476 227.125,358.313 226.891,356.875 228.647 M288.723 233.607 C 287.737 234.071,285.855 234.753,284.541 235.121 C 281.542 235.961,281.400 236.091,282.355 237.115 C 283.774 238.636,283.794 238.785,283.793 248.001 C 283.793 255.740,283.732 256.880,283.271 257.804 C 281.867 260.614,280.994 258.011,280.066 248.245 C 279.652 243.891,279.230 239.791,279.128 239.134 C 277.964 231.607,265.088 231.069,260.658 238.361 C 258.666 241.640,259.462 243.270,261.878 240.862 C 264.510 238.241,267.696 237.606,269.997 239.244 C 271.296 240.169,271.275 240.201,268.500 241.538 C 259.935 245.667,256.263 250.960,258.459 256.012 C 260.318 260.291,267.458 262.481,272.288 260.255 C 273.188 259.840,273.818 259.692,273.881 259.881 C 273.994 260.220,293.055 260.347,293.055 260.010 C 293.055 259.908,292.651 259.366,292.158 258.804 L 291.262 257.784 291.262 251.212 C 291.262 241.719,292.057 240.395,296.795 241.996 C 300.098 243.112,302.297 241.906,302.551 238.839 C 303.043 232.908,295.567 231.760,291.778 237.184 C 291.272 237.908,291.262 237.871,291.262 235.317 C 291.262 232.330,291.332 232.377,288.723 233.607 M331.470 233.476 C 330.336 233.872,328.353 234.362,327.064 234.565 C 324.467 234.974,324.414 235.034,325.438 236.390 C 327.142 238.649,327.516 254.967,325.927 257.743 L 325.192 259.026 324.479 257.623 C 323.780 256.247,323.578 254.844,322.786 245.855 C 322.691 244.787,322.555 243.510,322.481 243.017 C 322.408 242.524,322.266 241.323,322.165 240.348 C 321.643 235.282,318.603 233.089,312.506 233.379 C 307.192 233.631,302.627 237.219,302.617 241.150 C 302.613 242.494,303.466 242.723,304.095 241.547 C 305.522 238.880,310.790 237.539,312.990 239.283 C 314.249 240.281,314.319 240.182,311.352 241.597 C 302.512 245.813,298.985 251.254,301.675 256.525 C 303.678 260.453,310.648 262.381,315.226 260.274 C 316.043 259.899,316.711 259.745,316.812 259.910 C 317.030 260.262,336.072 260.299,336.072 259.948 C 336.072 259.812,335.735 259.385,335.324 258.999 C 334.141 257.887,333.984 256.648,333.982 248.413 C 333.981 240.868,333.998 240.638,334.653 239.676 C 335.914 237.822,337.887 237.324,339.266 238.510 L 340.105 239.231 340.105 248.443 C 340.105 256.630,340.046 257.768,339.582 258.672 C 339.294 259.231,339.059 259.802,339.059 259.941 C 339.059 260.080,341.344 260.194,344.137 260.194 C 349.676 260.194,349.842 260.133,348.394 258.623 L 347.573 257.767 347.423 247.703 C 347.259 236.642,347.255 236.615,345.334 234.999 C 342.871 232.926,338.094 233.149,335.101 235.475 L 333.981 236.346 333.981 234.528 C 333.981 233.529,333.880 232.721,333.757 232.733 C 333.633 232.745,332.604 233.080,331.470 233.476 M92.606 233.508 C 84.617 235.173,80.328 246.846,84.839 254.651 C 91.403 266.011,107.244 260.675,107.244 247.105 C 107.244 238.398,100.262 231.912,92.606 233.508 M198.700 233.905 C 196.905 234.551,196.636 234.726,194.844 236.419 C 192.978 238.181,191.591 242.270,192.860 242.270 C 193.122 242.270,193.932 241.608,194.660 240.798 C 197.013 238.182,200.865 237.542,202.844 239.439 L 203.734 240.291 200.135 242.152 C 195.318 244.643,194.315 245.416,192.418 248.096 C 191.038 250.046,190.180 253.726,190.886 254.668 C 191.009 254.832,191.278 255.488,191.483 256.126 C 192.803 260.218,200.209 262.496,205.004 260.285 C 205.784 259.925,206.423 259.757,206.423 259.912 C 206.423 260.077,208.405 260.194,211.202 260.194 C 215.966 260.194,216.685 260.027,215.360 259.226 C 213.868 258.325,213.562 256.988,212.646 247.382 C 211.700 237.451,211.567 236.910,209.669 235.285 C 207.349 233.300,202.188 232.650,198.700 233.905 M103.958 234.381 C 103.958 234.478,104.597 235.275,105.377 236.152 C 106.488 237.402,107.176 238.676,108.549 242.026 C 110.650 247.153,110.891 247.712,112.316 250.784 C 112.926 252.099,114.120 254.922,114.970 257.058 C 117.060 262.312,116.589 261.890,119.537 261.150 C 120.909 260.806,122.939 260.432,124.048 260.318 C 126.396 260.078,126.441 259.999,124.915 258.773 C 122.790 257.066,122.792 256.857,124.987 250.615 C 128.014 242.008,129.587 238.675,131.948 235.869 C 133.369 234.179,133.438 234.205,127.558 234.205 C 124.600 234.205,122.181 234.250,122.181 234.306 C 122.181 234.362,122.614 235.270,123.144 236.323 C 124.736 239.485,124.493 243.283,122.252 250.261 C 121.380 252.976,121.266 253.104,120.793 251.904 C 120.615 251.453,119.308 248.222,117.890 244.726 C 115.090 237.826,114.926 237.005,116.057 235.522 C 116.468 234.984,116.804 234.467,116.804 234.374 C 116.804 234.281,113.913 234.205,110.381 234.205 C 106.848 234.205,103.958 234.284,103.958 234.381 M96.772 236.077 C 98.605 237.004,98.730 237.708,98.730 247.050 C 98.730 257.279,98.275 258.701,94.996 258.701 C 91.881 258.701,91.345 256.828,91.468 246.388 C 91.580 236.877,91.983 235.707,95.146 235.707 C 95.639 235.707,96.371 235.873,96.772 236.077 M180.525 236.531 C 181.808 237.949,181.927 238.890,181.927 247.647 C 181.927 256.397,181.803 257.390,180.586 258.399 C 179.626 259.195,179.158 258.465,172.704 246.112 L 171.200 243.232 173.354 241.183 C 178.127 236.642,179.701 235.620,180.525 236.531 M272.561 248.992 C 272.833 251.785,273.134 254.682,273.228 255.430 C 273.541 257.907,270.046 258.653,268.065 256.532 C 264.673 252.900,265.710 247.616,270.500 244.125 C 272.020 243.017,271.965 242.888,272.561 248.992 M145.314 244.436 C 145.400 244.970,145.614 246.751,145.788 248.394 C 146.163 251.932,146.279 252.959,146.535 255.018 C 146.987 258.662,142.367 258.645,140.473 254.995 C 138.719 251.616,139.701 247.719,143.021 244.884 C 144.992 243.200,145.109 243.178,145.314 244.436 M204.650 243.839 C 204.660 244.044,204.969 247.016,205.336 250.444 L 206.003 256.675 205.376 257.086 C 201.478 259.640,197.338 253.838,199.303 248.575 C 200.078 246.498,204.581 242.509,204.650 243.839 M314.886 243.540 C 315.209 244.540,316.218 256.552,316.002 256.818 C 312.913 260.614,307.867 254.360,309.533 248.800 C 310.120 246.841,314.547 242.490,314.886 243.540 M54.966 269.903 L 54.966 271.247 202.108 271.247 L 349.250 271.247 349.158 269.978 L 349.066 268.708 202.016 268.633 L 54.966 268.558 54.966 269.903 M125.168 280.414 C 121.511 280.623,120.403 281.404,122.405 282.362 L 123.226 282.756 123.306 289.813 L 123.386 296.871 122.634 297.059 C 122.147 297.182,121.882 297.457,121.882 297.840 C 121.882 298.398,122.093 298.432,125.616 298.432 C 127.685 298.432,129.350 298.309,129.350 298.157 C 129.350 297.476,128.940 296.938,128.422 296.938 C 127.933 296.938,127.857 296.707,127.857 295.236 L 127.857 293.534 128.818 294.863 C 129.347 295.593,129.861 296.258,129.961 296.341 C 130.060 296.423,130.396 296.927,130.707 297.461 L 131.271 298.432 137.779 298.432 C 144.114 298.432,144.287 298.416,144.287 297.827 C 144.287 297.457,143.997 297.112,143.540 296.938 C 142.596 296.579,142.366 290.537,143.262 289.641 C 144.118 288.785,145.222 288.707,145.831 289.458 C 146.784 290.635,146.633 296.404,145.631 297.060 C 143.982 298.140,144.616 298.432,148.618 298.432 C 152.169 298.432,152.353 298.402,152.353 297.827 C 152.353 297.457,152.063 297.112,151.606 296.938 C 150.873 296.659,150.859 296.593,150.857 293.435 C 150.855 289.559,150.535 288.260,149.334 287.248 C 148.149 286.252,145.551 286.169,144.056 287.081 C 142.858 287.811,142.898 287.811,142.706 287.076 C 142.557 286.509,138.601 286.420,136.893 286.946 C 136.174 287.168,136.504 288.138,137.416 288.482 L 138.312 288.820 138.312 292.844 C 138.312 296.784,138.298 296.871,137.640 296.984 C 136.147 297.239,135.658 296.911,134.091 294.604 C 133.233 293.341,132.262 291.940,131.933 291.490 C 131.604 291.040,131.392 290.625,131.463 290.567 C 132.381 289.817,134.661 288.460,135.277 288.296 C 135.779 288.163,136.107 287.845,136.167 287.433 C 136.260 286.797,136.185 286.781,132.956 286.781 C 129.859 286.781,129.649 286.819,129.649 287.373 C 129.649 287.755,129.914 288.031,130.396 288.152 C 131.411 288.407,131.357 288.571,129.733 290.171 C 127.802 292.076,127.857 292.187,127.857 286.358 C 127.857 281.049,127.755 280.167,127.153 280.264 C 126.965 280.295,126.072 280.362,125.168 280.414 M218.223 280.391 C 217.894 280.446,216.684 280.529,215.534 280.574 C 213.374 280.660,212.251 281.921,214.040 282.254 C 215.360 282.499,215.385 282.641,215.385 289.954 C 215.385 296.480,215.349 296.938,214.847 296.938 C 214.218 296.938,213.592 297.489,213.592 298.043 C 213.592 298.342,214.488 298.432,217.476 298.432 C 221.634 298.432,222.277 298.150,220.612 297.060 C 219.502 296.333,219.460 290.552,220.557 289.522 C 222.409 287.782,223.269 288.905,223.407 293.241 L 223.514 296.623 222.735 296.978 C 220.682 297.913,221.736 298.432,225.691 298.432 C 229.214 298.432,229.425 298.398,229.425 297.840 C 229.425 297.458,229.160 297.182,228.678 297.061 C 227.938 296.875,227.931 296.845,227.930 293.545 C 227.928 289.559,227.615 288.266,226.406 287.248 C 224.988 286.056,221.678 286.207,220.360 287.524 C 219.900 287.984,219.866 287.760,219.866 284.295 C 219.866 280.843,219.578 279.676,218.870 280.250 C 218.843 280.272,218.551 280.336,218.223 280.391 M299.029 280.434 C 295.417 280.696,293.885 281.705,296.351 282.198 C 297.590 282.446,298.133 283.341,298.133 285.136 L 298.133 286.643 295.936 286.533 C 291.252 286.296,288.576 289.497,289.470 294.268 C 290.165 297.976,294.005 299.953,297.252 298.275 C 298.056 297.859,298.133 297.862,298.133 298.312 C 298.133 298.705,298.323 298.767,299.066 298.618 C 299.580 298.516,300.991 298.432,302.203 298.432 C 304.759 298.432,305.532 297.393,303.435 296.776 L 302.465 296.490 302.385 288.357 L 302.306 280.224 301.190 280.291 C 300.577 280.328,299.604 280.393,299.029 280.434 M75.035 282.674 C 75.095 283.097,75.371 283.380,75.778 283.438 C 77.137 283.632,77.875 284.798,79.146 288.756 C 79.825 290.874,80.864 293.984,81.455 295.668 L 82.529 298.730 83.939 298.730 L 85.350 298.730 86.029 296.415 C 86.402 295.142,86.809 293.966,86.932 293.801 C 87.056 293.637,87.540 292.259,88.009 290.739 C 88.478 289.220,88.931 287.977,89.016 287.977 C 89.101 287.978,89.979 290.364,90.966 293.280 L 92.761 298.581 94.133 298.670 C 95.846 298.782,95.979 298.595,97.512 293.951 C 100.678 284.355,100.652 284.414,101.909 283.773 C 104.319 282.543,103.569 282.001,99.456 282.001 C 95.929 282.001,95.853 282.016,95.946 282.648 C 96.015 283.115,96.374 283.389,97.237 283.632 C 98.205 283.905,98.415 284.090,98.342 284.606 C 98.136 286.072,95.984 292.901,95.745 292.849 C 95.602 292.818,94.665 290.399,93.663 287.472 L 91.841 282.151 90.331 282.062 L 88.820 281.974 87.686 285.796 C 87.062 287.899,86.449 289.754,86.322 289.918 C 86.196 290.082,85.927 290.822,85.724 291.561 L 85.355 292.905 84.075 289.058 C 82.232 283.525,82.272 283.815,83.339 283.601 C 84.040 283.461,84.242 283.262,84.242 282.711 L 84.242 282.001 79.591 282.001 L 74.940 282.001 75.035 282.674 M245.258 285.138 L 245.258 286.781 244.212 286.781 C 243.250 286.781,243.167 286.852,243.167 287.677 C 243.167 288.499,243.252 288.574,244.190 288.574 L 245.214 288.574 245.310 292.932 C 245.438 298.706,246.858 299.886,251.870 298.384 C 253.637 297.855,253.557 296.641,251.755 296.635 C 249.653 296.627,249.602 296.529,249.490 292.319 L 249.391 288.574 251.059 288.574 C 252.712 288.574,252.726 288.566,252.726 287.677 C 252.726 286.790,252.709 286.781,251.083 286.781 L 249.440 286.781 249.440 285.138 L 249.440 283.495 247.349 283.495 L 245.258 283.495 245.258 285.138 M260.493 285.138 L 260.493 286.781 259.447 286.781 C 258.485 286.781,258.402 286.852,258.402 287.677 C 258.402 288.502,258.485 288.574,259.447 288.574 L 260.493 288.574 260.493 292.317 C 260.493 298.385,262.283 300.054,267.020 298.402 C 268.497 297.888,268.370 296.641,266.841 296.635 C 264.907 296.627,264.836 296.482,264.719 292.319 L 264.614 288.574 266.287 288.574 C 267.948 288.574,267.961 288.567,267.961 287.677 C 267.961 286.790,267.945 286.781,266.318 286.781 L 264.675 286.781 264.675 285.138 L 264.675 283.495 262.584 283.495 L 260.493 283.495 260.493 285.138 M106.124 287.057 C 105.426 287.382,104.852 287.756,104.850 287.887 C 104.847 288.018,104.447 288.577,103.961 289.128 C 101.797 291.584,102.543 295.707,105.559 297.959 C 108.025 299.801,115.609 298.026,115.609 295.607 C 115.609 294.998,114.131 294.458,113.926 294.992 C 113.052 297.268,108.953 297.046,107.959 294.668 C 107.168 292.774,107.155 292.782,111.352 292.690 L 115.161 292.606 115.123 291.088 C 115.028 287.238,110.291 285.116,106.124 287.057 M156.842 286.815 C 152.258 288.645,151.491 295.127,155.557 297.685 C 162.608 302.120,170.751 293.855,164.998 288.102 C 163.485 286.589,159.130 285.902,156.842 286.815 M233.607 286.663 C 230.177 287.899,229.486 290.526,232.360 291.403 C 234.015 291.908,235.550 290.439,235.080 288.800 C 234.862 288.040,234.909 287.976,235.683 287.976 C 236.799 287.976,237.250 288.591,237.137 289.957 L 237.043 291.084 234.378 291.903 C 230.961 292.953,230.172 293.680,230.172 295.776 C 230.172 298.468,233.190 299.662,236.501 298.278 C 237.468 297.874,237.637 297.874,238.083 298.278 C 238.597 298.743,241.447 298.903,242.793 298.542 C 243.770 298.280,243.738 296.938,242.755 296.938 C 241.487 296.938,241.273 296.305,241.500 293.218 C 241.891 287.886,241.029 286.667,236.795 286.567 C 235.288 286.531,233.854 286.575,233.607 286.663 M272.591 286.697 C 269.459 287.458,267.529 292.138,269.037 295.317 C 271.237 299.952,279.551 300.104,281.693 295.548 C 284.293 290.016,279.223 285.086,272.591 286.697 M308.140 287.027 C 303.502 289.225,303.921 296.842,308.768 298.441 C 310.243 298.928,314.434 298.682,315.668 298.036 C 319.302 296.134,319.457 290.396,315.951 287.559 C 314.483 286.370,310.148 286.075,308.140 287.027 M166.990 287.282 C 166.990 287.558,167.374 288.129,167.843 288.552 C 168.471 289.118,169.147 290.558,170.416 294.025 L 172.136 298.730 173.560 298.730 L 174.983 298.730 175.597 297.013 C 175.934 296.068,176.477 294.488,176.804 293.503 C 177.353 291.847,177.419 291.767,177.669 292.457 C 177.818 292.868,178.319 294.279,178.783 295.594 C 179.838 298.583,179.957 298.730,181.329 298.730 C 182.700 298.730,182.817 298.587,183.887 295.594 C 185.636 290.705,186.560 288.730,187.238 288.428 C 189.032 287.631,188.065 286.781,185.362 286.781 C 182.639 286.781,181.699 287.564,183.570 288.275 C 184.469 288.617,184.485 288.887,183.737 291.060 C 182.596 294.378,182.662 294.420,180.869 289.246 L 180.016 286.781 178.605 286.781 L 177.194 286.781 176.248 289.843 C 175.131 293.462,174.965 293.700,174.463 292.399 C 174.253 291.856,173.830 290.865,173.523 290.197 C 172.781 288.582,172.812 288.380,173.836 288.175 C 174.534 288.036,174.676 287.879,174.548 287.391 C 174.325 286.537,166.990 286.431,166.990 287.282 M192.980 287.369 C 192.980 287.698,193.320 288.135,193.750 288.361 C 194.364 288.682,194.843 289.611,196.104 292.926 C 196.975 295.215,197.837 297.464,198.021 297.925 C 198.330 298.701,198.461 298.756,199.775 298.672 L 201.194 298.581 202.313 295.322 C 202.928 293.529,203.472 292.022,203.520 291.974 C 203.569 291.925,203.988 292.989,204.451 294.337 C 206.042 298.967,205.907 298.777,207.526 298.672 L 208.945 298.581 209.904 295.892 C 212.024 289.944,212.582 288.737,213.400 288.333 C 215.226 287.432,214.430 286.781,211.501 286.781 C 208.534 286.781,207.599 287.584,209.709 288.320 C 210.202 288.491,210.605 288.663,210.605 288.700 C 210.605 288.913,209.115 293.101,208.907 293.473 C 208.732 293.786,208.266 292.851,207.350 290.350 L 206.043 286.781 204.665 286.787 L 203.286 286.794 202.219 290.148 L 201.151 293.503 200.335 291.740 C 199.096 289.064,199.028 288.396,199.971 288.160 C 200.480 288.032,200.747 287.761,200.747 287.373 C 200.747 286.813,200.535 286.781,196.863 286.781 C 193.200 286.781,192.980 286.815,192.980 287.369 M109.869 288.350 C 110.753 289.419,110.621 290.871,109.622 291.070 C 107.649 291.465,107.447 291.374,107.640 290.180 C 107.922 288.442,109.128 287.452,109.869 288.350 M161.389 289.171 C 162.561 291.519,161.872 296.943,160.350 297.341 C 158.524 297.819,157.452 294.884,157.994 290.892 C 158.397 287.916,160.284 286.959,161.389 289.171 M276.980 289.380 C 277.651 290.897,277.622 295.034,276.931 296.325 C 276.020 298.028,274.157 297.673,273.624 295.695 C 272.243 290.567,275.115 285.164,276.980 289.380 M297.400 288.709 C 299.184 290.493,298.325 296.606,296.287 296.630 C 293.039 296.668,293.177 288.273,296.429 287.996 C 296.560 287.985,296.996 288.306,297.400 288.709 M312.651 288.205 C 314.394 289.368,314.321 296.001,312.554 297.159 C 310.457 298.533,308.795 294.485,309.667 290.125 C 309.998 288.469,311.551 287.470,312.651 288.205 M237.192 294.388 C 237.192 296.157,236.588 296.867,235.404 296.491 C 233.675 295.942,234.982 293.102,237.117 292.767 C 237.158 292.761,237.192 293.490,237.192 294.388 " stroke="none" fill="#ffffff" fill-rule="evenodd"></path><path id="path3" d="M188.027 151.559 C 187.941 151.784,187.911 152.827,187.961 153.878 L 188.051 155.788 189.621 155.814 L 191.191 155.840 189.695 155.724 L 188.200 155.607 188.200 153.532 L 188.200 151.456 199.851 151.456 L 211.501 151.456 211.501 153.532 L 211.501 155.607 210.006 155.724 L 208.510 155.840 210.080 155.814 L 211.650 155.788 211.650 153.547 L 211.650 151.307 199.917 151.229 C 190.218 151.164,188.157 151.221,188.027 151.559 M171.804 153.058 C 171.559 153.353,171.489 158.932,171.546 173.446 L 171.625 193.428 171.697 173.398 C 171.752 158.300,171.858 153.280,172.128 153.010 C 172.326 152.813,172.409 152.651,172.314 152.651 C 172.220 152.651,171.990 152.834,171.804 153.058 M181.927 173.204 L 182.076 193.428 182.153 173.430 C 182.195 162.431,182.128 153.330,182.004 153.206 C 181.879 153.081,181.845 162.081,181.927 173.204 M227.931 173.204 L 228.081 193.428 228.157 173.430 C 228.200 162.431,228.133 153.330,228.008 153.206 C 227.884 153.081,227.849 162.081,227.931 173.204 M192.962 154.536 L 193.129 155.788 194.772 155.788 L 196.415 155.788 196.582 154.536 C 196.674 153.847,196.641 153.351,196.508 153.433 C 196.375 153.515,196.266 154.045,196.266 154.611 L 196.266 155.639 194.772 155.639 L 193.279 155.639 193.279 154.611 C 193.279 154.045,193.170 153.515,193.037 153.433 C 192.904 153.351,192.870 153.847,192.962 154.536 M198.041 154.536 L 198.208 155.788 199.701 155.811 L 201.195 155.835 199.776 155.721 C 198.385 155.610,198.357 155.588,198.357 154.595 C 198.357 154.038,198.248 153.515,198.115 153.433 C 197.982 153.351,197.949 153.847,198.041 154.536 M203.119 154.536 L 203.286 155.788 204.780 155.811 L 206.273 155.835 204.854 155.721 C 203.463 155.610,203.435 155.588,203.435 154.595 C 203.435 154.038,203.327 153.515,203.194 153.433 C 203.061 153.351,203.027 153.847,203.119 154.536 M176.146 157.061 C 176.057 157.205,176.380 157.265,176.864 157.194 C 177.684 157.073,177.745 157.131,177.745 158.028 C 177.745 158.930,177.686 158.984,176.848 158.861 C 176.355 158.789,175.952 158.849,175.952 158.995 C 175.952 159.141,176.389 159.219,176.923 159.168 C 178.274 159.037,178.429 157.045,177.101 156.891 C 176.664 156.841,176.235 156.917,176.146 157.061 M221.957 156.949 C 221.957 157.012,222.353 157.123,222.837 157.194 C 223.321 157.265,223.649 157.213,223.566 157.078 C 223.418 156.839,221.957 156.721,221.957 156.949 M222.704 158.925 L 221.807 159.153 222.778 159.188 C 223.312 159.207,223.749 159.089,223.749 158.925 C 223.749 158.760,223.715 158.642,223.674 158.661 C 223.633 158.681,223.196 158.799,222.704 158.925 M187.077 175.579 L 187.155 190.739 190.441 190.739 L 193.727 190.739 193.880 187.304 C 193.967 185.368,194.200 183.575,194.414 183.196 C 194.622 182.827,194.714 182.524,194.618 182.524 C 194.057 182.524,193.577 184.862,193.577 187.593 L 193.577 190.590 190.441 190.590 L 187.304 190.590 187.304 175.653 L 187.304 160.717 199.851 160.717 L 212.397 160.717 212.397 175.653 L 212.397 190.590 209.271 190.590 L 206.145 190.590 206.042 187.528 L 205.940 184.466 205.957 187.603 L 205.975 190.739 209.261 190.739 L 212.547 190.739 212.624 175.579 L 212.702 160.418 199.851 160.418 L 187.000 160.418 187.077 175.579 M177.785 163.311 C 177.751 164.106,177.610 164.282,176.923 164.386 L 176.102 164.511 176.932 164.556 C 177.846 164.605,178.165 164.138,177.958 163.054 C 177.855 162.515,177.817 162.572,177.785 163.311 M194.473 164.887 L 194.473 167.265 192.009 167.366 L 189.544 167.466 192.158 167.527 L 194.772 167.588 194.772 165.049 C 194.772 163.652,194.705 162.509,194.623 162.509 C 194.541 162.509,194.473 163.579,194.473 164.887 M197.293 165.049 L 197.311 167.438 199.701 167.456 L 202.091 167.475 199.788 167.370 L 197.485 167.265 197.380 164.962 L 197.275 162.659 197.293 165.049 M209.768 164.812 L 209.709 167.265 207.244 167.366 L 204.780 167.466 207.254 167.527 C 210.148 167.598,210.077 167.676,209.931 164.572 L 209.827 162.360 209.768 164.812 M221.733 163.480 C 221.797 164.313,221.925 164.456,222.633 164.487 C 223.352 164.519,223.364 164.507,222.725 164.395 C 222.195 164.301,221.946 164.022,221.825 163.387 C 221.666 162.552,221.662 162.557,221.733 163.480 M177.785 168.689 C 177.749 169.529,177.630 169.655,176.774 169.761 L 175.803 169.882 176.783 169.930 C 177.852 169.982,178.175 169.570,177.958 168.431 C 177.856 167.892,177.817 167.950,177.785 168.689 M221.778 169.081 C 221.802 169.699,221.962 169.833,222.704 169.856 C 223.511 169.881,223.520 169.872,222.796 169.764 C 222.257 169.683,221.953 169.429,221.871 168.989 C 221.771 168.452,221.755 168.468,221.778 169.081 M194.473 172.057 L 194.473 174.434 192.009 174.535 L 189.544 174.636 192.158 174.696 L 194.772 174.757 194.772 172.218 C 194.772 170.822,194.705 169.679,194.623 169.679 C 194.541 169.679,194.473 170.749,194.473 172.057 M209.709 172.057 L 209.709 174.434 207.244 174.535 L 204.780 174.636 207.394 174.696 L 210.007 174.757 210.007 172.218 C 210.007 170.822,209.940 169.679,209.858 169.679 C 209.776 169.679,209.709 170.749,209.709 172.057 M197.291 172.292 L 197.311 174.608 199.701 174.626 L 202.091 174.644 199.788 174.539 L 197.485 174.435 197.378 172.205 L 197.271 169.976 197.291 172.292 M177.779 174.216 C 177.750 174.888,177.587 175.038,176.774 175.139 L 175.803 175.259 176.783 175.307 C 177.820 175.357,178.203 174.914,177.954 173.953 C 177.860 173.592,177.802 173.678,177.779 174.216 M221.778 174.459 C 221.802 175.076,221.962 175.210,222.704 175.233 C 223.511 175.258,223.520 175.249,222.796 175.141 C 222.257 175.060,221.953 174.806,221.871 174.366 C 221.771 173.829,221.755 173.845,221.778 174.459 M177.779 179.593 C 177.750 180.265,177.587 180.415,176.774 180.516 L 175.803 180.636 176.783 180.684 C 177.820 180.735,178.203 180.292,177.954 179.330 C 177.860 178.969,177.802 179.056,177.779 179.593 M221.778 179.836 C 221.802 180.453,221.962 180.587,222.704 180.610 C 223.511 180.635,223.520 180.626,222.796 180.518 C 222.257 180.437,221.953 180.183,221.871 179.743 C 221.771 179.206,221.755 179.222,221.778 179.836 M176.830 184.185 C 177.465 184.306,177.744 184.555,177.838 185.085 C 177.950 185.724,177.962 185.712,177.930 184.992 C 177.899 184.285,177.756 184.157,176.923 184.093 C 175.999 184.022,175.995 184.026,176.830 184.185 M221.773 184.449 C 221.682 184.685,221.670 185.122,221.747 185.419 C 221.841 185.781,221.899 185.694,221.922 185.157 C 221.951 184.485,222.114 184.335,222.928 184.234 L 223.898 184.114 222.918 184.066 C 222.305 184.036,221.876 184.179,221.773 184.449 " stroke="none" fill="#ffffff" fill-rule="evenodd"></path><path id="path4" d="M188.301 153.547 C 188.301 154.780,188.353 155.284,188.418 154.668 C 188.482 154.052,188.482 153.043,188.418 152.427 C 188.353 151.811,188.301 152.315,188.301 153.547 M211.303 153.547 C 211.303 154.780,211.356 155.284,211.420 154.668 C 211.484 154.052,211.484 153.043,211.420 152.427 C 211.356 151.811,211.303 152.315,211.303 153.547 M196.085 153.672 C 195.996 153.904,195.971 154.475,196.030 154.941 C 196.118 155.632,196.164 155.554,196.284 154.518 C 196.435 153.212,196.369 152.931,196.085 153.672 M193.348 154.742 C 193.348 155.317,193.409 155.553,193.484 155.265 C 193.560 154.978,193.560 154.507,193.484 154.220 C 193.409 153.932,193.348 154.167,193.348 154.742 M203.505 154.742 C 203.505 155.317,203.566 155.553,203.641 155.265 C 203.716 154.978,203.716 154.507,203.641 154.220 C 203.566 153.932,203.505 154.167,203.505 154.742 M206.193 154.742 C 206.193 155.317,206.255 155.553,206.330 155.265 C 206.405 154.978,206.405 154.507,206.330 154.220 C 206.255 153.932,206.193 154.167,206.193 154.742 M175.653 158.028 C 175.653 158.686,175.707 159.223,175.771 159.223 C 175.836 159.223,175.941 158.686,176.003 158.028 C 176.066 157.371,176.013 156.833,175.885 156.833 C 175.758 156.833,175.653 157.371,175.653 158.028 M223.725 157.954 C 223.868 158.985,223.889 159.006,223.988 158.216 C 224.046 157.744,223.977 157.240,223.832 157.096 C 223.682 156.946,223.637 157.312,223.725 157.954 M175.853 162.410 C 175.570 162.692,175.605 164.600,175.892 164.600 C 176.024 164.600,176.077 164.139,176.011 163.576 C 175.898 162.608,175.947 162.545,176.893 162.429 L 177.894 162.306 176.973 162.258 C 176.466 162.232,175.962 162.300,175.853 162.410 M189.526 162.600 C 189.438 162.827,189.414 164.009,189.471 165.226 L 189.575 167.438 189.634 164.974 L 189.694 162.509 192.221 162.509 L 194.749 162.509 194.854 165.049 L 194.959 167.589 194.940 164.975 L 194.922 162.360 192.303 162.274 C 190.289 162.207,189.647 162.283,189.526 162.600 M199.914 162.428 L 202.218 162.533 202.322 165.061 L 202.427 167.589 202.408 164.975 L 202.390 162.360 200.000 162.342 L 197.610 162.324 199.914 162.428 M204.757 162.610 C 204.672 162.830,204.650 164.074,204.706 165.374 L 204.809 167.737 204.869 165.135 L 204.929 162.533 207.543 162.433 L 210.157 162.333 207.534 162.272 C 205.574 162.226,204.871 162.312,204.757 162.610 M222.883 162.381 C 223.737 162.538,223.800 162.632,223.690 163.576 C 223.621 164.163,223.682 164.488,223.832 164.338 C 224.501 163.670,223.924 162.362,222.928 162.285 L 221.957 162.211 222.883 162.381 M175.771 168.011 C 175.682 168.243,175.666 168.815,175.736 169.280 C 175.844 170.004,175.869 169.967,175.907 169.025 C 175.950 167.981,176.011 167.916,177.072 167.805 L 178.193 167.688 177.063 167.638 C 176.328 167.605,175.877 167.735,175.771 168.011 M221.856 167.807 C 221.770 167.946,222.152 168.008,222.705 167.943 C 223.650 167.833,223.717 167.885,223.831 168.827 L 223.952 169.828 223.925 168.783 C 223.899 167.749,222.345 167.016,221.856 167.807 M194.832 172.132 L 194.772 174.734 192.158 174.834 L 189.544 174.933 192.168 174.995 C 195.242 175.067,195.138 175.180,194.995 171.893 L 194.892 169.529 194.832 172.132 M202.301 172.165 L 202.240 174.801 199.729 174.705 C 198.347 174.651,197.280 174.709,197.357 174.832 C 197.619 175.253,202.245 175.092,202.413 174.656 C 202.497 174.436,202.520 173.193,202.463 171.893 L 202.361 169.529 202.301 172.165 M204.760 172.218 L 204.780 174.907 207.394 174.925 L 210.009 174.944 207.481 174.839 L 204.952 174.734 204.846 172.132 L 204.740 169.529 204.760 172.218 M189.497 172.218 C 189.499 173.532,189.551 174.033,189.614 173.330 C 189.677 172.628,189.676 171.552,189.612 170.941 C 189.548 170.329,189.496 170.904,189.497 172.218 M175.704 174.235 L 175.754 175.504 175.873 174.354 C 175.988 173.237,176.022 173.206,177.018 173.323 C 177.582 173.389,178.043 173.335,178.043 173.204 C 178.043 173.072,177.506 172.965,176.848 172.965 L 175.653 172.965 175.704 174.235 M221.658 173.186 C 221.658 173.327,222.119 173.389,222.682 173.323 C 223.648 173.210,223.714 173.260,223.842 174.204 L 223.976 175.205 223.937 174.160 C 223.901 173.176,221.658 172.217,221.658 173.186 M175.729 179.686 C 175.732 180.344,175.793 180.577,175.865 180.206 C 175.936 179.834,175.933 179.296,175.859 179.011 C 175.784 178.725,175.725 179.029,175.729 179.686 M223.818 179.537 C 223.818 180.112,223.880 180.347,223.955 180.060 C 224.030 179.772,224.030 179.302,223.955 179.014 C 223.880 178.727,223.818 178.962,223.818 179.537 M176.998 180.732 L 176.102 180.960 176.905 180.995 C 177.348 181.015,177.792 180.896,177.894 180.732 C 177.995 180.568,178.037 180.449,177.986 180.469 C 177.935 180.488,177.491 180.606,176.998 180.732 M221.913 180.808 C 222.063 180.958,222.504 181.031,222.893 180.970 C 223.491 180.876,223.449 180.834,222.619 180.696 C 222.026 180.598,221.747 180.642,221.913 180.808 M175.729 185.063 C 175.732 185.721,175.793 185.954,175.865 185.583 C 175.936 185.211,175.933 184.673,175.859 184.388 C 175.784 184.102,175.725 184.406,175.729 185.063 M223.818 185.213 C 223.818 185.788,223.880 186.023,223.955 185.736 C 224.030 185.448,224.030 184.978,223.955 184.690 C 223.880 184.403,223.818 184.638,223.818 185.213 M193.385 188.051 C 193.384 189.529,193.434 190.172,193.497 189.479 C 193.560 188.785,193.560 187.576,193.499 186.790 C 193.437 186.005,193.386 186.572,193.385 188.051 M174.235 193.202 C 175.672 193.257,178.025 193.257,179.462 193.202 C 180.900 193.147,179.724 193.103,176.848 193.103 C 173.973 193.103,172.797 193.147,174.235 193.202 M219.925 193.202 C 221.354 193.257,223.774 193.257,225.302 193.203 C 226.830 193.148,225.661 193.104,222.704 193.103 C 219.746 193.103,218.496 193.147,219.925 193.202 " stroke="none" fill="#ffffff" fill-rule="evenodd"></path></g></svg>